<?xml version="1.0"?>
<svg xmlns:rdf="http://www.w3.org/1999/02/22-rdf-syntax-ns#" xmlns="http://www.w3.org/2000/svg" xmlns:cc="http://creativecommons.org/ns#" xmlns:dc="http://purl.org/dc/elements/1.1/" xmlns:svg="http://www.w3.org/2000/svg" id="svg3517" viewBox="0 0 583.74 390.36" version="1.0">
  <g id="layer1" transform="translate(-33.844 -31.467)">
    <path id="path3472" style="color:#000000" d="m122.44 31.467c-2.21-0.007-4.48 0.219-6.91 0.656-11.7 2.114-22.07 7.136-32.592 15.813-9.161 7.554-10.442 8.879-16.25 16.531-8.548 11.262-11.066 15.193-15.938 25.125-9.998 20.388-10.035 20.518-15.062 45.998-1.223 6.2-1.858 11.98-1.844 17.72 0.023 9.56 1.82 19.01 5.5 30.13 2.242 6.77 3.48 8.77 8.875 14.28 12.605 12.85 24.765 15.03 42.563 7.65 17.408-7.22 28.858-16.73 42.748-35.53 4.76-6.44 2.06-6.15 24.1-2.59 12.47 2.01 20.98 4.68 37.59 11.81 4.95 2.13 11.81 4.88 15.25 6.09 5.28 1.87 6.25 2.57 6.25 4.57 0 0.87 0.21 1.65 0.53 2.06 1.51 10.24 5.1 18.95 9.69 26.84 0.13 0.31 0.34 0.66 0.59 1 0.81 1.35 1.61 2.7 2.47 4 0.15 0.28 0.33 0.56 0.56 0.85 0.64 0.95 1.29 1.88 1.94 2.81-0.06 0.07-0.1 0.15-0.16 0.22-0.95-0.56-1.87-1.09-2.75-1.56-0.18-0.11-0.39-0.23-0.59-0.32-5.97-3.18-10.09-4.47-13.22-4.68-3.3-0.36-5.41 0.75-8.22 2.25-0.11 0.09-0.25 0.16-0.37 0.25-0.43 0.18-0.76 0.51-1.13 0.78-3.42 2.64-5.47 6.2-6.06 10.53-0.66 4.89 0.49 10.77 3.34 17.62-0.3 0.61-0.75 1.29-1.28 1.88-0.72 0.89-1.53 1.69-2.34 2.5-0.59 0.63-0.44 1.29-0.41 2.06 0.18 0.6 0.49 1.1 0.88 1.63 2.33 2.52 4.75 6.39 8.31 6.96 1.08-0.23 1.91-0.92 2.72-1.62 0.62-0.36 1.24-0.81 1.66-1.28 2.51 1.63 4.38 3.86 7.43 5.12 0.42 0.47 1 0.94 1.66 1.25 0.56 0.27 1.19 0.52 1.78 0.72 0.72 0.68 1.87 1.33 3.31 1.78 0.46 0.15 0.94 0.26 1.03 0.28 0.82 0 1.51 0.32 2.25 0.63 1.22 1.09 2.77 1.6 4.32 2.03 0.05 0.01 2.66 1.79 4.4 2.34 0.55 0.3 1.14 0.28 1.72 0.38 1.4 1.01 3 1.57 4.69 1.78 0.16 0 3.1 1.17 4.25 1.81 1.74 0.88 3.46 1.79 5.28 2.47 0.16 0.05 1.74 1 2.5 0.97 0.66 0.42 1.49 0.77 2.44 1.06 0.24 0.08 1.11 0.63 1.53 0.88 0.47 0.27 0.8 0.47 1.09 0.62 2.84 1.27 5.78 2.13 8.41 3.82 0.46 0.18 3.76 1.78 5.25 2.25 0.46 0.14 0.9 0.28 1 0.31 2.22 0.88 4.48 1.59 6.72 2.4 0.59 0.69 2.56 1.71 2.72 1.66 0.03 0.02 1.97 1.04 2.47 0.94 5.89 2.24 11.37 5.6 17.43 7.4 1.08 0.52 2.33 1.02 3.47 1.41 0.25 0.19 0.47 0.35 0.78 0.56 1.27 0.86 2.07 1.38 2.6 1.6 0.03 0.57 0.06 1.17 0.06 1.59l0.91 15.69c-0.05 0.11-0.07 0.21-0.13 0.34-0.66 1.53-0.62 2.16 0.31 2.78l0.28 5.47c-0.35 0.03-0.66 0.26-0.78 0.6-0.72 1.94-0.79 3.87-0.34 5.65v0.03c0.01 0.86 0.3 1.58 0.69 1.85 0.11 0.23 0.23 0.46 0.37 0.68 0.32 0.53 0.71 1.03 1.13 1.5 0.14 0.47 0.58 1.02 1.25 1.5 0.56 0.42 1.05 0.67 1.43 0.82 0.04 0.01 0.09 0.05 0.13 0.06 0.93 0.59 1.95 1.09 3.06 1.5 0.83 0.3 1.69 0.56 2.6 0.75 0.03 0.01 0.06 0.02 0.09 0.03 0.35 0.09 0.69 0.14 1.03 0.19 0.09 0.01 0.17 0.02 0.25 0.03 3.33 0.48 7.09 0.19 10.97-1.06 1.1-0.03 2.19-0.38 2.5-0.88 0.02-0.03 0.01-0.06 0.03-0.09 0.88-0.38 1.77-0.82 2.66-1.31 0.24 0.1 0.71-0.11 1.34-0.63 0.84-0.69 1.76-1.02 2.03-0.75 0.01 0.01 0 0.02 0 0.03l-0.03 0.03c-1.13 1.24-2.17 2.54-2.75 4-0.45 1.15-0.57 2.4-0.22 3.69 0.01 0.03-0.01 0.07 0 0.09 0.02 0.29 0.07 0.6 0.16 0.94 0.04 0.15 0.11 0.27 0.15 0.41 0.28 1.7 1.18 3.14 2.5 4.34 0.04 0.06 0.06 0.12 0.1 0.19 0.21 0.34 0.65 0.62 1.15 0.81 0.01 0.01 0.03 0 0.04 0 0.73 0.5 1.52 0.94 2.37 1.31 3.45 1.52 7.8 2.11 11.91 1.75 1.59-0.13 3.07-0.44 4.5-0.87 0.02-0.01 0.04 0.01 0.06 0 0.41-0.06 0.87-0.19 1.31-0.44l0.06-0.03c1.38-0.52 2.67-1.18 3.91-1.94 0.63-0.38 1.27-0.78 1.88-1.22 0.06 0.12-0.02 0.46-0.25 1.07-0.22 0.56-0.07 1.46 0.4 2.5-0.32 0.18-0.6 0.43-0.81 0.72-0.39 0.51-0.63 1.13-0.75 1.78-0.13 0.19-0.2 0.43-0.22 0.75s0.02 0.72 0.13 1.15c0.09 1.12 0.47 2.18 1.21 2.91 0.06 0.06 0.12 0.09 0.19 0.12 0.16 0.26 0.31 0.52 0.5 0.79 1.16 1.62 2.26 2.58 3 2.81l0.06 0.03c1.05 0.67 2.18 1.21 3.38 1.62 0.41 0.3 1.02 0.54 1.75 0.66 0.88 0.14 1.5 0.2 1.94 0.19 0.98 0.14 1.99 0.21 3 0.22 0.39 0.38 1.37 0.32 2.22-0.07 1.02-0.07 2.03-0.2 3.03-0.4 0.37-0.08 0.72-0.16 1.09-0.25 0.41 0.12 1.07-0.08 1.94-0.56 4.34-1.45 8.02-4.07 9.5-7.75l0.31-0.85-0.09-0.03c0.3-0.61 0.53-1.35 0.62-2 0.21-0.69 0.38-1.37 0.44-2 0.1-1.03-0.02-2.01-0.59-2.78-0.32-0.42-0.78-0.71-1.32-0.91-0.17-0.27-0.43-0.58-0.78-0.97-0.86-0.95-1.56-2.71-1.56-3.9 0-0.47-0.09-0.87-0.19-1.22v-4.22c0.01-0.22 0-0.41-0.03-0.62-0.03-0.26-0.16-0.5-0.28-0.72-0.02-0.05-0.22-0.32-0.13-0.19-0.04-0.1-0.08-0.21-0.09-0.31v-0.1c0.42-0.34 1.95 0.28 6.06 2.13 12.56 5.63 26.25 16.07 45.78 34.87 25.83 24.87 39.97 34.38 54.38 36.57 6.69 1.01 18.02-0.03 22.66-2.1 5.47-2.43 13.04-9.73 15.93-15.4 5.64-11.06 7.93-29.92 5.5-45.35-3.27-20.82-10.41-38.39-20.59-50.62-2.68-3.22-5.24-6.42-5.69-7.13-1.71-2.69-13.35-11.9-19.78-15.65-3.69-2.16-10.26-5.4-14.59-7.19-5.43-2.24-7.21-3.23-7.03-4.16l19.18-4c-0.21 0.43 0.18 0.34 1.25-0.06l5.82-1.41c0.13 0.37 0.33 0.56 0.59 0.41 0.41-0.24 1.65-0.1 2.75 0.34 0.85 0.34 1.49 0.59 2 0.72l3.09 1.31c0.46 0.59 1.31 0.91 2.07 0.91l3.06 1.31c0.25 0.22 0.7 0.38 1.19 0.5l23.15 9.97c1.05 0.56 2.18 1.03 3.22 1.38l4.38 1.9c0.43 0.58 1.15 0.97 1.81 0.97 0.17 0 0.32 0.01 0.47 0l2.5 1.06c0.06 0.09 0.13 0.17 0.22 0.25 0.26 0.27 0.95 0.49 1.75 0.6l4.25 1.84c0.11 0.1 0.23 0.19 0.37 0.28 1.08 0.69 1.85 0.97 2.34 0.88l2.85 1.22c0.81 0.5 1.44 0.81 1.9 0.84l3.6 1.53c0.29 0.33 0.71 0.69 1.22 1.13 0.36 0.32 0.7 0.57 1 0.78 0.52 1.07 1.14 2.18 1.93 3.31 0.3 0.42 0.71 0.89 1.1 1.38 1.65 2.03 4 4.49 6.53 6.71 0.07 0.07 0.14 0.13 0.22 0.19 0.05 0.11 0.1 0.21 0.15 0.31 0.18 0.32 0.49 0.49 0.82 0.5 2.71 2.3 5.37 4.21 7.56 4.75 0.21 0.06 0.41 0.04 0.59-0.03 2.13 0.31 4.79 0.09 6.07-0.47 2.46-0.78 4.57-2.11 6.34-3.81 0.53-0.44 1.07-1 1.41-1.53 2.34-2.79 3.98-6.21 4.9-9.59 0.06-0.22 0.1-0.44 0.16-0.66 0.06-0.17 0.12-0.37 0.15-0.56 0.41-1.81 0.6-3.58 0.63-5.25 0.33-0.35 0.44-0.97 0.31-1.85-0.11-0.73-0.31-1.29-0.56-1.71-0.42-2.36-1.34-4.32-3-5.35-0.04-0.02-0.09-0.01-0.13-0.03-0.1-0.12-0.19-0.25-0.31-0.37 0-0.05 0.01-0.09 0-0.13-0.06-0.37-0.32-0.67-0.69-0.78-0.06-0.03-0.12-0.04-0.18-0.06-0.03-0.02-0.04-0.05-0.07-0.07-0.92-0.54-1.91-1-2.9-1.43 0.14-0.37-0.34-0.81-1.56-1.28-0.65-0.25-2.21-0.41-3.91-0.5-0.02-0.01-0.04 0-0.06 0-1.76-0.4-3.54-0.67-5.32-0.79-1.79-0.11-3.58-0.09-5.31 0.07-0.05 0-0.1 0.02-0.15 0.03-0.2 0.01-0.38 0.01-0.54 0.06h-0.03c-1.32 0.15-2.6 0.38-3.84 0.69-0.66-0.27-1.46-0.57-2.5-0.85-1.79-0.47-3.61-0.96-5.16-1.37-2.09-1.28-7.78-2.88-8.59-3.72-13.16-6.35-26.59-12.1-40.03-17.81-0.22-0.11-0.41-0.19-0.6-0.25-8.26-3.51-16.53-7.01-24.75-10.63-2.36-1.28-3.31-1.61-3.43-1.4-20.04-9.44-40.61-17.64-60.88-26.57-1.65-0.89-2.61-1.29-3.09-1.4-13.22-6.08-26.62-11.71-40-17.41-0.77-0.32-16.82-7.32-17.03-7.44-0.59-0.3-1.09-0.54-1.47-0.71-0.36-0.22-0.75-0.43-1.19-0.6-1.56-0.59-2.17-1.28-1.97-2.25 0.11-0.08 0.24-0.16 0.35-0.25 1.02-0.82 1.88-1.7 2.5-2.62 0.28-0.22 0.55-0.73 0.75-1.44 0.01-0.04 0.02-0.09 0.03-0.13 0.07-0.21 0.11-0.41 0.15-0.62 0.02-0.08 0.04-0.14 0.03-0.22 0-0.02 0.01-0.04 0-0.06 0.26-1.53 0.33-3.53 0.1-5.35 0.15-0.2 0.21-0.46 0.15-0.71-0.09-1.09-0.44-2.1-1-3.04-0.04-0.08-0.1-0.16-0.15-0.21-0.77-1.21-1.86-2.28-3.16-3.16-0.16-0.2-0.36-0.42-0.59-0.66-0.69-0.68-1.47-1.12-1.97-1.12-0.17 0-0.31 0.06-0.41 0.15 0 0.01 0.01 0.03 0 0.04-1.29-0.54-2.7-0.95-4.12-1.19-0.26-0.07-0.53-0.13-0.78-0.13-0.4-0.05-0.79-0.07-1.19-0.09-3.21-0.18-6.48 0.51-9.06 2.41-1.16 0.85-2.16 1.96-2.94 3.31-0.49 0.31-0.87 0.71-1 1.09-0.17 0.51-0.14 0.85 0.03 1.03-0.29 0.84-0.51 1.74-0.66 2.72-0.12-0.01-0.23-0.03-0.37-0.03-0.47-0.01-1.06 0.04-1.78 0.13l-3.25-1.44c0.01-0.06 0.04-0.1 0.06-0.16 0.11-0.42 0.17-0.74 0.19-1.03 0.26-0.2 0.53-0.41 0.78-0.62 1.76-1.53 3.01-3.21 3.34-4.88 0.32-1.19 0.4-2.6 0.25-4.03 0.23-0.24 0.3-0.59 0.19-0.91-0.56-2.8-2.06-5.02-4.06-6.59-0.19-0.72-1.62-1.49-3.1-1.78-2.21-0.91-4.71-1.32-7.21-1.22-4.26 0.16-8.61 1.75-11.63 4.72-1 0.61-2.03 1.71-2.03 2.47 0 0.03 0.03 0.06 0.03 0.09-0.6 0.99-1.11 2.06-1.44 3.25-0.27 0.08-0.66 0.04-1.09-0.12-0.26-0.1-0.47-0.16-0.66-0.19h-0.03l-1.65-0.72c0.04-0.14 0.08-0.27 0.12-0.44 0.06-0.22 0.06-0.4 0.09-0.59 1.82-1.27 3.19-2.91 3.72-4.91 0.08-0.29 0.02-0.61-0.18-0.84-0.04-0.04-0.09-0.06-0.13-0.1 0.3-1.9 0.25-4.81-0.16-7.12-0.07-2.51-1.67-4.49-3.9-5.75l-0.03-0.03c-0.07-0.05-0.15-0.08-0.22-0.13-0.23-0.14-0.48-0.25-0.75-0.34-2.3-1.03-5.12-1.53-8.03-1.47-1.48 0.03-2.98 0.21-4.44 0.53-1.26 0.14-2.89 0.66-3.72 1.22l-0.06 0.03c-0.4 0.18-0.78 0.36-1.16 0.56-0.62 0.34-1.19 0.71-1.75 1.13-0.15 0.11-0.29 0.23-0.44 0.34-0.14 0.12-0.25 0.2-0.43 0.35-0.1 0.07-0.16 0.17-0.25 0.25-0.31 0.27-0.59 0.55-0.82 0.84-0.07 0.1-0.15 0.19-0.21 0.28-0.91 1.12-1.61 2.41-2 3.88-0.13 0.46 0.12 0.94 0.56 1.09-0.27 0.21-0.67 0.2-1.28 0h-0.03l-0.85-0.34c-0.27-0.13-0.51-0.24-0.84-0.41-1.14-0.59-2.36-1.08-3.19-1.31-0.04-0.01-0.09-0.02-0.12-0.03-1.02-0.43-2.03-0.87-3.1-1.32-0.75-0.96-1.96-1.29-2.65-1.12-5.17-2.15-10.78-4.44-17-6.97-10.35-4.19-19.09-7.83-23.16-9.56l0.09-0.28-0.97-0.32c-2.16-0.74-4.34-1.18-6.53-1.31-0.35-0.16-0.82-0.25-1.34-0.25-0.55 0-1.04 0.1-1.41 0.28-7.41 0.48-14.3 4.58-18.15 12.25l-0.44 0.91 0.41 0.19c-1.19 2.81-2.41 7.15-2.35 9.28 0.02 0.82 0.07 1.35 0.13 1.62 0 0.02-0.01 0.05 0 0.07v1.56c-1.7-0.77-3.42-1.54-5-2.28-4.78-2.25-12.52-5.8-17.19-7.88-7.27-3.23-11.99-6.07-26.44-16-7.09-4.87-9.8-7.89-9.22-10.19 6.98-27.319 6.2-47.13-2.59-65.933-4.87-10.426-8.87-14.694-17.97-19.094-4.74-2.291-9.21-3.391-14.06-3.406zm-0.66 1.719c0.6-0.009 1.2-0.025 1.78 0 2.57 0.108 7.44 1.29 10.85 2.625 8.12 3.184 13.71 9.214 19.22 20.687 3.47 7.245 4.4 10.524 5.21 17.969 1.64 15.015-0.85 41.433-4.25 45.063-1.23 1.33-1.13 0.67 1.29-10.78 7.02-33.319-3.14-65.35-22.85-72.064-12.84-4.376-33.067 1.048-46.811 12.562-11.881 9.954-15.741 14.308-25.187 28.344-3.261 4.844-12.017 22.458-15 30.188-1.443 3.74-3.443 9.51-4.469 12.81-1.003 3.23-1.484 4.41-1.531 3.72-0.016-0.23 0.017-0.67 0.093-1.31 1.218-10.24 13.08-35.872 24.313-52.533 14.178-21.03 38.932-37.016 57.342-37.281zm-0.5 2.906c1.97 0 3.29 0.417 2.97 0.938-0.34 0.55 0.77 0.736 2.69 0.437 4.83-0.752 14.74 5.549 19.06 12.125 3.76 5.715 6.21 10.924 4.72 10-1.23-0.761-1.29 0.608-0.16 3.688 1.5 4.063 2.26 7.973 1.44 7.468-0.43-0.268-0.78 6.578-0.78 15.188 0 9.718-0.54 18.034-1.41 21.934l-1.37 6.28-2.47-2.28c-4.19-3.91-11.43-14.036-13.97-19.528-1.8-3.885-2.36-6.617-2.16-10.5 0.37-6.978-1.46-6.765-2.15 0.25-0.4 4.023-0.7 4.828-1.13 3-0.37-1.578-0.52-1.038-0.37 1.5 0.19 3.358 1.37 6.686 5.34 14.878 0.24 0.49-0.07 0.56-0.69 0.18-0.72-0.44-0.89-0.09-0.5 0.94 0.34 0.89 1.24 1.38 1.97 1.1 0.74-0.29 1.62-0.09 1.94 0.43 0.33 0.53 0.11 0.97-0.47 0.97-2.49 0-0.35 2.68 11.69 14.75 18.84 18.89 28.57 25.13 65.31 41.69 8.02 3.61 14.85 6.56 15.16 6.56s5.2 2.18 10.9 4.85 14.2 6.55 18.88 8.62c4.67 2.07 15.25 6.8 23.5 10.53s17.92 8.02 21.5 9.5c3.57 1.49 8.52 3.73 11 5.03 2.47 1.3 8.77 4.16 14 6.32 13.34 5.51 38.01 16.47 47.5 21.12 12.62 6.19 21.65 10.01 25.55 10.85 1.19 0.26 6.29 3.69 7.98 2.65 0.57-0.35 7.28 2.32 14.94 5.94 7.65 3.62 14.41 6.59 15 6.59s3.82 1.37 7.19 3.06c4.85 2.45 6.29 2.81 6.96 1.75 0.65-1.01 0.84-0.91 0.85 0.44 0.01 1.42 0.55 1.66 2.69 1.13 2.15-0.54 2.54-0.39 2.06 0.87-0.7 1.83 4.15 5.34 12.09 8.75 2.85 1.23 5.19 2.9 5.19 3.69 0 1.31 12.64 7.84 19 9.81 1.37 0.43 4.97 2.49 8 4.56 12.85 8.83 23.98 21.87 30.78 36.07 2.11 4.4 4.37 7.77 5.22 7.81 1.07 0.05 1.17 0.3 0.31 0.84-0.89 0.57-0.41 3.57 1.91 11.75 2.78 9.81 3.11 12.41 3.12 24.47 0.01 12.87-0.15 13.92-3.34 22.47-1.84 4.93-4.37 10-5.63 11.25-1.25 1.26-1.94 2.28-1.53 2.28 0.42 0 1.31-0.56 1.97-1.22 0.71-0.7 1.19-0.76 1.19-0.15 0 1.08-3.46 4.48-6 5.9-1.29 0.73-1.31 0.62-0.13-0.84 1.68-2.07 0.34-2.16-2.31-0.16-1.07 0.81-2.87 1.45-4 1.44-1.72-0.01-1.81-0.19-0.56-1.06 1.23-0.86 1.14-0.96-0.5-0.66-1.1 0.2-1.89 0.91-1.75 1.56 0.14 0.66-0.31 1.14-1 1.07-0.69-0.08-4.4-0.51-8.25-0.97s-7.9-0.63-9-0.38-1.41 0.18-0.69-0.15c0.8-0.36-0.68-1.53-3.72-2.94-7.91-3.67-15.58-9.39-29.37-21.88-7.04-6.36-13.11-11.54-13.5-11.53-0.39 0.02 0.63 1.3 2.28 2.85s4.57 4.57 6.5 6.72l3.5 3.9-3.5-3.03c-8.14-7.05-8.17-7.07-7.38-5 0.52 1.34 0.36 1.64-0.53 1.09-0.68-0.42-1-1.4-0.72-2.15 0.29-0.75 0.08-1.63-0.46-1.97-0.55-0.34-0.77-1.36-0.47-2.28 0.56-1.78-10.81-12.99-20.66-20.35-5.75-4.29-8.92-5.17-4.28-1.18 1.65 1.41 2.32 2.23 1.5 1.81-2.63-1.34-4.97-3.68-4.47-4.5 0.53-0.85-4.7-4.94-6.31-4.94-0.54 0-1.56-0.69-2.25-1.53-1.26-1.52-11.23-6.5-15.97-7.97-4.61-1.43-10-4.54-10-5.78 0-0.68 0.89-2.67 1.97-4.44l1.97-3.22 9.28 4c13.29 5.71 16.65 7.48 25.75 13.54 8.66 5.76 10.07 6.42 7.9 3.65-1.24-1.59-1.2-1.64 0.41-0.37 0.98 0.76 1.53 1.62 1.25 1.9-0.69 0.69 1.45 3.22 2.72 3.22 0.55 0 0.38-0.79-0.38-1.75-1.24-1.58-1.19-1.64 0.38-0.4 0.96 0.75 1.51 1.71 1.25 2.12-0.26 0.42 2.35 3.36 5.78 6.56s9.7 9.15 13.94 13.22c4.77 4.58 8.16 7.12 8.9 6.66 0.7-0.43 0.94-0.29 0.57 0.31-0.78 1.25 8.54 10.24 17.18 16.59 12.73 9.36 22.99 11.8 31.13 7.38 2.47-1.34 5.51-3.91 6.75-5.72 3.55-5.16 6.28-15.32 6.12-22.84l-0.15-6.63-0.75 7.31c-0.42 4.03-1 7.53-1.25 7.79-0.25 0.25-0.41-4.72-0.35-11.04 0.07-6.31 0.44-10.72 0.82-9.78 1.74 4.38 0.61-4.35-1.72-13.34-1.4-5.38-2.36-10.35-2.1-11.03s0.19-1.53-0.18-1.91c-0.38-0.37-0.7-1.2-0.72-1.84-0.03-0.64-0.55-1.06-1.16-0.94s-1.36-0.44-1.65-1.22c-0.38-0.97-0.06-1.22 1-0.81 1.33 0.51 1.28 0.1-0.22-2.81-4.51-8.74-17.99-24.3-23.94-27.63-1.09-0.61-1.76-1.33-1.47-1.62s2.63 1.25 5.19 3.43c2.55 2.19 4.89 3.56 5.22 3.04 1.36-2.21-11.71-10.28-29.19-17.97-9.89-4.36-19.07-8.26-20.38-8.66s-9.8-3.86-18.87-7.69c-9.08-3.83-19.88-8.33-24-10-4.13-1.66-12-4.97-17.5-7.34s-12.93-5.42-16.5-6.78c-3.58-1.37-8.3-3.38-10.5-4.47s-12.78-5.61-23.5-10c-10.73-4.4-22.2-9.09-25.5-10.47-3.3-1.37-12.3-5.1-20-8.28s-16.34-6.85-19.19-8.13-5.62-2.31-6.15-2.31c-0.54 0-6.02-2.29-12.16-5.06-6.15-2.77-15.53-6.75-20.84-8.88-5.32-2.12-14.84-6.11-21.16-8.87-6.33-2.76-14.4-6.03-17.94-7.25-3.53-1.22-8.93-3.46-12-4.97-7.12-3.51-23.21-8.66-32.97-10.53-12.86-2.47-33.75-3.84-41.59-2.72-6.67 0.96-6.27 1.01 8.5 1.22 8.52 0.12 17.75 0.54 20.5 0.91 2.75 0.36-5.13 0.65-17.5 0.65-18.29 0-23.96 0.36-30.31 1.85-5.626 1.31-7.683 2.19-7.316 3.15 0.281 0.73-0.147 1.57-0.937 1.88-0.863 0.33-1.438-0.05-1.438-0.97 0-0.84-0.483-1.23-1.062-0.88-0.58 0.36-0.89 1.15-0.688 1.75 0.202 0.61-1.098 2.38-2.906 3.97-1.809 1.59-3.186 3.41-3.063 4.03s-0.415 1.13-1.187 1.16c-0.773 0.02-1.52 0.74-1.656 1.56-0.137 0.83-0.551 2.29-0.938 3.25-1.057 2.63-0.341 2.18 5.25-3.12 2.814-2.67 6.741-5.63 8.719-6.57 3.892-1.84 15.262-4.06 25.312-4.96l6.31-0.6-2.75 3.75c-4.54 6.22-12.47 14.1-19.34 19.19-6.508 4.82-17.001 10.64-17.001 9.44 0-0.35-0.606-0.12-1.344 0.5-0.738 0.61-1.638 0.8-2 0.43-0.362-0.36-0.656-0.14-0.656 0.5 0 0.65 0.788 1.23 1.75 1.29 3.105 0.18-6.1 2.72-10.75 2.96l-4.5 0.25 5 0.69 5 0.69-5.812 0.16c-3.37 0.09-5.553-0.25-5.219-0.79 0.316-0.51 0.058-1.24-0.563-1.62-0.62-0.38-1.459-0.14-1.875 0.53-1.648 2.67-13.326-5.63-16.906-12-1.218-2.17-2.102-4.71-1.937-5.69 0.164-0.97-0.209-1.68-0.844-1.56-0.636 0.12-1.429-0.48-1.75-1.31-0.376-0.98-0.176-1.27 0.562-0.81 0.803 0.49 0.949-0.01 0.469-1.69-2.035-7.14-3.191-12.74-3.187-15.25 0.001-0.84 0.139-1.35 0.406-1.44 0.777-0.26 1.156-3.95 1.156-11.31 0-8.75 0.27-10.91 1.406-10.91 1.371 0 3.594-7.48 3.594-12.12 0-7.12 15.64-41.017 23.938-51.878 2.782-3.641 4.76-7.212 4.5-8.094-0.287-0.969 1.475-3.39 4.562-6.312 2.756-2.61 5-4.455 5-4.094s-2.137 2.596-4.75 4.969c-2.612 2.373-4.525 4.564-4.25 4.844 0.877 0.89 16.824-13.772 16.656-15.313-0.097-0.898 2.28-2.666 6.065-4.5 3.49-1.692 6.05-3.526 5.81-4.187-0.26-0.716 2.03-1.914 5.78-3.063 3.45-1.057 6.08-2.439 5.94-3.094-0.16-0.726 1.11-1.156 3.31-1.156zm-6.47 1.125c0.35-0.014 0.74 0.043 1.1 0.188 0.79 0.319 0.57 0.545-0.6 0.593-0.79 0.033-1.33-0.106-1.4-0.312-0.03-0.069 0.01-0.136 0.09-0.219 0.17-0.166 0.47-0.236 0.81-0.25zm6 0c-0.34 0.014-0.64 0.084-0.81 0.25-0.08 0.083-0.12 0.15-0.09 0.219 0.07 0.206 0.61 0.345 1.4 0.312 1.17-0.048 1.39-0.274 0.6-0.593-0.36-0.145-0.75-0.202-1.1-0.188zm-9.59 0.906c0.55 0 0.32 0.436-0.5 0.969-0.83 0.533-1.95 0.969-2.5 0.969-0.21 0-0.32-0.052-0.31-0.156 0-0.175 0.29-0.48 0.81-0.813 0.82-0.533 1.95-0.969 2.5-0.969zm-1.5 3.969c-0.55 0-1 0.45-1 1s0.45 1 1 1 1-0.45 1-1-0.45-1-1-1zm-16.157 7.125c0.105 0.002 0.156 0.061 0.156 0.156 0 0.191-1.462 1.411-3.25 2.719-1.508 1.104-2.295 1.509-2.219 1.188 0.026-0.107 0.156-0.293 0.375-0.563 1.165-1.435 4.202-3.512 4.938-3.5zm4.531 1.219c-0.12 0.02-0.237 0.071-0.375 0.156-0.55 0.34-1 0.82-1 1.063 0 0.242 0.45 0.437 1 0.437s1-0.48 1-1.062c0-0.437-0.266-0.654-0.625-0.594zm-5.281 1.687c0.145-0.034 0.278-0.003 0.344 0.063 0.263 0.263-0.507 1.053-1.719 1.781-1.053 0.633-1.589 0.935-1.656 0.875-0.068-0.06 0.331-0.483 1.156-1.344 0.712-0.743 1.44-1.272 1.875-1.375zm54.967 1.938c-0.21-0.02-0.43 0.057-0.65 0.281-0.17 0.165-0.23 0.472-0.19 0.813 0.03 0.34 0.16 0.714 0.37 1.062 0.63 1.02 0.85 1.016 1.19 0 0.36-1.087-0.09-2.096-0.72-2.156zm-66.155 5.094c0.054-0.02 0.094-0.004 0.094 0.031 0 0.275-1.8 2.258-4 4.406s-4 3.681-4 3.406 1.8-2.258 4-4.406c1.925-1.88 3.532-3.299 3.906-3.437zm71.685 8.343c0.11-0.047 0.29 0.066 0.57 0.344 0.58 0.581 0.86 1.654 0.62 2.375-0.25 0.749-0.71 0.29-1.06-1.062-0.14-0.52-0.23-0.914-0.25-1.188s0.03-0.429 0.12-0.469zm1.91 5.469c0.05 0.005 0.12 0.105 0.19 0.344 0.25 0.956 0.27 2.756 0.03 4s-0.46 0.481-0.47-1.719c-0.01-1.65 0.09-2.639 0.25-2.625zm-85.345 3.625l-1.687 3.063c-0.93 1.686-2.569 4.161-3.656 5.5l-1.969 2.437 1.687-3.062c0.93-1.687 2.569-4.162 3.657-5.5l1.968-2.438zm84.065 5.5c0.43 0 0.78 1.995 0.78 4.438 0 2.442-0.39 4.669-0.88 4.968-0.48 0.299-0.86-1.696-0.81-4.437 0.05-2.742 0.47-4.969 0.91-4.969zm2.31 0.969c0.06-0.042 0.12 0.223 0.19 0.781 0.22 1.788 0.22 4.713 0 6.5-0.22 1.788-0.41 0.325-0.41-3.25 0-2.458 0.09-3.94 0.22-4.031zm-28.37 5.437c0.16-0.054 0.54 0.481 0.93 1.469 0.53 1.317 0.78 2.594 0.57 2.813-0.44 0.438-1.42-1.768-1.6-3.375-0.02-0.23-0.01-0.462 0-0.657 0.01-0.16 0.04-0.232 0.1-0.25zm27.28 9.438c0.02-0.016 0.04-0.012 0.06 0 0.05 0.031 0.12 0.165 0.19 0.406 0.25 0.963 0.25 2.538 0 3.498-0.26 0.96-0.47 0.18-0.47-1.75 0-1.261 0.08-2.043 0.22-2.154zm-103.1 0.531c0.27 0.007 0.287 0.395 0.031 1.063-0.665 1.73-1.375 2.06-1.375 0.62 0-0.513 0.456-1.222 1-1.558 0.142-0.087 0.254-0.127 0.344-0.125zm101.03 0.813c0.07-0.025 0.14-0.021 0.22 0.062 0.34 0.332 0.39 1.218 0.1 1.938-0.32 0.8-0.58 0.54-0.63-0.63-0.03-0.786 0.11-1.295 0.31-1.37zm-100.56 4c0.104 0 0.156 0.11 0.156 0.31 0 0.55-0.436 1.68-0.969 2.5-0.467 0.72-0.878 1-0.969 0.69-0.013-0.05 0-0.12 0-0.19 0-0.55 0.436-1.67 0.969-2.5 0.333-0.51 0.638-0.81 0.813-0.81zm101.6 1.25c0.02-0.01 0.04-0.01 0.06 0 0.06 0.02 0.12 0.14 0.19 0.31 0.27 0.69 0.27 1.81 0 2.5-0.28 0.69-0.5 0.13-0.5-1.25 0-0.9 0.1-1.48 0.25-1.56zm-16.91 1.06l3.25 2.94c1.79 1.62 3.25 3.08 3.25 3.25 0 0.77-0.83 0.09-3.56-2.94l-2.94-3.25zm-1.81 1l3.87 3.72c2.12 2.05 3.63 3.9 3.38 4.16-0.26 0.25-1.98-1.42-3.85-3.72l-3.4-4.16zm-81.878 0.44c0.084-0.04 0.147 0.02 0.156 0.19 0.019 0.35-0.634 2.15-1.438 4-0.803 1.85-1.466 2.7-1.468 1.87-0.004-1.26 2.161-5.82 2.75-6.06zm-3.032 1.25c0.096 0 0.137 0.11 0.125 0.31-0.104 1.9-1.754 5.09-1.812 3.5-0.03-0.82 0.373-2.17 0.906-3 0.333-0.51 0.621-0.81 0.781-0.81zm0 7c0.096 0 0.137 0.11 0.125 0.31-0.104 1.9-1.754 5.09-1.812 3.5-0.03-0.82 0.373-2.17 0.906-3 0.333-0.51 0.621-0.81 0.781-0.81zm104 8.5c0.39 0.04 1.08 0.51 2.34 1.41 1.55 1.09 3.12 2.52 3.5 3.18 0.39 0.67-0.18 0.43-1.28-0.53-2.44-2.14-4.05-2.31-2.34-0.25 1.49 1.8 1.07 1.88-1.09 0.22-0.88-0.67-1.6-2-1.6-2.94 0-0.76 0.08-1.13 0.47-1.09zm-114.97 2.81l-0.657 6c-0.362 3.3-0.618 13.65-0.562 23 0.079 13.21 0.492 17.98 1.781 21.41 0.913 2.42 1.475 4.59 1.25 4.81-0.815 0.82-3.62-9.4-4.719-17.22-0.479-3.4-0.674-7.66-0.625-12.09 0.082-7.38 0.85-15.23 2.157-20.41l1.375-5.5zm4.562 1.69c0.068-0.03 0.136-0.02 0.219 0.06 0.332 0.33 0.382 1.22 0.094 1.94-0.32 0.8-0.577 0.54-0.625-0.63-0.033-0.79 0.107-1.3 0.312-1.37zm191.82 4c0.43-0.02 0.84-0.01 1.28 0 1.73 0.04 3.5 0.3 5.25 0.78 0.14 0.09 0.29 0.2 0.5 0.28 3.51 1.45 7.17 2.96 10.78 4.44 8.52 3.5 16.85 6.92 22.94 9.41 5.62 2.29 9.29 3.78 9.43 3.81 0.04 0.01 0.84 0.31 1.16 0.44 0.63 0.35 1.03 0.53 1.22 0.46 0.86 0.35 1.93 0.79 3.22 1.32 0.71 0.45 1.58 0.92 2.59 1.34 1.89 0.79 3.44 1.86 3.44 2.41 0 0.33 0.19 1.09 0.44 1.93-0.13 0.26-0.14 0.56 0 0.82 0.27 0.65 0.61 1.25 1 1.81 0.03 0.05 0.08 0.1 0.12 0.16 0.35 0.56 0.71 1.02 1.06 1.25 0.52 0.5 1.08 0.94 1.69 1.34-1.52-0.11-4.83-1.44-9.44-3.81-2.6-1.35-8.16-2.25-11.4-2.19-0.11 0-0.18 0.03-0.28 0.03l-0.07-0.37-0.87 0.18-10.53 1.91c-0.08-0.01-0.14-0.06-0.22-0.06-0.92-0.08-1.54-0.17-2.13-0.32-0.86-0.36-1.75-0.74-2.68-1.15-0.16-0.09-0.26-0.15-0.44-0.25-0.74-0.41-1.26-0.62-1.63-0.69-2.78-1.25-5.66-2.56-8.46-3.81-0.35-0.29-0.84-0.51-1.35-0.6-0.44-0.19-0.91-0.4-1.34-0.59-1.36-0.59-2.65-1.15-3.85-1.62-0.76-0.45-1.51-0.7-2.12-0.79-0.4-0.14-0.79-0.28-1.16-0.4-0.5-0.16-0.97-0.3-1.4-0.41-0.18-0.15-0.5-0.25-1-0.25-0.09 0-0.17 0.03-0.25 0.03-0.33-0.04-0.66-0.09-0.97-0.06-0.34 0.03-0.67 0.16-1 0.44l-0.16 0.12c-3.85 1.61-7.56 6.66-7.56 11.03 0 2.15-0.34 2.5-1.75 1.91-0.96-0.4-3.91-1.58-6.56-2.62-1.51-0.6-4.15-1.73-7-3v-5.1h-0.16c0.23-0.93 0.4-1.94 0.44-2.75 0.05-1.37 0.75-3.37 1.56-4.44 0.07-0.09 0.12-0.16 0.19-0.25l0.06 0.04 0.19-0.38c0.42-0.61 0.69-1.16 0.84-1.59 1.63-2.87 3.71-5.13 6.1-6.78 0.32-0.15 0.66-0.32 1.06-0.57 0.23-0.14 0.4-0.31 0.56-0.47 0.56-0.3 1.14-0.56 1.72-0.81 0.41 0.4 1.33 0.16 2.72-0.72 0.15-0.09 0.28-0.2 0.4-0.31 1.24-0.29 2.53-0.48 3.82-0.53zm-67.97 4.81c0.01-0.01 0.03 0 0.06 0 0.87 0 8.72 5.06 8.72 5.63 0 0.63-0.4 0.43-5-2.63-2.03-1.35-3.55-2.5-3.78-2.87-0.04-0.06-0.02-0.11 0-0.13zm-122.22 4c-0.55 0-1 0.71-1 1.56 0 0.86 0.45 1.28 1 0.94 1.294-0.8 1.294-2.5 0-2.5zm266.72 3.53c2.76-0.06 5.43 0.45 7.44 1.38 0.65 0.45 1.2 0.76 1.59 0.9 0.74 0.55 1.3 1.17 1.66 1.88 0.02 0.05 0.03 0.1 0.06 0.16 0.03 0.09 0.04 0.19 0.09 0.28 0.02 0.04 0.05 0.08 0.06 0.12 0.03 0.06 0.04 0.11 0.07 0.19 0.1 0.37 0.15 0.77 0.15 1.19-0.03 0.22 0.04 0.44 0.16 0.62v0.03c0.03 0.29 0.04 0.62 0.06 0.94-0.09 0.1-0.15 0.24-0.19 0.38-0.47 1.77-1.92 3.32-4 4.5-2.08 1.17-4.76 1.94-7.5 2.15-2.73 0.21-5.49-0.14-7.78-1.09-1.91-0.8-3.48-1.99-4.47-3.66-0.23-1.19-0.51-2-0.81-2.37 0.26-0.79 0.61-1.5 1.06-2.16 0.36-0.07 0.63-0.23 0.63-0.41 0-0.07 0.06-0.34 0.12-0.56 0.84-0.93 1.89-1.73 3.07-2.37 2.47-1.35 5.54-2.03 8.53-2.1zm-71.03 6.5c0.51 0.09 1.19 0.26 2.03 0.53 0.24 0.08 0.52 0.16 0.78 0.25 0.21 0.22 0.46 0.42 0.75 0.54 0.38 0.15 1.01 0.3 1.69 0.4 1.16 0.46 2.42 0.99 3.75 1.56 4.59 1.99 9.89 4.47 14.43 6.44l-7.03 1.25h-0.09c-0.55 0-1.04 0.1-1.41 0.28l-9.59 1.72c-0.46 0-0.85 0.09-1.19 0.22l-4.37 0.78-0.91 0.16 0.06 0.31c-1.73 0.15-4.02-0.07-5.43-0.56-1.78-0.62-2.47-0.91-2.5-2.03-0.03-0.68 0.18-1.67 0.53-3.19 1.14-5.11 3.01-7.29 6.87-8.06 0.62-0.13 1.16-0.36 1.63-0.6zm-41.19 3.03c0.55 0 2.12 0.66 3.5 1.44 1.37 0.79 2.05 1.41 1.5 1.41s-2.13-0.62-3.5-1.41c-1.03-0.59-1.67-1.09-1.69-1.31-0.01-0.07 0.05-0.13 0.19-0.13zm123.69 1.79c0.02 0.89 0.09 1.65 0.18 2.25-0.35 1.3-1.25 2.49-2.53 3.5-0.07-0.02-0.13-0.04-0.22-0.04-0.5 0.04-1.21 0.4-2.12 1.07-0.46 0.33-0.77 0.61-1 0.84-0.79 0.31-1.63 0.52-2.5 0.72-0.4-0.12-0.87-0.19-1.41-0.19-1.16 0-2.14 0.31-2.47 0.72-1.16 0.05-2.31-0.02-3.43-0.19-0.76-0.68-2.74-1.17-4.1-1.15-1.2-0.57-2.26-1.3-3.09-2.22-0.26-0.69-0.59-1.97-0.84-3.31 0.43 0.36 0.88 0.7 1.37 1 0.04 0.54 0.47 1.19 1.22 1.5 0.69 0.27 1.92 0.5 2.75 0.53 0.45 0.01 0.67-0.06 0.72-0.19 1.06 0.23 2.17 0.33 3.28 0.37v0.04c0 1.04 1.75 1.05 4.44 0 0.34-0.14 0.61-0.28 0.81-0.44 1.89-0.38 3.67-1 5.25-1.85 0.09-0.04 0.16-0.08 0.25-0.12l0.03-0.03c0.67-0.33 1.23-0.72 1.63-1.06 0.13-0.11 0.27-0.24 0.4-0.35 0.01-0.01-0.01-0.02 0-0.03 0.5-0.43 0.98-0.88 1.38-1.37zm-212.13 0.18c-0.52 0-1.16 0.33-1.56 0.97-0.09 0.14-0.13 0.29-0.13 0.41 0.02 0.36 0.42 0.59 1.07 0.59 0.85 0 1.56-0.45 1.56-1 0-0.64-0.41-0.97-0.94-0.97zm228.66 0.72c2.94-0.11 5.83 0.52 8.09 1.88 1.49 0.89 2.71 2.09 3.53 3.62 0 0.91 0 2.02 0.03 3.56 0.01 0.33 0.03 0.49 0.04 0.79-0.47 0.55-0.99 1.06-1.54 1.53-0.63 0.19-1.64 0.8-2.87 1.87l-0.03 0.03c-3.35 1.71-7.35 2.33-10.94 2.13-1.32-0.08-2.58-0.26-3.72-0.53-0.01-0.01-0.02-0.03-0.03-0.03-0.64-0.32-1.33-0.53-1.91-0.57-0.01 0-0.01-0.02-0.03-0.03-0.5-0.19-0.94-0.4-1.34-0.62-0.2-0.11-0.37-0.23-0.53-0.35 0.53-0.85-0.63-3.96-1.72-5.34 0.33-0.81 0.78-1.53 1.28-2.22 0.54-0.43 1.07-1.06 1.41-1.66 2.65-2.53 6.46-3.91 10.28-4.06zm-128.38 0.28c0.05-0.01 0.09 0 0.16 0 0.55 0 1.67 0.44 2.5 0.97 0.82 0.54 1.05 0.97 0.5 0.97s-1.68-0.43-2.5-0.97c-0.54-0.35-0.84-0.67-0.81-0.84 0.01-0.06 0.07-0.1 0.15-0.13zm-1 2c0.05-0.01 0.09 0 0.16 0 0.55 0 1.67 0.44 2.5 0.97 0.82 0.54 1.05 0.97 0.5 0.97s-1.68-0.43-2.5-0.97c-0.54-0.35-0.84-0.67-0.81-0.84 0.01-0.06 0.07-0.1 0.15-0.13zm-82.34 0.07c1.18 0 2.36 0.07 3.25 0.18 1.79 0.23 0.32 0.38-3.25 0.38-2.46 0-3.94-0.07-4.03-0.19-0.04-0.05 0.22-0.12 0.78-0.19 0.89-0.11 2.07-0.18 3.25-0.18zm28 0.12c1.37-0.01 3.62 0.34 5 0.78 1.96 0.63 2.07 0.8 0.5 0.78-1.1-0.01-3.35-0.36-5-0.78-1.35-0.34-2.06-0.52-2.13-0.62-0.06-0.11 0.51-0.15 1.63-0.16zm125.72 0.16c1.98-0.16 4.48 0.61 8.65 2.56 3.6 1.68 7.22 3.06 8.04 3.06 0.81 0 1.75 0.45 2.09 1 6.3 2.88 3.23-1.4 5.66 2.94-0.04 0.01-0.07 0.01-0.1 0.03-1.06 0.56-2 1.11-2.84 1.66-0.84-0.42-3.25-1.61-6.41-3.07-1.88-0.86-3.86-1.73-5.59-2.43-1.73-0.71-3.12-1.25-4.16-1.41l-0.25-0.03c-1.12-0.4-2.51-0.65-3.78-0.66-2.52-0.67-2.92 0.37-4.78 0.5-1.39 0.08-2.7-0.16-3.69 0.57-0.01 0-0.02-0.01-0.03 0l-3.06 0.53c-0.15-0.06-0.31-0.11-0.56-0.1-0.24 0.02-0.52 0.07-0.85 0.16-0.31 0.08-0.61 0.19-0.87 0.31l-8.97 1.56c-0.1-0.01-0.19-0.03-0.31-0.03-0.24 0.02-0.52 0.07-0.85 0.16-0.13 0.03-0.25 0.08-0.37 0.12l-12.85 2.22-0.87 0.16 0.03 0.25c-0.83-0.03-1.67-0.25-2.5-0.63-1.28-0.58-1.85-0.89-1.84-1.28 0-0.23 0.22-0.48 0.62-0.84l4.16-0.75c0.18 0.03 0.36 0.06 0.56 0.06 0.71 0 1.33-0.19 1.69-0.47l3.5-0.62c0.24 0.05 0.52 0.09 0.81 0.09 0.78 0 1.45-0.23 1.78-0.56l2.72-0.5c0.16 0.02 0.32 0.06 0.5 0.06 0.69 0 1.29-0.17 1.66-0.44l3.56-0.65c0.24 0.05 0.5 0.09 0.78 0.09 0.78 0 1.45-0.23 1.78-0.56l2.31-0.41 0.25 0.1 0.07-0.16 0.59-0.09c0.07 0.01 0.18 0.02 0.25 0.03 0.58 0.03 0.99-0.11 1.28-0.31l3.56-0.66c0.1 0.01 0.17 0.06 0.28 0.06 0.45 0 0.94-0.13 1.35-0.34l4.84-0.88 0.88-0.15v-0.03c0.16-0.03 0.28-0.06 0.47-0.1 0.26-0.06 0.52-0.1 0.81-0.12zm-168.6 0.75c0.55-0.01 1.11 0.06 1.6 0.18 0.97 0.26 0.43 0.45-1.22 0.47-1.24 0.02-2.01-0.08-2.03-0.25-0.01-0.05 0.08-0.12 0.25-0.18 0.34-0.14 0.86-0.22 1.4-0.22zm31.88 0c0.63 0 1.27 0.06 1.75 0.18 0.96 0.26 0.17 0.44-1.75 0.44-1.44 0-2.25-0.09-2.16-0.25 0.03-0.05 0.17-0.12 0.41-0.19 0.48-0.12 1.11-0.18 1.75-0.18zm6.09 1c0.35-0.02 0.74 0.04 1.1 0.18 0.79 0.32 0.57 0.55-0.6 0.6-0.79 0.03-1.33-0.11-1.4-0.31-0.03-0.07 0.01-0.14 0.09-0.22 0.17-0.17 0.47-0.24 0.81-0.25zm14 0c0.35-0.02 0.74 0.04 1.1 0.18 0.79 0.32 0.57 0.55-0.6 0.6-0.79 0.03-1.33-0.11-1.4-0.31-0.03-0.07 0.01-0.14 0.09-0.22 0.17-0.17 0.47-0.24 0.81-0.25zm-8 1c0.35-0.02 0.74 0.04 1.1 0.18 0.79 0.32 0.57 0.55-0.6 0.6-0.79 0.03-1.33-0.11-1.4-0.31-0.03-0.07 0.01-0.14 0.09-0.22 0.17-0.17 0.47-0.24 0.81-0.25zm-114.03 0.84c-0.21-0.02-0.433 0.06-0.657 0.28-0.165 0.17-0.222 0.47-0.187 0.81 0.034 0.34 0.159 0.72 0.375 1.07 0.63 1.02 0.849 1.01 1.187 0 0.363-1.09-0.089-2.1-0.718-2.16zm238.75 1.5c0.16-0.01 0.32-0.01 0.5 0 0.71 0.04 1.59 0.28 3.16 0.94 0.11 0.05 0.17 0.08 0.28 0.12 0.02 0.01 0.04-0.01 0.06 0 1.59 0.65 2.45 0.92 2.85 0.75 0.55 0.2 1.14 0.42 1.81 0.69 0.19 0.08 0.42 0.17 0.62 0.25 0.01 0.01 0 0.02 0 0.03 0.23 0.48 0.97 0.92 2.07 1.1 0.73 0.11 2.24 0.75 3.34 1.4 1.23 0.73 2.11 1.11 2.69 1.16 1.21 0.58 1.48 0.72 2.18 1.06-0.68 0.54-1.28 1.06-1.78 1.59-0.18 0.05-0.38 0.11-0.56 0.13l-9.66-4.06c-0.32-0.18-0.63-0.3-0.96-0.41l-2.91-1.22c-0.34-0.55-1.3-1-2.13-1-0.06 0-0.1 0.03-0.15 0.03l-3-1.4c-0.52-0.1-0.76-0.3-0.75-0.5 0.01-0.18 0.37-0.27 0.75-0.35 0.64-0.12 1.1-0.27 1.59-0.31zm36.35 0.63c0.01 0 0.01 0.02 0.03 0.03l0.18 0.09c0.65 0.39 1.16 0.62 1.54 0.66l3.46 1.5c0.12 0.11 0.24 0.2 0.38 0.31 1.16 0.94 1.39 1.37 0.81 1.75-1.69-0.94-3.86-1.57-6.59-1.78-0.6-0.36-1.07-0.97-1.25-1.66-0.03-0.12-0.08-0.23-0.13-0.34 0.54-0.16 1.06-0.36 1.57-0.56zm-185.85 0.65c0.21 0.05-0.46 1.28-2.28 3.94-6.63 9.69-14.41 17.73-23.53 24.31-9.175 6.63-12.637 8.31-22.751 11.13-11.314 3.14-20.467 1.9-30.125-4.07-3.412-2.1-11.681-13.14-11.562-15.43 0.032-0.63 0.594-0.29 1.25 0.75 7.328 11.62 11.049 14.94 20.125 17.97 6.102 2.03 11.084 2.07 18.5 0.15 16.12-4.18 31.163-14.68 42.903-30 4.29-5.59 7.12-8.83 7.47-8.75zm142.41 0.13c0.29 0.17 0.64 0.33 1.03 0.43 1.35 0.36 2.39 0.54 3.22 0.54l4.34 1.84c0.21 0.1 0.42 0.19 0.66 0.25l9.4 4c0.36 0.18 0.79 0.37 1.38 0.62 1.42 0.63 2.63 1.66 3.06 2.5-0.17 0.37-0.3 0.74-0.4 1.1-0.38 1.23-0.39 2.41-0.22 3.53-0.49 1.52 0.05 5.24 1.31 7.66 1.39 2.66 1.98 5.65 1.12 5.65-0.46 0-8-3.28-16.43-7.12-3.48-1.59-6.53-2.88-6.78-2.88-0.26 0-3.72-1.63-7.69-3.59-3.97-1.97-10.82-5-15.22-6.75-3.84-1.53-5.87-2.5-6.25-3.03l10.41-1.78c0.48 0.08 1.15-0.05 1.75-0.32l3.96-0.68c0.34 0.18 0.91 0.09 1.66-0.29l3.97-0.68h0.06c0.26-0.01 0.53-0.08 0.81-0.16l4.85-0.84zm38.69 0.43c0.35 0.26 0.59 0.64 0.59 1.1 0 0.47 0.19 0.91 0.44 1.25l0.15 5.06c0.01 0.16 0.08 0.28 0.16 0.41-0.3 0.58-0.87 0.87-1.75 0.87-1.11 0-2-0.66-2-1.5 0-0.58-0.22-0.98-0.56-1.22l-0.19-5.47c0-0.09-0.03-0.19-0.06-0.28 0.6 0.01 1.2-0.01 1.81-0.06 0.47-0.03 0.94-0.09 1.41-0.16zm-185.79 0.69c0.28 0-0.45 1.35-1.62 3-1.18 1.65-2.35 3-2.63 3-0.03 0-0.05-0.02-0.06-0.06-0.03-0.28 0.66-1.49 1.69-2.94 1.17-1.65 2.35-3 2.62-3zm56.13 0.03c1.15-0.04 18.23 6.7 19.16 7.57 0.94 0.87-1.68 0.18-5.91-1.57-2.48-1.02-6.75-2.78-9.5-3.9-2.41-0.99-4-1.82-3.91-2.03 0.02-0.03 0.07-0.06 0.16-0.07zm44.59 0c0.05-0.01 0.09 0 0.16 0 0.55 0 1.67 0.44 2.5 0.97 0.82 0.54 1.05 0.97 0.5 0.97s-1.68-0.43-2.5-0.97c-0.54-0.35-0.84-0.67-0.81-0.84 0.01-0.06 0.07-0.1 0.15-0.13zm138.72 1.69c0.36 0 0.73 0.01 1.1 0.03 0.25 0.02 0.52 0.04 0.78 0.06 0.32 0.11 0.7 0.19 1.12 0.19 0.05 0 0.08-0.03 0.13-0.03 2.18 0.39 4.28 1.23 5.93 2.31 1.78 1.17 3.02 2.63 3.5 4.19-0.06 0.72-0.11 1.59-0.12 2.63-0.01 0 0 0.02 0 0.03-0.84 1.3-1.77 2.36-2.78 3.25-0.72 0.33-1.51 0.87-2.13 1.53-1 0.58-2.03 1.03-3.09 1.34-0.01 0-0.02 0.01-0.03 0-0.13-0.07-0.33-0.12-0.6-0.12-0.68 0-1.83 0.25-3.34 0.72-0.51 0.01-1.03 0.02-1.53 0-1.11-0.06-2.17-0.22-3.19-0.44-0.16-0.24-0.42-0.41-0.72-0.41-0.5 0-1.63-0.29-2.5-0.62-0.02-0.01-0.04-0.03-0.06-0.03-0.93-0.41-1.71-0.85-2.31-1.29-0.19-0.91-0.41-1.78-0.72-2.75-0.07-0.21-0.15-0.38-0.22-0.56 0.16-1.93 0.61-3.51 1.28-4.81 0.18-0.17 0.35-0.35 0.53-0.56 0.66-0.79 0.93-1.18 0.75-1.32 0.42-0.46 0.89-0.85 1.38-1.21 0.46 0.19 1.19-0.2 3.4-1.35 0.41-0.21 0.66-0.34 0.94-0.5 0.82-0.16 1.64-0.27 2.5-0.28zm-184.06 0.38c0.82-0.02 3.07 0.85 5 1.9 1.92 1.06 2.91 1.92 2.19 1.94s-1.03 0.51-0.69 1.06c0.67 1.09 0.67 1.09-1.5 0.28-0.83-0.3-3.89-1.45-6.81-2.53-2.93-1.08-5.15-2.13-4.94-2.34s2.7 0.51 5.56 1.59c6.51 2.48 9.05 2.48 3.69 0-2.2-1.02-3.33-1.89-2.5-1.9zm168.5 0c0.02 0.31 0.04 0.49 0.06 0.75-0.41 0.92-1.27 2.06-2.5 3.12-1.49 1.29-3.5 2.48-5.75 3.22-0.1-0.01-0.22-0.01-0.34 0-0.32 0.03-0.7 0.11-1.16 0.25-0.56 0.17-1.19 0.34-1.78 0.47-1.48 0.16-3.02 0.1-4.56-0.25-0.61-0.52-1.68-0.9-2.91-1.03-1.16-0.57-2.29-1.35-3.4-2.35-0.05-0.1-0.1-0.2-0.16-0.31-0.13-0.25-0.25-0.49-0.34-0.75 1.93 0.97 4.45 1.56 7.25 1.72 0.91 0.05 1.85 0.05 2.81 0 0.16 0 0.27 0.03 0.47 0.03 0.74 0.01 1.49-0.11 2.09-0.28h0.03c3.7-0.57 7.39-2.01 10.19-4.59zm-35.22 0.34c0.91 0.15 1.88 0.2 2.72 0.16 1.99 0.25 3.57 0.73 4.78 1.4 0.25 0.41 0.71 0.91 1.38 1.56 0.57 0.57 1.12 1.05 1.62 1.41 0.09 0.17 0.17 0.33 0.25 0.5 0.64 1.4 0.86 3.01 0.78 4.66-0.1 0.53-0.19 1.05-0.19 1.56-0.14 0.99-0.36 1.99-0.65 2.91-0.04 0.1-0.07 0.21-0.06 0.31-0.11 0.12-0.21 0.26-0.32 0.37-0.08-0.05-0.18-0.09-0.31-0.09-0.52-0.01-1.33 0.43-2.03 1.12-0.53 0.53-0.8 0.94-0.88 1.22-0.36 0.18-0.75 0.35-1.15 0.5-0.11 0.05-0.23 0.09-0.35 0.13-0.01-0.05-0.09-0.07-0.28-0.03-0.2 0.04-0.52 0.15-0.93 0.28-1.01 0.32-2.25 0.59-2.75 0.59-0.26 0-0.5 0.1-0.66 0.28-1.54 0.23-3.15 0.34-4.72 0.32-3.38-0.06-6.64-0.71-9-1.79-1.54-0.7-2.62-1.54-3.22-2.5-0.14-1.32-0.57-2.25-1.19-3.28-0.33-1.13-0.18-2.21 0-3.34 0.07-0.6 0.51-0.79 0.88-1.19 1.32-1.19 1.92-2.1 1.87-2.62 0.39-0.34 0.83-0.68 1.32-1.03l1.37-0.91c0.4-0.25 0.83-0.52 1.28-0.78 0.36-0.08 0.75-0.17 1.16-0.31 0.62-0.22 1.12-0.44 1.53-0.69l0.09 2.09c-0.55 0.22-1.1 0.6-1.59 1.19-0.52 0.63-0.73 2.15-0.62 3.81 0.03 0.56 0.12 1.13 0.21 1.69 0.01 1.22 0.38 2.26 0.97 3.09 0.04 0.07 0.06 0.16 0.1 0.22 0.32 0.55 0.54 0.75 0.68 0.63 0.1 0.08 0.18 0.17 0.29 0.25 1.42 1.03 3.27 1.33 5.09 1.15s3.64-0.84 4.97-2.03c0.11-0.1 0.21-0.2 0.31-0.31 0.03 0.02 0.06 0.06 0.09 0.06 1.61 0 2.07-4.88 0.72-7.69-0.97-2.03-2.46-3.17-3.53-3.18l-0.03-1.69zm-77.16 0.12c1.2 0.15 10.81 4.25 11.79 5.07 0.22 0.19 0 0.35-0.5 0.34-1.3-0.01-11.41-4.78-11.41-5.37 0-0.03 0.04-0.05 0.12-0.04zm-151.12 0.44c0.052 0.05-0.253 0.46-0.875 1.25-1.306 1.67-2.125 2.2-2.125 1.38 0-0.21 0.788-1 1.75-1.75 0.793-0.62 1.198-0.93 1.25-0.88zm230.06 4c0.36 0 0.56 1.8 0.44 4-0.03 0.57-0.05 1.11-0.03 1.6-0.21 0.48-0.54 0.92-0.97 1.31-0.62 0.56-1.47 0.97-2.38 1.25-0.31-0.1-0.67-0.16-1.06-0.16-0.7 0-1.43 0.16-1.97 0.47-0.92-0.09-1.76-0.34-2.37-0.78-0.55-0.4-0.99-0.91-1.19-1.63-0.02-0.47-0.02-0.88-0.06-1.5-0.01-0.13 0.01-0.18 0-0.31 0.03-0.17 0.03-0.34-0.03-0.5-0.05-0.81-0.08-1.42-0.07-1.87 0.04-1.35 0.44-1.18 1.66-0.13 2.99 1.35 4.36 1.82 8.03-1.75zm-113.72 1.03c0.05-0.01 0.09 0 0.16 0 0.55 0 1.67 0.44 2.5 0.97 0.82 0.54 1.05 0.97 0.5 0.97s-1.68-0.43-2.5-0.97c-0.54-0.35-0.84-0.67-0.81-0.84 0.01-0.06 0.07-0.1 0.15-0.13zm124.94 0.66c0.08 0.06 0.17 0.13 0.25 0.19-0.06 0.03-0.13 0.08-0.19 0.12-0.02-0.1-0.04-0.21-0.06-0.31zm17.16 1.19c0.63 1.03 1.33 1.28 1.9 0.84l2.44 1.09c0.3 0.25 0.66 0.51 1.09 0.82 1.74 1.21 2 1.74 1.1 2.37-1.4-0.72-3.08-1.24-5.06-1.47-0.11-0.03-0.17-0.06-0.29-0.09-1.47-0.4-2.31-1.39-2.96-2.66 0.49-0.47 1.17-0.65 1.78-0.9zm-15.82 0.12c0.13 0 1.41 0.43 2.82 0.97 1.05 0.4 1.7 0.56 2.09 0.47 0.51 0.1 1.02 0.17 1.53 0.22-0.03 0.16-0.06 0.33-0.06 0.5 0 1.01-0.37 1.84-0.81 1.84-0.22 0-0.63 0.16-1.1 0.41-1.48 0.4-3.08 1.23-4.53 2.37 0.06-0.67 0.07-1.42 0.03-2.31-0.1-2.46-0.09-4.47 0.03-4.47zm-119.12 1.06c0.55 0 2.12 0.66 3.5 1.44 1.37 0.79 2.05 1.41 1.5 1.41s-2.13-0.62-3.5-1.41c-1.03-0.59-1.67-1.09-1.69-1.31-0.01-0.07 0.05-0.13 0.19-0.13zm131.16 0.19c0.23 0.23 0.36 0.71 0.59 1.6l0.72 5.46c-0.1 1.22-0.78 1.69-2.47 1.69-1.61 0-2.5-0.58-2.5-1.59 0-0.2-0.04-0.38-0.09-0.53v-3.38c0.05-0.17 0.09-0.35 0.09-0.53 0-0.95 0.69-1.98 1.53-2.34 0.73-0.09 1.43-0.2 2.13-0.38zm36.9 2.78c0.02 0.42 0.04 0.79 0.06 1.16-0.02 0.06-0.05 0.12-0.06 0.19-0.18 0.99-1.18 2.43-2.78 3.72-1.54 1.23-3.6 2.31-5.87 2.96-1.07-0.19-2.32 0-3.47 0.63-1.68 0.1-3.4-0.08-5.07-0.66-0.05-0.01-0.1-0.04-0.15-0.06-0.39-0.18-0.76-0.36-1.13-0.5-0.06-0.02-0.13-0.04-0.18-0.06-1.07-0.54-2.11-1.26-3.1-2.19-0.06-0.66-0.12-1.23-0.19-1.78 0.41 0.21 0.82 0.43 1.29 0.62 1.97 0.84 4.42 1.47 7.03 1.6 4.61 0.22 9.81-1.16 13.62-5.63zm-34.22 0.85c0.05 0.02 0.11 0.04 0.16 0.06 0.2 0.31 0.57 0.17 0.84 0.25 0.61 0.2 1.25 0.15 1.88 0.16 0.01 0 0.02-0.01 0.03 0 1.87 0.26 3.36 0.8 4.53 1.53 0.32 0.37 0.78 0.8 1.44 1.34 0.32 0.26 0.54 0.49 0.78 0.72 0.45 0.61 0.81 1.24 1.06 1.91 1.11 2.92 0.31 6.31-1.19 7.81-0.21 0.16-0.33 0.42-0.34 0.69-0.39 0.2-0.85 0.53-1.28 0.96-0.07 0.07-0.09 0.1-0.16 0.16-1.96 1.21-3.96 2.08-5.93 2.66-0.99 0.17-2.08 0.4-3.13 0.68-0.03 0.01-0.06 0.03-0.09 0.04-1.6 0.23-3.16 0.29-4.63 0.21-1.28-0.06-2.5-0.23-3.62-0.5-0.24-0.05-0.46-0.15-0.69-0.21-0.17-0.05-0.31-0.09-0.47-0.13-2.16-0.65-3.9-1.6-5-2.62 0.29-0.35 0.14-0.68-0.44-1.04-0.61-0.37-1.09-1.54-1.09-2.56 0-0.44-0.12-0.85-0.28-1.22-0.42-2.24 0.78-4.55 2.69-6.43 1.01-1.01 2.23-1.85 3.37-2.44 1.27-0.07 2.42-0.34 3.31-0.75v1.06c-1.13 0.31-1.69 1.53-1.9 4.13-0.07 1.05-0.12 2.09-0.28 3.12-0.01 0.78 0.18 1.47 0.5 2.09 0 0.01-0.01 0.03 0 0.04 0.06 0.13 0.14 0.25 0.21 0.37 0.33 0.57 0.86 0.96 1.35 1.38 1.95 1.16 3.75 1.72 5.94 1.18 1.48-0.17 2.91-0.64 4.03-1.53 0.11-0.09 0.21-0.18 0.31-0.28 0.03 0 0.06 0.01 0.09 0 0.65-0.21 1.08-1.11 1.28-2.31 0.01-0.06 0.03-0.12 0.04-0.19 0.09-0.43 0.15-0.87 0.12-1.34v-0.03c0.04-1.92-0.38-4.11-1.25-5.44-0.74-1.14-1.43-1.82-2-2.13l-0.19-1.4zm-233 0.5c0.42-0.08 0.82 0.08 1.03 0.43 0.29 0.47-0.1 0.85-0.9 0.85-0.85 0-1.32-0.07-1.41-0.25-0.08-0.18 0.22-0.47 0.88-0.88 0.12-0.08 0.26-0.13 0.4-0.15zm109.25 0.12c0.09 0.01 0.24 0.05 0.41 0.1 3.81 0.95 15.36 5.54 16.44 6.53 1.47 1.36-1.55 0.94-4.94-0.69-1.65-0.79-5.48-2.59-8.5-3.97-2.32-1.06-3.68-1.8-3.56-1.94 0.01-0.02 0.08-0.03 0.15-0.03zm-111.59 1.5c0.05 0.05-0.25 0.46-0.88 1.25-1.3 1.67-2.12 2.2-2.12 1.38 0-0.21 0.79-1 1.75-1.75 0.79-0.62 1.2-0.93 1.25-0.88zm1.81 1c0.28 0-0.32 0.9-1.31 2-1 1.1-2.04 2-2.31 2-0.04 0-0.06 0-0.07-0.03-0.05-0.19 0.51-1.01 1.38-1.97 0.99-1.1 2.04-2 2.31-2zm104.53 0.03c0.05-0.01 0.09 0 0.16 0 0.55 0 1.67 0.44 2.5 0.97 0.82 0.54 1.05 0.97 0.5 0.97-0.35 0-0.94-0.2-1.53-0.47l-0.06-0.53-0.85 0.06-0.06-0.03c-0.54-0.35-0.84-0.67-0.81-0.84 0.01-0.06 0.07-0.1 0.15-0.13zm52 0c0.05-0.01 0.09 0 0.16 0 0.55 0 1.67 0.44 2.5 0.97 0.82 0.54 1.05 0.97 0.5 0.97s-1.68-0.43-2.5-0.97c-0.54-0.35-0.84-0.67-0.81-0.84 0.01-0.06 0.07-0.1 0.15-0.13zm6 0c0.05-0.01 0.09 0 0.16 0 0.55 0 1.67 0.44 2.5 0.97 0.82 0.54 1.05 0.97 0.5 0.97s-1.68-0.43-2.5-0.97c-0.54-0.35-0.84-0.67-0.81-0.84 0.01-0.06 0.07-0.1 0.15-0.13zm-52.22 0.03c0.35-0.04 3.05 1.04 6 2.38 2.96 1.34 4.93 2.44 4.38 2.47-1.06 0.05-10.11-4.13-10.44-4.75-0.02-0.04 0-0.09 0.06-0.1zm106.22 0.29c-0.95 2.13-3.71 4.76-6.5 5.68-0.33 0.11-0.63 0.23-0.93 0.35-2.74 0.85-5.45 1.53-8.1 1.68-1.37 0.09-2.73 0.04-4.09-0.18-0.54-0.2-1.11-0.39-1.75-0.57-0.61-0.16-1.09-0.28-1.53-0.37-1.29-0.51-2.58-1.17-3.88-2.09l-0.69-0.47c-0.12-0.16-0.24-0.3-0.37-0.41-0.59-0.49-0.9-0.93-0.94-1.37-0.02-0.27 0.05-0.54 0.22-0.82 0.81 0.75 1.82 1.37 2.94 1.88 1.06 0.48 2.24 0.88 3.5 1.19 0.03 0.01 0.06 0.02 0.09 0.03 1.76 0.51 3.3 0.98 3.44 1.03 0.1 0.04 0.18-0.19 0.22-0.47 0.75 0.07 1.51 0.14 2.28 0.16 0.54 0.52 1.84 0.48 2.69-0.07 2.81-0.16 5.59-0.67 8.03-1.62 2.13-0.83 4.02-2 5.37-3.56zm18.19 0.18c0.34-0.01 0.28 1.22 0.06 4.32-0.09 1.26-0.12 2.26-0.09 3.03-0.19 0.24-0.42 0.47-0.69 0.68-1.09 0.94-1.94 1.1-3.25 0.96-1.16 0-2.09-0.25-2.65 0.14-0.75-0.17-1.43-0.43-1.94-0.78-0.4-0.28-0.72-0.58-0.94-0.94-0.14-0.44-0.24-0.96-0.34-1.5-0.03-0.9-0.25-1.84-0.32-2.78-0.05-1.47 0.09-2.66 0.5-2.66 0.5 0 1.19 0.68 1.5 1.5 0.87 2.26 5.3 1.8 7.07-0.72 0.54-0.77 0.89-1.24 1.09-1.25zm-240.72 1.47c0.28 0-0.32 0.9-1.31 2-1 1.1-2.04 2-2.31 2-0.04 0-0.06 0-0.07-0.03-0.05-0.19 0.51-1.01 1.38-1.97 0.99-1.1 2.04-2 2.31-2zm167.69 0.06c0.55 0 2.12 0.66 3.5 1.44 1.37 0.79 2.05 1.41 1.5 1.41s-2.13-0.62-3.5-1.41c-1.03-0.59-1.67-1.09-1.69-1.31-0.01-0.07 0.05-0.13 0.19-0.13zm5.59 0.19c0.04-0.06 0.58 0.2 1.66 0.72 1.24 0.6 2.25 1.31 2.25 1.56 0 0.77-0.52 0.54-2.56-1.09-0.94-0.75-1.39-1.13-1.35-1.19zm-55.4 0.75c0.65-0.01 1.47 0.45 1.81 1 0.77 1.24 0.42 1.24-1.5 0-0.45-0.29-0.73-0.54-0.78-0.72-0.06-0.17 0.11-0.27 0.47-0.28zm-5.57 0.03c0.39 0.06 0.87 0.33 1.44 0.88 0.52 0.5 4.54 2.42 8.94 4.25 5.68 2.37 8 3.85 8 5.09 0 0.64 0.21 1.14 0.5 1.38 0.43 1.42 0.91 2.8 1.44 4.15 0.04 0.18 0.08 0.37 0.15 0.57 0.09 0.22 0.2 0.42 0.32 0.62 3.52 8.55 8.81 15.67 15.28 21.78-0.04 0.35 0.04 0.81 0.28 1.19 0.55 0.89 1.49 1.21 2.06 0.94 0.72 0.62 1.41 1.24 2.16 1.84 0.59 0.7 1.49 1.61 2.56 2.5 2.48 2.07 3.83 2.9 4.41 2.63 0.45 0.3 0.91 0.6 1.37 0.9-0.01 0.06-0.03 0.1-0.03 0.16 0 0.5 0.56 1.16 1.25 1.44 0.54 0.22 1.35 0.4 2.06 0.5 1.44 0.87 2.92 1.73 4.41 2.56l0.87 0.5c0.48 0.26 0.63 0.28 0.66 0.25 1.09 2.37 2.32 4.06 3.72 5.47-0.28 0.18-0.48 0.37-0.63 0.56-0.23-0.06-0.46-0.11-0.68-0.19-0.62-0.29-1.33-0.31-1.97-0.5-0.02 0-0.02-0.03-0.03-0.03-0.13-0.13-0.36-0.27-0.66-0.47-0.82-0.52-1.45-0.82-1.94-0.9-2.49-1.79-5.58-1.77-8.09-3.22-0.17-0.46-0.82-1-1.56-1.28-2.61-1.31-6.26-1.68-8.88-3.54-0.36-0.58-1.41-1.04-2.34-1.03-0.72-0.38-1.47-0.75-2.22-1.06-0.87-1.32-2.55-1.24-3.91-1.78l-2.53-0.66c-1-0.86-3.48-2.08-5.47-2.78-0.04-0.15-0.12-0.31-0.28-0.4-0.86-0.75-2.02-0.8-3.06-1.13-4.45-5.8-8.13-12.09-11.38-18.62-0.39-1.2-0.85-2.5-1.43-4.04-0.71-1.85-1.36-3.32-1.94-4.56-1.38-4.33-2.35-8.96-2.85-13.97zm157.6 1.28c0.18 0.06 0.28 0.22 0.28 0.47 0 0.5 1.01 1.41 2.25 2 2.19 0.96 3.6 0.87 5.53 2.07 0.61 0.52 1.38 0.76 2.13 1.03 19.39 8.41 38.75 16.91 58.18 25.28 0.1 0.04 0.19 0.11 0.28 0.15 21.27 9.22 42.5 18.58 63.82 27.72 0.16 0.09 0.34 0.21 0.5 0.28 3.87 1.68 7.75 3.38 11.62 5.07 0.05 0.03 0.08 0.05 0.13 0.09 1.58 1.25 2.8 1.72 3.25 1.38 0.52 0.22 1.04 0.46 1.56 0.68 0.05 0.15 0.13 0.27 0.22 0.41 0.55 0.89 2.01 1.2 2.87 0.91 0.67 0.29 1.34 0.58 2 0.87 0.32 0.37 0.82 0.72 1.41 0.91 1.25 0.4 2.63 0.9 4.25 1.56 1.51 0.66 3.02 1.31 4.53 1.97 0.17 0.07 0.3 0.14 0.47 0.22 1.56 0.7 2.51 1.13 3.09 1.34 0.68 0.3 1.36 0.58 2.03 0.88 0.11 0.21 0.28 0.46 0.54 0.71 0.58 0.59 1.66 0.75 2.43 0.57 0.74 0.32 1.48 0.64 2.22 0.97 0.08 0.3 0.18 0.63 0.31 0.93-1.8 1.62-3.34 3.55-4.28 5.78-0.61 1.46-0.96 3.07-0.93 4.75-0.25 0.27-0.41 0.68-0.41 1.16 0.18 2.26-1.21 1.72-2.69 0.94l-24.62-10.63c-0.38-0.2-0.78-0.37-1.16-0.47l-3.09-1.34c-0.24-0.94 0.34-1.09 2.31-0.75 0.2 0.04 0.41 0.08 0.62 0.13l22.97 9.71c0.45 0.15 0.92 0.18 1.38 0.25 0.65-0.04 1.33-0.28 1.9-0.71 0.58-0.44 1.06-1.07 1.25-1.88 0.14-0.57 0.11-1.23-0.09-1.91-0.22-1.78-1.35-2.54-2.72-3.43v-0.03l-0.9-0.41c-8.52-3.77-13.85-6.15-17.94-7.5-2.05-0.68-3.83-1.09-5.5-1.28-1.67-0.2-3.24-0.18-4.94 0.03-2.71 0.34-6.1 1.19-10.41 2.22-0.84-0.08-1.59-0.21-2.12-0.38 0.23-1.32-8.37-3.55-9.38-4.59-21.44-10.34-43.56-19.1-65.34-28.69-2.45-1.33-3.37-1.62-3.44-1.37-9.82-4.19-19.67-8.33-29.43-12.63-1.37-0.74-2.27-1.16-2.82-1.34-0.13-0.08-0.19-0.13-0.34-0.22-1.53-0.87-2.38-1.7-2.75-2.78 0.01-0.3 0.01-0.61 0.03-0.91l0.06-1-0.28-0.03c0.01-0.3 0-0.59 0.03-0.87l0.38-0.35-0.25-0.28c0.12-0.73 0.28-1.31 0.47-1.5 0.6-0.6 0.2-2.65-0.47-3.75-0.27-0.99-0.66-2.01-1.22-2.97 0.13-0.27-0.3-0.83-1.19-1.69-0.03-0.04-0.06-0.08-0.09-0.12-2.02-2.38-5.2-4.16-9.5-4.22-0.7-0.33-1.23-0.93-1.44-1.72-0.07-0.25-0.18-0.48-0.31-0.69 0.52-0.19 1.01-0.42 1.5-0.65 0.41-0.14 0.83-0.22 1.25-0.35zm-15.31 1.07c0.1 0 0.2 0.02 0.31 0.06 0.45 0.17 1.06 0.33 1.65 0.44 0.7 0.2 1.42 0.37 2.13 0.47 0.31 0.27 0.5 0.69 0.5 1.15 0 0.83-0.65 1.5-1.44 1.5-0.6 0-1.19 0.27-1.65 0.66-1.01 0.41-1.93 0.95-2.79 1.56-0.01-0.04-0.03-0.09-0.06-0.12-1.18-1.91-0.16-5.77 1.35-5.72zm9.4 0.81c2.75 1.18 3.08 8.02-0.06 8.62-1.2 0.24-1.75-0.31-1.75-1.75 0-0.92-0.31-1.55-0.81-1.84l-0.16-3.75v-0.03c0.06-0.4 0.22-0.73 0.47-0.97 0.79-0.04 1.55-0.14 2.31-0.28zm-44.65 1.06c0.7 0.03 0.84 0.93 0.84 3.44 0 2.15 0.66 4.81 1.47 5.87 0.81 1.07 1.48 2.73 1.5 3.69 0.01 0.52 0.19 0.95 0.44 1.25l0.09 0.94c-2.75-1.28-8.15-3.67-12-5.28-15.43-6.46-15.49-6.47-15.5-9.28 0-0.13-0.02-0.27-0.03-0.41 3.64 2.15 7.35 2.81 10.97 2.59 0.28-0.01 0.56-0.06 0.84-0.09 0.08 0.01 0.14 0.03 0.22 0.03 0.4 0 0.75-0.08 1.06-0.19 1.62-0.23 3.22-0.6 4.81-1.06h0.04c1.15-0.14 2.73-0.57 4.34-1.25 0.37-0.15 0.67-0.26 0.91-0.25zm49.5 2.31c0.33-0.06 0.77-0.02 1.34 0.13 0.46 0.12 0.88 0.15 1.22 0.09 1.48 0.32 2.74 0.89 3.78 1.63 0.16 0.19 0.3 0.37 0.5 0.59 0.4 0.45 0.91 0.83 1.41 1.16 1.06 1.27 1.76 2.75 2.12 4.15v0.04c-0.22 0.97-0.31 2.42-0.22 4.18-2.86 2.75-5.49 4.48-7.97 5.5-0.83 0.06-1.68 0.34-2.12 0.72-1.61 0.43-3.16 0.6-4.69 0.56-3.16-0.06-6.24-0.96-9.37-2-0.04-0.32-0.24-0.62-0.57-0.75-1.28-0.47-2.22-1.1-2.9-1.78-0.32-1.18-0.87-2.51-1.5-3.65 0.01-0.69 0.13-1.41 0.37-2.13 0.19-0.56 0.46-1.13 0.78-1.69 0.19-0.16 0.39-0.35 0.6-0.59 0.05-0.05 0.11-0.1 0.15-0.16 0.02-0.01 0.02-0.04 0.03-0.06 0.22-0.25 0.45-0.52 0.66-0.84 0.13-0.19 0.24-0.39 0.34-0.6 0.88-0.88 1.89-1.67 3.04-2.28 0.84 0.18 2.45-0.64 3.68-1.65l0.03 1.18c-0.39 0.2-0.78 0.48-1.18 0.88-1.27 1.27-1.62 6.56-0.6 9.22 0.57 1.47 1.09 1.88 1.47 1.5 0.05 0.04 0.1 0.09 0.16 0.12 0.95 0.66 2.13 1.03 3.34 1.19 0.35 0.15 0.87 0.19 1.56 0.09 0.06 0 0.11 0.01 0.16 0 1.81-0.06 3.59-0.58 4.94-1.65 0.31-0.25 0.59-0.56 0.84-0.88 2.42-1.37 2.24-9.35-0.65-10.47-1.63-0.62-1.75-1.57-0.75-1.75zm-119.54 1.79c0.03-0.01 0.05 0 0.1 0 0.22 0 0.71 0.1 1.53 0.31 1.25 0.31 2.51 0.98 2.81 1.47 0.85 1.37-0.97 1.01-3.12-0.6-0.9-0.67-1.35-1.03-1.35-1.15 0-0.02 0.01-0.03 0.03-0.03zm45.22 0.68c0.05-0.01 0.09 0 0.16 0 0.55 0 1.67 0.44 2.5 0.97 0.82 0.54 1.05 0.97 0.5 0.97s-1.68-0.43-2.5-0.97c-0.54-0.35-0.84-0.67-0.81-0.84 0.01-0.06 0.07-0.1 0.15-0.13zm-212.97 0.32c0.359-0.06 0.625 0.15 0.625 0.59 0 0.58-0.45 1.06-1 1.06-0.641 0-0.969-0.16-0.969-0.44 0-0.27 0.328-0.66 0.969-1.06 0.137-0.08 0.255-0.13 0.375-0.15zm164.22 0.09c0.08-0.02 0.17-0.02 0.28 0 0.16 0.02 0.34 0.07 0.57 0.16 0.85 0.32 1.56 0.78 1.56 1 0 0.81-1.91 0.35-2.5-0.6-0.05-0.08-0.11-0.15-0.13-0.22-0.05-0.19 0.05-0.3 0.22-0.34zm104.53 0.12c-0.14 0.94-0.28 1.64-0.43 2.16-0.01 0.01-0.03 0.02-0.03 0.03-0.05 0.07-0.09 0.15-0.13 0.22-3.47 2.96-7.34 4.71-11.56 5.16-0.28-0.07-0.58-0.13-0.91-0.13-0.49 0-0.99 0.07-1.44 0.22-3.25-0.01-6.68-0.72-10.28-2.19-0.01 0-0.02-0.02-0.03-0.03-1.61-1.05-2.79-2.42-2.97-3.53-0.02-0.16-0.01-0.32 0-0.47 1.99 1.9 5.26 3.25 9.16 3.72 0.5 0.1 0.84 0.13 1.06 0.09 0.02 0.01 0.04 0 0.06 0 0.2 0.02 0.4 0.06 0.6 0.07 0.39 0.02 0.81 0 1.22 0 0.32 0.09 0.92 0.09 1.78-0.03 0.04-0.01 0.08-0.03 0.12-0.04 3.89-0.29 8.1-1.49 12.1-4.06l0.06-0.03c0.25-0.12 0.46-0.3 0.66-0.47 0.32-0.22 0.64-0.45 0.96-0.69zm-117.34 0.13c1.6-0.03 6.91 2.16 20.5 8.19 7.58 3.36 14.04 6.12 14.38 6.12 0.69 0 21.61 8.74 30.15 12.5l2.85 27.06c-0.27 0.27-0.67 0.44-1.13 0.44h-0.03l-3.75-1.28c-0.05-0.28-0.16-0.57-0.34-0.84 0.11-0.4 0.19-0.8 0.25-1.22 0.22-1.67 0.01-3.55-0.97-5.06-0.02-0.03-0.05-0.04-0.07-0.07-0.15-1.78-0.54-3.59-1.87-4.78 0.06-0.7-0.29-1.7-0.41-2.15-0.13-0.33-0.26-0.56-0.4-0.79-0.05-0.4-0.43-0.92-1.13-1.62-0.12-0.12-0.25-0.21-0.37-0.31-0.55-1.58-1.2-2.59-1.97-3.35-1-0.99-2.07-1.51-3.25-2.5-0.16-0.13-0.36-0.2-0.56-0.18-0.08 0-0.15 0.03-0.22 0.06-0.01-0.01-0.03 0-0.03 0-5.09-3.21-9.98-4.31-12.91-1.6-1.44 1.34-2.4 3.59-2.69 6.97-0.07 1.45 0.04 2.91 0.28 4.28-0.27 0.38-0.46 0.89-0.53 1.44-17.1-9.74-30.67-22.13-36.06-41.28 0.07-0.02 0.17-0.03 0.28-0.03zm126.13 1.19l2.59 1.72c2.69 1.57 3.67 0.6 5.62-0.47 1.86-1.16 2.09-1.12 1.6 0.15-0.31 0.8-0.07 1.9 0.5 2.5-0.03 0.13-0.03 0.25 0 0.38 0.29 1.44-0.19 2.35-1.13 3.09-0.53 0.42-1.22 0.72-2 0.94-0.39-0.12-0.9-0.19-1.59-0.19-0.74 0-1.37 0.16-1.81 0.41-0.95-0.14-1.81-0.44-2.44-0.88-0.27-0.18-0.5-0.37-0.69-0.59 0.03-0.69 0.02-1.53-0.09-2.5l-0.56-4.56zm-103.79 0.22c0.78-0.07 4.55 1.31 9.22 3.43 2.84 1.29 4.71 2.37 4.16 2.38-1.24 0.02-12.6-4.67-13.41-5.53-0.08-0.09-0.13-0.14-0.12-0.19 0-0.05 0.06-0.09 0.15-0.09zm-4.59 0.46c0.06-0.02 0.21 0 0.47 0.07 1.37 0.34 4.52 1.66 7 2.93 6.47 3.35 3.62 2.81-3.5-0.65-2.35-1.14-3.84-1.98-4-2.25-0.02-0.04 0-0.08 0.03-0.1zm50.81 0.47c0.05-0.01 0.09 0 0.16 0 0.55 0 1.67 0.44 2.5 0.97 0.82 0.54 1.05 0.97 0.5 0.97s-1.68-0.43-2.5-0.97c-0.54-0.35-0.84-0.67-0.81-0.84 0.01-0.06 0.07-0.1 0.15-0.13zm-4.87 0.28c0.6-0.04 2.34 0.59 4.19 1.57 4.43 2.34 3.43 2.63-1.54 0.47-1.62-0.71-2.79-1.48-2.87-1.85-0.01-0.05-0.01-0.09 0.03-0.12 0.04-0.04 0.1-0.06 0.19-0.07zm-221.38 1.82c0.347-0.02 0.733 0.04 1.094 0.18 0.797 0.32 0.571 0.55-0.594 0.6-0.791 0.03-1.331-0.11-1.406-0.31-0.026-0.07 0.01-0.14 0.093-0.22 0.166-0.17 0.465-0.24 0.813-0.25zm272.16 2.28c0.27-0.04 0.5 0.12 0.66 0.44-0.04 0.82 0.06 1.64 0.31 2.43 0.25 2.52 0.83 4.85 2.09 8.22 0.12 0.31 0.18 0.52 0.28 0.81l-0.09 0.19 0.19 0.13c0.57 1.63 1.01 2.98 0.9 3.09-0.4 0.41-9.02-3.04-10.59-4.25-0.83-0.63-3.98-2.18-7-3.44-2.48-1.03-5.92-2.51-8.66-3.75l-0.18-2.62c0.33-0.24 1.15-0.13 2.4 0.34 2.31 0.88 4.08 1.13 4.91 0.78 1.34 0.17 2.67 0.27 3.97 0.22 1.73-0.06 3.39-0.32 5.03-0.75 1.63-0.21 4.21-0.95 5.5-1.75 0.09-0.06 0.19-0.08 0.28-0.09zm-74.25 1.65c0.82 0 2.37 0.67 3.44 1.47 2.47 1.87 0.85 1.85-2.44-0.03-0.91-0.52-1.43-0.93-1.47-1.19-0.02-0.15 0.14-0.24 0.47-0.25zm105.78 3.22v0.28c-0.17 0.81-0.47 1.56-0.84 2-0.26 0.31-0.45 0.6-0.6 0.85-3.69 3.36-7.4 5.2-11.12 5.81-0.34-0.13-0.75-0.22-1.22-0.22-0.71 0-1.33 0.19-1.69 0.47-3.42-0.02-6.91-1.03-10.5-2.97-0.19-1.01-0.5-1.83-0.87-2.06-0.37-0.22-0.58-0.67-0.63-1.16 0.7 0.24 1.39 0.48 2.1 0.72 0.16 0.14 0.37 0.28 0.68 0.38 0.77 0.24 2.08 0.69 2.91 0.97 1.27 0.42 2.3 0.6 3 0.53 1.3 0.25 2.63 0.41 4 0.43 3.68 0.08 7.59-0.88 11.75-3.68 0.18-0.13 0.38-0.25 0.56-0.38l0.06-0.06c0.8-0.57 1.6-1.2 2.41-1.91zm-92.53 2.75c1.04-0.06 18.75 7.08 18.75 7.57 0 1.03-4.93-0.64-13-4.44-3.35-1.58-5.85-2.91-5.81-3.1 0-0.01 0.03-0.03 0.06-0.03zm92.41 1.85c-0.01 0.35-0.01 0.71 0 1.06-0.38 0.67-0.66 1.91-0.66 3.19 0 1.49 0.37 2.6 0.84 2.68 0.06 1.1 0.11 2.19 0.19 3.29-0.01 0.13-0.03 0.26-0.03 0.4 0 0.49 0.09 0.93 0.19 1.31 0.06 0.87 0.11 1.73 0.18 2.6-0.14 0.36-0.1 0.99 0.16 1.75 0.08 0.91 0.19 1.81 0.28 2.72-6.19-2.73-13.33-5.93-17.56-7.94-8.27-3.92-9.14-4.52-9.22-7.09 4.27 2.09 8.54 3.03 12.78 2.5 4.4-0.56 8.7-2.71 12.85-6.47zm2.03 0c0.48 0.17 0.89 0.36 1.06 0.53 0.32 0.31 1.51 0.55 2.66 0.53 1.01 0.41 2.02 1.26 3 1.87 0.53 0.85 1.37 0.98 2.28 1.16 1.11 0.48 2.23 0.96 3.34 1.44 0.39 0.26 0.76 0.42 1.09 0.47 22.09 9.59 44.15 19.31 66.32 28.75 0.1-0.03 0.16-0.07 0.25-0.1 8.57 3.73 17.15 7.48 25.75 11.16 0.19 0.21 0.5 0.46 0.97 0.81 1.04 0.79 2.31 1.17 2.84 0.85 0.01-0.01 0.02-0.03 0.03-0.04 0.66 0.29 1.31 0.6 1.97 0.88 0.15 0.27 0.42 0.61 0.75 1-3.23 0.74-7.12 1.57-11.88 2.44-0.33-0.22-0.79-0.31-1.28-0.25-0.23 0.03-0.46 0.09-0.68 0.18-1.43 0.61-3.44 1.02-6.41 1.35-0.13 0.01-0.27 0.09-0.38 0.19-2.29 0.35-4.71 0.7-7.34 1.06l-1 0.12v0.1c-5.42-0.45-15.54-4.54-36.53-14.41-3.31-1.55-9.53-4.2-13.81-5.91-4.29-1.7-10.1-4.24-12.88-5.65s-10.51-4.95-17.19-7.85c-0.5-0.22-1.18-0.51-1.71-0.75-0.07-0.66-0.13-1.33-0.19-2 0.31-0.3 0.24-0.95-0.19-1.84-0.5-5.38-0.87-10.75-0.84-16.09zm-50.19 1.18c0.55 0 1.87 0.67 2.94 1.47 1.06 0.81 1.48 1.47 0.93 1.47s-1.87-0.66-2.93-1.47c-0.67-0.5-1.11-0.95-1.19-1.22-0.05-0.15 0.04-0.25 0.25-0.25zm5.66 0.22c0.07-0.04 0.66 0.22 1.84 0.78 1.37 0.66 2.68 1.37 2.91 1.57 1.37 1.2-1.88 0.09-3.47-1.19-0.92-0.73-1.36-1.11-1.28-1.16zm-53.72 0.07c0.61-0.07 2.37 0.55 4.22 1.53 4.46 2.35 3.42 2.72-1.57 0.56-1.63-0.71-2.84-1.48-2.9-1.88-0.01-0.05 0.02-0.11 0.06-0.15s0.1-0.06 0.19-0.06zm5.68 0c0.03-0.01 0.05 0 0.1 0 0.22 0 0.71 0.1 1.53 0.31 1.25 0.31 2.51 0.98 2.81 1.47 0.85 1.37-0.97 1.01-3.12-0.6-0.9-0.67-1.35-1.03-1.35-1.15 0-0.02 0.01-0.03 0.03-0.03zm-80.06 6.96c0.11 0.36 3.25 1.15 3.69 0.5 0.73 0.18 1.55 0.43 2.41 0.72 0.11 0.29 2.55 1.57 3.53 1.41 0.25 0.04 0.64 0.38 0.75 0.44 0.17 0.56 0.83 0.71 1.31 0.93 0.17 0.06 0.33 0.13 0.5 0.19 0.06 0.15 2.13 1.62 3 1.38l2.69 1.47c0.17 0.12 0.35 0.25 0.56 0.34l0.09 0.06c0.24 0.13 0.49 0.24 0.75 0.31 0.17 0.08 0.36 0.09 0.57 0.1 0.03 0.04 0.06 0.08 0.09 0.12l0.97 0.53c0.55 0.44 1.34 0.47 1.94 0.82 0.27 0.04 0.58 0.03 0.9 0 1.08 0.37 2.9 1.18 4.19 1.9 1.01 0.57 1.65 0.95 2.09 1.16-0.07 0.16 0.3 0.23 0.41 0.31 0.52 0.33 1.1 0.32 1.69 0.41 0.08 0.02 0.16 0.04 0.25 0.06 0.74 1.18 2.14 1.26 3.43 1.41 4.58 2.81 9.18 4.22 13.94 6.43 3.49 2.15 7.03 3.45 10.78 4.63 0.11 0.06 0.21 0.1 0.32 0.16 0.43 0.31 0.9 0.6 1.43 0.75 0.46 0.21 1.23-0.08 1.41 0.53 0.53 0.68 1.49 0.63 2.19 1.03 0.3 0.04 0.64 0.04 1 0 0.18 0.06 0.35 0.13 0.56 0.19 1.37 0.34 2.5 1.21 2.5 1.93 0 0.73 0.78 2.1 1.72 3.03 0.86 0.86 1.37 1.16 1.72 0.97 0.54 0.33 1.11 0.59 1.68 0.78 0.54 0.19 1.07 0.32 1.6 0.41 1.22 0.82 2.82 1.12 4.28 0.75 1.12-0.28 1.92-0.56 2.44-0.84 0.66 0.27 1.33 0.56 1.97 0.87 0.17 0.18 0.36 0.37 0.62 0.53 0.87 0.56 1.6 0.85 2.06 0.91h0.03c0.16 0.09 0.31 0.19 0.47 0.28 0.44 0.32 0.91 0.61 1.44 0.75 0.32 0.15 0.81 0.04 1.13 0.19 0.01 0.01 0.04 0.02 0.06 0.03 0.1 0.06 0.17 0.16 0.22 0.31 0.45 0.59 1.22 0.62 1.87 0.88 0.25 0.28 0.44 0.63 0.56 0.97l0.07 0.65c0.39 4.61 1.36 9.21 1.75 13.85 0.01 0.5 0.06 0.89 0.09 1.25-0.14 0.08-0.29 0.24-0.41 0.53-0.26 0.63-1.36 0.93-2.43 0.65-1.06-0.27-1.66-0.18-1.85 0.1-0.36-0.19-0.73-0.38-1.12-0.57-0.84-0.27-4.79-1.48-10.63-4.53-3.05-1.08-5.77-2.76-8.72-4.06-0.06-0.03-0.13 0.04-0.18 0.06-0.49-0.19-1.04-0.55-1.44-0.78-0.48-0.09-1.64-1.18-3-1.37-2.61-1.24-5.16-2.44-7.84-3.47-0.32-0.16-0.61-0.31-1-0.53-0.97-0.54-1.97-0.81-2.57-0.75-0.37-0.18-0.73-0.37-0.97-0.57-0.26-0.21-0.71-0.5-1.25-0.81-0.04-0.05-0.07-0.1-0.12-0.15-0.45-0.45-0.97-0.65-1.47-0.69-1.17-0.58-2.28-1.06-2.62-1.06-0.14 0-0.66-0.17-1.32-0.44-0.09-0.06-0.21-0.13-0.28-0.19-2.37-0.78-4.51-2.45-6.84-3.28-0.09 0-0.15 0.01-0.22 0.03-0.69-0.31-1.32-0.59-1.91-0.84-3.52-0.49-6.22-3.28-9.34-4.53-2.06-0.73-4.2-1.34-4.75-1.35-0.03 0-0.07-0.03-0.09-0.03-3.4-1.76-6.6-3.57-10.38-4.81-2.18-1.29-4.48-2.15-6.94-2.63-0.8-0.05-0.86 0.4-1.25 0.88-0.2 0.25-0.26 0.56-0.28 0.87-0.13 1.7 0.43 3.04 1.78 4.07 0.05 0.05 0.11 0.1 0.16 0.15 0.02 0.02 0.04 0.05 0.06 0.06 0.07 0.07 0.15 0.13 0.22 0.19l0.13 0.13c0.72 0.74 1.91 1.51 3.46 2.18 1.13 0.42 2.21 0.97 3.25 1.5 0.8 0.48 1.7 0.76 2.54 1.04 1.12 0.44 2.01 0.82 2.96 1.43 0.56 0.36 1.21 0.61 1.85 0.75 0.3 0.37 0.81 0.71 1.28 1 0.73 0.07 0.99 0.4 1.53 0.85 0.56 0.36 1.17 0.64 1.81 0.78 0.37 0.08 2.3 1.1 3.03 1.78 0.87 0.81 1.74 1.39 2.38 1.66l-0.09 0.12c0.73 0.4 1.49 0.74 2.25 1.09 0.35 0.16 0.74 0.3 1.09 0.47 0.56 0.39 1.23 0.79 2 1.16 3.93-0.17 7.72 4.29 11.47 4.34 0.7-0.27 3.58 0.96 4.09 0.97 0.93 0.4 2.27 0.99 3.78 1.72 2.5 1.2 6.33 2.8 8.47 3.53 2.15 0.74 4.98 1.97 6.31 2.75 1.34 0.79 2.68 1.44 3 1.44 0.33 0 1.73 0.54 3.1 1.19 1.36 0.65 3.46 1.56 4.69 2.03 1.22 0.47 3.01 1.26 3.96 1.75 0.96 0.48 3.52 1.56 5.69 2.4 2.18 0.84 4.62 1.96 5.44 2.5 0.28 0.19 0.43 0.31 0.62 0.44-0.7 3.84 0.74 8.11 1.07 12 0.03 0.42 0.06 0.85 0.09 1.28-0.01 0.13-0.03 0.26-0.03 0.41 0 0.4 0.06 0.77 0.16 1.09 0.08 0.99 0.14 1.69 0.21 2.41-0.1 0.12-0.2 0.26-0.31 0.44-0.21 0.35-0.4 0.58-0.59 0.68-0.31-0.22-0.68-0.5-1.19-0.81-0.25-0.23-0.6-0.39-0.97-0.53-0.93-0.51-1.99-1.07-3.22-1.66-5.48-0.91-10.24-5.86-15.68-6.31-0.49-0.28-1.02-0.56-1.63-0.87-3.92-1.7-8.58-5.56-12.87-5.91-0.38-0.21-0.75-0.44-1.13-0.62-1.78-0.84-2.68-1.15-3.09-1-0.09-0.06-0.3-0.23-0.35-0.29-0.46-0.51-1.84-1.37-3.09-1.96-2.02-0.96-2.92-1.28-3.25-0.97-0.47-0.29-0.97-0.58-1.47-0.82-2.75-1.09-5.16-2.92-8.06-3.56-0.57-0.36-1.24-0.73-1.88-1.03-3.98-1.34-7.71-2.69-11.37-4.62-1.87-0.89-2.77-1.2-3.16-1-0.46-0.28-0.95-0.56-1.44-0.79-0.44-0.21-0.75-0.35-1.09-0.5-0.01 0-1.54-0.91-2.31-1-1.81-1.21-3.77-2.15-5.94-2.25-0.64-0.49-1.67-1.11-2.62-1.56-1.53-0.93-3.09-1.8-4.75-2.5-0.62-0.42-1.4-0.89-2.16-1.25-1.43-0.71-2.65-1.66-4.09-2.4-0.28-0.44-0.74-0.75-1.35-0.88-0.32-0.07-0.39-0.06-0.59-0.03-0.13-1.12-0.91-2.12-1.44-3.13-0.84-1.27-1.29-1.89-1.59-1.93-0.02-0.01-0.05-0.01-0.07 0-0.66-0.95-1.21-1.76-1.68-2.41-0.22-0.66-0.64-1.5-1.25-2.47-1.54-2.41-2.71-3.61-3.28-3.44-0.8-1.5-0.74-3.16-1.22-4.78-0.41-1.05-0.82-2.31-1.16-3.4-0.23-1.34-0.37-2.61-0.41-3.82-0.07-0.44 0.04-0.91 0.07-1.34 0.17-0.65 0.22-1.45 0.15-2.12 0.17-1.07 0.4-2.09 0.75-3.04 0.54-0.55 1-1.55 1.13-2.34 0.49-0.81 1.11-1.57 1.78-2.28 0.58 0.17 1.59-0.34 2.5-1.44 2.43-1.09 4.58-3.02 7.06-3.19zm106.44 1.6c2.09 0.47 4.11 1.05 5.94 2.19 1.52 1.42-0.65 0.99-3.44-0.69l-2.5-1.5zm-14.56 1.53c0.6 0.28 1.26 0.57 1.47 0.69 1.04 0.59 4.51 1.95 7.71 3s9.65 3.7 14.32 5.9c0.88 0.42 1.91 0.89 2.93 1.35 0.06 0.37 0.13 0.79 0.29 1.65l0.46 8.35c-0.06 0.33-0.12 0.71-0.12 1.12 0 0.9 0.18 1.69 0.47 2.13 0.54 8.4 2.09 16.46 2.65 24.78 0.07 0.03 0.15 0.03 0.22 0.06l0.72 6.28c-0.02 0.22-0.06 0.43-0.06 0.69 1.69 4.93 1.04 10.09 1.41 15.41 0.07 0.03 0.16 0.05 0.25 0.09-0.59 2.32 0.48 4.51 0.59 7.06-0.08 0.43-0.05 0.86 0.06 1.25 0.01 0.03-0.01 0.07 0 0.1 0.05 1.2 0.11 2.31 0.19 3.25l0.12 0.06c-0.08 0.33-0.05 0.78 0.1 1.34 0.05 0.19 0.1 0.34 0.15 0.5 0.19 5.16 0.81 9.82 1.16 15.03 0.07 0.04 0.14 0.07 0.22 0.1-0.09 0.38-0.07 0.91 0.09 1.53 0.31 1.19 0.08 3.04-0.5 4.12-0.44 0.83-0.59 1.41-0.47 1.88-2.18 1.8-6.17 3.31-10.25 3.87-0.18-0.01-0.36-0.03-0.56-0.03-0.64 0-1.29 0.08-1.84 0.25-2.12 0.09-4.19-0.09-5.97-0.62-1.85-0.56-3.35-1.45-4.38-2.75 0.03-0.39-0.01-0.86-0.12-1.44-0.19-0.99-0.61-1.77-1.06-2.06-1.35-5.39 0.16-11.89-1.66-17.07-0.06-0.85-0.11-1.77-0.12-2.78-0.05-2.24-0.17-4.32-0.32-4.59-0.07-0.14-0.16-0.43-0.22-0.78 0.22-0.63-0.02-1.18-0.15-1.78-0.63-4.5-0.94-9.01-1.28-13.53 0.23 0.05 0.08-0.87-0.13-1.07-0.15-1.18-0.32-2.22-0.5-2.87 0.01-0.29 0.05-0.56 0.03-0.88-0.05-1.38-0.26-2.64-0.53-3.65v-0.03c0.02-2-0.08-3.58-0.22-3.75-0.58-5.24-0.37-7.05-1.5-11.97l0.35-1.82-0.07-0.71c0-0.03-0.02-0.04-0.03-0.07l-0.09-1c0.06-0.19 0.06-0.42-0.06-0.59l-0.75-7.19c0.03-0.17 0.04-0.36 0-0.53-0.02-0.07-0.04-0.12-0.07-0.19l-0.09-0.78c0.02-0.3-0.02-0.61-0.09-0.9l-2.75-26.41zm-19.44 2.19c1.25 0.6 2.49 1.18 3.72 1.87 0.93 0.53 1.66 0.96 1.78 1.03 0.01 0.01 0.12 0.1 0.12 0.1 0.26 0.18 0.51 0.38 0.69 0.56 0.35 0.34 0.6 0.55 0.78 0.62 0.32 0.36 0.63 0.76 0.91 1.32-0.24 0.14-0.25 0.5 0.12 1.12 0.18 0.29 0.24 0.48 0.22 0.56-1.47-1.16-2.69-2.35-3.72-3.31-0.22-0.21-0.41-0.41-0.62-0.59l-0.03-0.03c-0.05-0.06-0.13-0.11-0.19-0.16l-0.03-0.03c-1.7-1.41-3.84-2.06-5.97-2.5-0.28-0.08-0.56-0.16-0.84-0.16-0.27 0-0.51 0.05-0.72 0.13-0.23 0.02-0.44 0.05-0.66 0.09-1.89 0.51-3.27 1.66-4.06 3.35 0 0.19 0.04 0.36 0.09 0.53-0.42 1.45-0.44 3.12-0.06 4.81 0.08 0.82 0.38 1.76 0.84 2.44 0.24 0.52 0.52 1.07 1.85 2.81 1.48 1.26 2.19 2.27 2.03 3.06-0.09 0.42-0.48 0.9-0.97 1.31-0.36-0.34-0.72-0.75-1.09-1.18 0.04-0.07-1.71-2.33-1.94-2.85-0.08-0.09-0.62-1.11-0.69-1.22-0.06-0.12-0.13-0.24-0.19-0.37-0.04-0.11-0.13-0.2-0.21-0.28-0.04-0.07-0.06-0.15-0.1-0.22 0.18-1-0.28-2.5-0.97-3.13-0.17-0.95-0.29-1.96-0.31-2.96 0-0.34 0.01-0.67 0.03-1 0.18-3.32 1.26-5.59 3.07-6.59 1.75-0.96 4.18-0.74 7.12 0.87zm44.62 0.43c0.88-0.03 5.04 1.55 10.29 3.97 3.34 1.55 5.64 2.82 5.09 2.82-1.24-0.01-14.65-5.66-15.44-6.5-0.09-0.1-0.14-0.18-0.12-0.22 0.01-0.05 0.08-0.06 0.18-0.07zm-1.12 1.94c0.82 0.54 1.05 0.97 0.5 0.97s-1.68-0.43-2.5-0.97c-0.54-0.35-0.84-0.67-0.81-0.84 0.89-0.33 1.98 0.4 2.81 0.84zm-47.44-0.31c0.38 0.19 0.91 0.31 1.5 0.31 0.41 0 0.74-0.05 1-0.15 3.02 0.77 5.03 2.79 7.31 4.87 0.07 0.2 0.1 0.32 0.19 0.56 0.21 0.55 0.9 1.03 1.75 1.28 0.02 0.02 0.05 0.02 0.06 0.04 0.65 0.48 0.98 1.11 1.16 1.78-0.92 0.87-0.4 1.85 0.06 2.87 0.19 0.19 0.43 0.32 0.69 0.41 0.21 0.26 0.42 0.53 0.53 0.72 0.22 0.84 0.31 1.7 0.5 2.53-0.23 0.39-0.44 0.83-0.62 1.34-0.16 0.43-0.37 0.75-0.63 0.97-0.57 0.22-2.11 1.78-3.56 1.41-1.35-0.35-2.07-0.6-3.53-1.28-0.66-0.48-1.69-1.15-2.16-1.25-0.88-1.26-1.7-2.38-2.97-3.22-0.12-0.08-0.25-0.17-0.37-0.25-0.59-0.4-1.08-0.77-1.44-1.1l-0.03-0.03c-0.07-0.06-0.1-0.12-0.16-0.19-0.61-0.76-1.1-1.59-1.5-2.43-1.17-3.63-1.75-7.05 2.03-9.16 0.06-0.01 0.13-0.02 0.19-0.03zm44.44 1.31c0.82 0.54 1.05 0.97 0.5 0.97s-1.68-0.43-2.5-0.97c-0.54-0.35-0.84-0.67-0.81-0.84 0.89-0.33 1.98 0.4 2.81 0.84zm42.34-0.97c0.05-0.01 0.09 0 0.16 0 0.55 0 1.67 0.44 2.5 0.97 0.82 0.54 1.05 0.97 0.5 0.97s-1.68-0.43-2.5-0.97c-0.54-0.35-0.84-0.67-0.81-0.84 0.01-0.06 0.07-0.1 0.15-0.13zm-36.84 1.13c0.55-0.01 2.8 0.82 5 1.84s3.55 1.85 3 1.88c-0.55 0.02-2.8-0.81-5-1.85-1.93-0.91-3.21-1.66-3.13-1.84 0.02-0.03 0.06-0.03 0.13-0.03zm49 1.87c0.55 0 1.67 0.44 2.5 0.97 0.82 0.54 1.05 0.97 0.5 0.97s-1.68-0.43-2.5-0.97c-0.35-0.11-0.33-0.64-0.5-0.97zm-33 2c0.55 0 1.67 0.44 2.5 0.97 0.82 0.54 1.05 0.97 0.5 0.97s-1.68-0.43-2.5-0.97c-0.35-0.11-0.33-0.64-0.5-0.97zm-14.69 1.97c4.13 1.82 8.81 3.76 11.91 4.91 2.89 1.08 9.08 3.6 15.72 6.4-0.13 0.23-0.21 0.48-0.22 0.75-0.14 0.82-0.12 1.62-0.22 2.44 0 0.39 0.09 0.74 0.25 1 0.14 0.91-0.23 1.63-0.13 2.56 0 0.01 0.01 0.03 0 0.04-0.22 1.08 0 2.21 0.25 3.28 0.24 1.28 0.5 2.53 0.63 3.84 0.5 1.58 0.52 3.24 0.56 4.88v0.12c0.04 0.68 0.1 1.27 0.19 1.81 0.56 1.58 0.49 3.23 0.72 4.88 0.19 0.52 0.23 1.05 0.31 1.59 0.06 0.33 0.14 0.67 0.22 0.94 0.01 0.8 0.04 1.5 0.09 2.03-0.05 0.3-0.09 0.63-0.09 1.03 0.25 2.76 1.04 5.52 1 8.31 0.63 2.5 0.27 4.72 0.62 7.04 0.04 0.13 0.06 0.26 0.1 0.4 0.02 0.11 0.06 0.21 0.09 0.31v0.04c-0.02 1.79 0.01 3.48 0.5 5.18 1.28 2.04 0.26 4.05 0.78 5.97 0 0.18-0.02 0.29-0.03 0.5-0.02 0.76 0.08 1.44 0.25 1.94v0.03c0 0.13 0.01 0.27 0.03 0.41-0.02 0.2-0.05 0.37-0.03 0.56 0 0.11-0.01 0.23 0 0.34 0 0.11-0.01 0.22 0 0.32 0.18 3.14 0.08 6.06 0.46 9 0.18 1.36 0.67 2.63 0.85 4-0.14 0.52-0.13 1.06-0.18 1.6-0.03 1.62 0.27 3.5 0.28 5.24 0 0.08-0.01 0.17 0 0.25-0.02 0.7 0.27 1.3 0.5 1.94 0.03 0.06 0.03 0.14 0.06 0.18 0.6 4.57 0.18 8.72 0.22 13.22-0.61 0.28-1.23 0.54-1.84 0.78-0.01 0.01-0.03 0-0.04 0-0.12-0.03-0.27-0.05-0.46-0.03-0.64 0.08-1.63 0.46-2.66 1.1-0.02 0.01-0.02 0.02-0.03 0.03-2.77 0.8-5.53 1.26-8.03 1.37-3.56 0.17-6.58-0.4-8.41-1.43-1.02-0.81-1.9-1.96-2.34-3.13-0.31-0.81-0.61-1.4-0.91-1.87l-0.31-2.6c0.36-0.39 0.53-1.03 0.53-2 0-1.32-0.4-2.2-1.09-2.44l-0.22-1.59c0.23-0.54 0.2-1.59-0.07-3.22-0.34-2.06-0.61-4.31-0.62-5 0-0.21-0.07-0.41-0.16-0.59 0.21-0.32 0.16-1.15 0-2.72 0.08-0.28 0.16-0.59 0.16-0.94-1.45-3.36-0.78-6.76-1.19-10.22-0.02-0.14-0.04-0.23-0.06-0.37 0.15-0.32 0.25-0.79 0.25-1.41 0-0.67-0.24-1.26-0.59-1.62 0.1-0.61 0.01-1.82-0.29-4.22-0.85-2.3-0.42-4.8-1.15-7.03 0.55-0.19 0.51-1.04 0.06-4.72-2.04-3.91-0.15-8.4-1.53-12.38l-0.38-3.03-0.18-1.72-0.07-0.72-1.53-13.15c0.12-1.98-0.02-3.56-0.47-4.5-0.01-0.03-0.04-0.04-0.06-0.06l-0.06-0.63c0.07-1.75-0.08-3.25-0.47-4.09l-0.41-3.47c0.08-0.35 0.13-0.74 0.13-1.16 0-0.79-0.15-1.48-0.38-1.94-0.05-0.37-0.13-0.7-0.21-1-0.5-2.51-0.38-5.02-0.6-7.56zm25.63 2.6c0.85 0.32 1.56 0.78 1.56 1 0 0.81-1.91 0.35-2.5-0.6-0.15-0.79 0.42-0.37 0.94-0.4zm3.06 4.31l2.5 0.65c1.37 0.36 2.91 1.05 3.44 1.54 1.52 1.42-0.65 0.99-3.44-0.69l-2.5-1.5zm48.62 2.53c2.96 1.34 4.93 2.44 4.38 2.47-1.06 0.05-10.11-4.13-10.44-4.75 1.87 0.22 4.21 1.46 6.06 2.28zm-32.78 1.09c2.84 1.29 4.71 2.37 4.16 2.38-1.24 0.02-12.6-4.67-13.41-5.53-0.08-0.09-0.13-0.14-0.12-0.19 3.15 0.32 6.42 2.04 9.37 3.34zm-153.75-1.31c-0.06 0.16 4.21 1.64 5.97 2.53 2.26 0.93 4.35 2.14 6.63 3.03 0.33 0.54 0.73 1.07 1.09 1.22 0.86 0.38 1.82 0.69 2.16 0.69 0.12 0 0.64 0.16 1.28 0.41 2.42 0.98 4.7 2.13 7.03 3.21 0.44 0.12 0.73 0.18 1.06 0.25 4.09 1.65 7.9 3.97 12.03 5.5 0.22 0 2.44 0.99 4.94 2.19 3.97 2.06 8.25 3.32 12.34 5.06 1.69 1.06 3.52 1.86 5.35 2.63 3.98 1.5 7.95 3.15 11.81 4.97 0.95 0.48 3.51 1.56 5.69 2.4 2.17 0.84 4.62 1.99 5.44 2.54 1.38 0.92 1.66 1.09 1.71 0.71 1.16 0.71 1.39 1.5 1.1 3-0.05 0.28-0.05 0.52-0.06 0.75-0.44-0.25-0.91-0.51-1.41-0.78-0.53-0.63-1.8-1.22-2.69-1.31h-0.03c-0.93-0.42-1.9-0.79-2.81-1.12-0.03-0.02-0.06-0.05-0.1-0.07-0.54-0.33-1.27-0.6-1.96-0.75-1.41-0.55-3-1.23-4.88-2.06-0.6-0.39-1.19-0.65-1.62-0.72-0.56-0.25-1.17-0.54-1.75-0.81-0.37-0.75-1.66-1.29-2.57-1.19-1.76-0.83-3.62-1.72-5.59-2.69-4.11-2.84-9.43-3.35-13.63-5.9-2.12-0.35-4.18-1.69-5.78-1.88l-4.22-1.06c-4.35-1.12-9.14-4.37-13.81-5.41-1.43-0.77-2.2-1.15-3.25-2.31l-2.5-1.87c-0.23-0.09-0.41-0.15-0.59-0.19-1.76-0.38-2.58-1.57-4.19-2.16-2.78-1.71-5.68-3.6-8.97-4-0.28-0.44-0.87-0.47-1.56-0.72-0.96-0.34-2.54-1.29-3.5-2.12-0.64-0.55-1.33-0.91-1.81-1-1.26-3.11 1.11-2.06 3.65-0.97zm59.91-1.22c0.87 0.51 2.47 3.05 3.59 3.6 1.41 0.68 2.41 0.97 4.03 1.4 0.7 0.72 4.49-1.36 4.6-1.4 0.26-0.1 0.46-0.32 0.5-0.6v-0.15c0.41-0.17 0.89-0.32 1.5-0.44 0.38-0.08 0.7-0.17 1-0.25 0.02 0.41 0.02 0.82-0.03 1.22-0.05 0.32-0.13 0.62-0.22 0.9-0.01 0.03-0.03 0.04-0.03 0.07-0.34 0.34-0.68 0.89-0.91 1.56-0.03 0.02-0.06 0.07-0.09 0.09-0.14 0.08-0.26 0.19-0.35 0.31-0.01 0.03-0.05 0.04-0.06 0.07-1.83 1.36-3.48 1.85-5.44 1.56-1.85-0.28-4.07-1.35-6.84-3.34-0.11-1.55-0.48-2.91-0.88-3.16-0.26-0.17-0.43-0.53-0.43-0.97-0.01-0.15 0.03-0.31 0.06-0.47zm120.5 1c0.82 0.54 1.05 0.97 0.5 0.97s-1.68-0.43-2.5-0.97c-0.54-0.35-0.84-0.67-0.81-0.84 0.89-0.33 1.98 0.4 2.81 0.84zm-42.66 0.03c0.05-0.01 0.09 0 0.16 0 0.55 0 1.67 0.44 2.5 0.97 0.82 0.54 1.05 0.97 0.5 0.97s-1.68-0.43-2.5-0.97c-0.54-0.35-0.84-0.67-0.81-0.84 0.01-0.06 0.07-0.1 0.15-0.13zm8.16 1c0.55 0 1.67 0.44 2.5 0.97 0.82 0.54 1.05 0.97 0.5 0.97s-1.68-0.43-2.5-0.97c-0.35-0.11-0.33-0.64-0.5-0.97zm0.5 5.38c8.42 3.65 15.74 6.72 17.72 7.44 0.1 0.74 0.2 1.61 0.34 2.56 0.03 1.43 0.27 2.92 0.53 4.34 0.29 0.19 0.61 3.1 0.69 6.16 0.97 2.84 0.44 5.99 1.06 8.78 0.02 0.87 0.03 1.76 0.07 2.59-0.17 0.3-0.12 0.97 0.09 1.72 0.03 0.51 0.03 1.15 0.06 1.44 0.1 1.07 0.09 2.35-0.03 2.84-0.17 0.7-0.13 1.07 0.22 1.72 0.25 0.48 0.44 1.43 0.62 3.35-0.14 0.28-0.16 0.72 0.04 1.21 0.03 0.1 0.05 0.26 0.09 0.38 0.01 0.13 0.02 0.21 0.03 0.34 0.18 2.45 0.43 5.35 0.56 6.44s0.25 2.79 0.25 3.78c0.01 1 0.12 2.03 0.25 2.28 0.21 0.4 0.49 3.58 0.88 9.88l0.06 0.97c0.07 1.44-0.02 1.97-0.44 2.93-0.26 0.62-0.41 1.09-0.43 1.47-0.01 0.01 0 0.03 0 0.03-2.28 2.07-5.04 5.65-5.69 8.07-1.6 5.94-0.41 8.67 4.9 11.18 3.18 1.51 4.72 2.91 4.94 4.44 0.09 0.64 0.28 1.22 0.5 1.63v3.4c-0.56 1.11-0.82 3.17-0.59 4.63-0.98 0.47-1.96 0.91-2.94 1.31-0.36 0.09-0.78 0.22-1.25 0.44-0.09 0.04-0.16 0.08-0.25 0.12-2.37 0.87-4.73 1.48-7.09 1.72h-0.13c-0.44 0-0.86 0.04-1.25 0.1-1.94 0.08-3.86-0.08-5.81-0.57-0.44-0.3-1-0.48-1.53-0.5h-0.16c-0.93-0.32-1.87-0.71-2.81-1.18-0.17-1.57-0.65-2.33-1.47-2.38l-0.28-2.97c0.05-0.87-0.02-2.11-0.22-3.75-0.36-2.89-0.64-6.49-0.59-8-0.66-3.37-0.9-6.87-1.07-10.34 0-0.05-0.02-0.08-0.03-0.13-0.42-2.2-0.51-4.54-0.54-6.89 0.13-1.59-0.03-3.08-0.39-4.58-0.32-1.15-0.54-2.3-0.69-3.45-0.28-2.14-0.32-4.32-0.25-6.73v-2.38c-0.01-0.06 0.01-0.12 0-0.19-0.09-0.69-0.44-1.26-0.78-1.46 0.05-0.61 0.04-1.2-0.07-1.57-0.03-0.11-0.1-0.24-0.15-0.34 0.33-1.22 0.28-2.39 0.15-3.63-0.01-0.06-0.03-0.12-0.06-0.18-0.89-1.71-0.66-3.17-0.72-5.16-1.03-2.49-0.57-4.79-0.9-7.47-1.23-3.22 0.21-7.2-0.91-10.22-0.02-0.26-0.03-0.52-0.06-0.78-0.1-0.69-0.22-1.33-0.31-1.94v-0.03c-0.01-0.03 0-0.06 0-0.09-0.07-2.02-0.38-4.02-0.57-6.03-0.91-2.4-0.6-4.72-0.75-7.1 0.02-0.12 0.02-0.25 0.03-0.37-0.38-2.77-0.35-5.57-0.7-8.34-0.03-1.43-0.08-2.86-0.05-4.29 2.57 1.04 5.27 2.22 7.88 3.35zm17-0.91c1.37 0.79 2.05 1.41 1.5 1.41s-2.13-0.62-3.5-1.41c-1.03-0.59-1.67-1.09-1.69-1.31 1.14-0.22 2.61 0.77 3.69 1.31zm-101.94 0.5c2.31 1.52 4.32 2.43 6.25 2.72 0.39 0.06 0.77 0.09 1.16 0.09-0.48 0.69-1.59 1.21-2.69 1.22-0.29 0.01-0.44 0.03-0.66 0.03-0.17-0.04-0.35-0.09-0.53-0.15-0.66-0.23-1.27-0.56-1.81-0.97-0.13-0.37-0.38-0.7-0.72-0.91-0.4-0.25-0.76-1.05-1-2.03zm13.63 0.66c0.04 0.02 0.07 0.05 0.12 0.06l4.85 1.59 0.03 0.04c0.52 0.5 1.22 0.69 1.9 0.62l0.44 0.16 0.44 4.5c-0.4 0.22-0.92 0.23-1.56 0.06-0.73-0.19-1.23-0.18-1.54-0.06 0-0.01-0.02 0-0.03 0-0.2-0.06-0.4-0.17-0.59-0.28-0.57-0.15-1-0.56-1.5-0.85-1.52-0.88-3.12-1.58-4.78-2.12-0.09-0.04-0.15-0.09-0.25-0.13-0.35-0.12-0.52-0.29-0.53-0.53-0.02-0.39 0.43-0.96 1.37-1.78 0.53-0.46 1.09-0.9 1.63-1.28zm91.81 0.4c0.55 0 2.12 0.66 3.5 1.44 1.37 0.79 2.05 1.41 1.5 1.41s-2.13-0.62-3.5-1.41c-1.03-0.59-1.67-1.09-1.69-1.31-0.01-0.07 0.05-0.13 0.19-0.13zm-187.41 2.16c0.4 0.04 0.82 0.32 1.35 0.81 1.17 1.6 2.45 3.34 4.97 7.03-0.4 0.38-0.84 0.78-1.16 1.1-0.5 0.5-1.01 0.83-1.72 1.09-0.5 0-0.99-0.24-1.62-0.84-0.17-0.16-0.36-0.35-0.54-0.53-0.28-0.34-0.53-0.68-0.93-1.13-1.61-1.79-3.27-3.69-3.69-4.22-0.2-0.1-0.21-0.39-0.28-0.53 0.7-0.66 1.23-1.24 1.69-1.75 0.12-0.09 0.23-0.17 0.37-0.28 0.66-0.54 1.1-0.79 1.56-0.75zm196.41 1.84c0.55 0 2.12 0.66 3.5 1.44 1.37 0.79 2.05 1.41 1.5 1.41s-2.13-0.62-3.5-1.41c-1.03-0.59-1.67-1.09-1.69-1.31-0.01-0.07 0.05-0.13 0.19-0.13zm7.5 2.97c0.82-0.01 4.2 1.33 7.5 2.94 3.3 1.62 5.55 2.92 5 2.91-2.47-0.07-12.77-4.78-12.84-5.69-0.01-0.09 0.11-0.15 0.34-0.16zm-12 0.03c0.82-0.03 2.17 0.41 3 0.94 1.83 1.18 0.25 1.18-2.5 0-0.66-0.28-1.04-0.5-1.13-0.65-0.08-0.16 0.13-0.27 0.63-0.29zm-5.91 0.25c1.67 0.62 5.62 2.26 10.13 4.29 5.63 2.53 14.77 6.39 20.28 8.59 8.9 3.55 37.76 15.51 43 17.81 1.1 0.49 6.5 2.75 12 5.03 18.03 7.49 22.94 10.54 31.12 19.35 16.06 17.28 25.15 45.78 21.44 67.09-1.49 8.55-4.22 14.02-8.34 16.63-4.69 2.96-15.93 2.12-22.5-1.69-4.19-2.42-13.38-10.19-26.03-22 0.24-0.14 0.48-0.3 0.72-0.44 0.03 0 0.05 0.03 0.09 0.03 0.42 0 0.76-0.28 0.91-0.65 0.63-0.44 1.22-0.89 1.78-1.38 0.06 0.01 0.12 0.03 0.18 0.03 1.2 0 3.23-2.61 2.88-3.53 0.46-0.7 0.86-1.46 1.22-2.22 0.56-0.59 0.91-1.54 0.9-2.28 0.77-2.48 1.02-5.19 0.79-7.97-0.33-3.84-1.58-7.87-3.66-11.84-0.01-0.01 0-0.02 0-0.03 0-0.36-0.36-0.96-0.88-1.53-0.01-0.02-0.02-0.02-0.03-0.04-2.19-3.74-5.11-7.41-8.75-10.78-5.76-5.34-13.2-8.35-23.87-12.4-3.65-1.19-6.99-3.15-10.63-4.72-0.2-0.38-0.65-0.77-1.34-1.03-0.23-0.09-0.44-0.13-0.63-0.13-0.2 0-0.36 0.06-0.5 0.16-0.81-0.25-1.62-0.47-2.4-0.78-0.26-0.77-1.81-1.53-2.91-1.6h-0.03c-0.12-0.07-0.25-0.14-0.37-0.22-0.54-0.34-1.17-0.42-1.79-0.5-0.03 0.01-0.06 0.01-0.09 0-0.22-0.36-0.58-0.7-1.03-0.87-0.84-0.32-0.51-1.04 1-2.16 0.07-0.05 0.12-0.1 0.19-0.15 0.2 0.01 0.4-0.07 0.56-0.22 0.55-0.53 0.97-1.18 1.31-1.85 0.06-0.1 0.13-0.21 0.16-0.31 0.26-0.55 0.48-1.1 0.62-1.62 0.28-1.5 0.36-3.04 0.41-4.57 0-2.31 0.66-4.91 1.5-5.84 1.35-1.5 1.29-1.86-0.59-3.56-1.04-0.93-1.56-1.38-2-1.38-0.45 0.01-0.82 0.47-1.5 1.41-0.02 0.02-0.05 0.04-0.07 0.06-0.14 0.06-0.26 0.15-0.34 0.28-2.54 4.07-1.78 8.9-2.22 11.69-0.11 0.7-0.28 1.24-0.53 1.63-0.62 0.55-1.62 0.54-2.5 0.93-1.19-0.05-2.89-0.4-5.25-1.25-0.36-0.09-0.65-0.33-0.97-0.5-0.57-0.35-1.17-0.76-1.59-1.09-3.94-4.04-5.57-9.45-7.19-14.72 0.24-0.77-0.42-2.94-1.38-5.03-0.64-1.41-2.64-0.84-3.31-0.03-0.6 0.72-0.61 1.71-0.03 2.62 0.77 1.44 0.87 3.07 0.97 4.66 0.35 5.26 3.45 9.53 6.66 13.53-0.51 0.04-0.99 0.07-1.41 0.03-2-0.19-3.75-1.37-5.63-2.09-0.47-0.51-1.13-0.6-1.78-0.75-0.09-0.06-0.19-0.11-0.28-0.16-0.18-0.26-0.47-0.61-0.9-1.09-0.65-0.72-1.2-1.6-1.47-2.28-0.1-0.78-0.22-1.63-0.35-2.41-0.27-1.71-0.53-4.6-0.59-6.44-0.1-3.18-0.59-6.68-1.03-7.59 0.02-2.36-0.22-5.11-0.53-7.81-0.3-0.37-0.57-3.08-0.69-6.91 0.68 1.13-0.15-3.72-0.72-4.62-0.06-0.27-0.12-0.52-0.19-0.79zm13.35 0.29c0.85 0.32 1.56 0.78 1.56 1 0 0.81-1.91 0.35-2.5-0.6-0.1-0.8 0.38-0.39 0.94-0.4zm111.81 1.43c2.14-0.04 4.17 0.31 6.94 1.19 1.67 0.71 4.13 1.77 6.12 2.69 2.31 1.06 4.34 1.75 4.53 1.56 0.44 0.19 0.82 0.36 1.28 0.56 0.11 0.34 4.67 2.02 5.19 2.25 0.4 0.51 1.17 1.07 2.25 1.57 0.73 0.33 1.25 0.65 1.6 1 0.36 0.46 0.21 0.98 0.25 1.5-0.11 0.43-0.35 0.8-0.69 1.06-0.22 0.17-0.48 0.27-0.72 0.34l-4.75-2.15c-0.45-0.25-0.84-0.43-1.16-0.5l-2.09-0.91c0-0.7-0.68-1-3-1.63l-2.5-0.68c-1.23-1.01-2.24-1.72-3.91-1.66l-1.87-0.78c-0.76-0.92-2.96-1.83-5.22-2.22l-1.19-0.5c-0.19-0.08-0.39-0.1-0.59-0.06l-16.72 3.47-5.03 1.06-5.25 1.09c-1.46-0.57-2.67 0.19-3.91 0.82l-2.09 0.43c-0.3-0.57-1.37-0.61-2.75 0.25-1.49 0.93-2.52 0.94-4.5 0.03-2.14-0.97-2.32-1.34-1.03-2.06 0.04-0.02 0.08-0.03 0.12-0.06 9.13-1.3 15.95-2.61 21.31-3.75 0.67 0.16 1.59-0.01 2.19-0.47 7.27-1.61 11.57-2.85 14.97-3.28 0.76-0.1 1.51-0.14 2.22-0.16zm-112.81 0.57c0.85 0.32 1.56 0.78 1.56 1 0 0.81-1.91 0.35-2.5-0.6-0.15-0.79 0.42-0.37 0.94-0.4zm61.9 6.56c0.06-0.08 0.42 0.34 1.13 1.25 0.83 1.06 1.79 1.64 2.15 1.28 0.37-0.36 1.18-0.04 1.79 0.72 0.6 0.75 4.91 3.02 9.59 5.06 13.9 6.08 26.18 12.61 31.34 16.69 2.67 2.1 5.37 3.55 6 3.19 0.64-0.37 0.82-0.3 0.41 0.15-1.01 1.11 2.23 4.62 3.53 3.81 0.56-0.34 0.74-0.15 0.38 0.44-0.37 0.59-0.1 1.68 0.62 2.41 4.41 4.48 11.69 15.42 14.56 21.84 1.85 4.13 3.98 8.92 4.75 10.66s2.2 6.24 3.16 10 2.08 6.97 2.5 7.15c0.41 0.19 0.5 0.75 0.19 1.25-0.31 0.51-0.06 0.94 0.56 0.94 0.61 0 0.86 0.4 0.56 0.88s-0.7 7.79-0.9 16.25c-0.22 8.77-0.87 16.45-1.54 17.87-1.09 2.36-1.13 2.3-0.68-1 5.12-37.79-9.36-74.4-38.13-96.31-5.72-4.36-19.36-11.38-34.5-17.78-3.78-1.6-6.06-3.25-6.78-4.91-0.38-0.88-0.62-1.43-0.69-1.69-0.02-0.08-0.01-0.13 0-0.15zm88.5 0.25c0.27 0.19 0.54 0.28 0.78 0.19 4.03 1.54 5.88 1.57 6.16 0.9 6.88 2.98 13.73 5.97 20.63 8.91 0.05-0.02 0.07-0.05 0.12-0.06 0.88 0.76 1.33 1.58 1.13 2.12-0.21 0.54-0.23 1.14-0.1 1.56-0.61 0.42-1.19 0.83-1.72 1.32-0.04-0.03-0.1-0.02-0.15 0-0.23 0.06-0.61 0.48-1.16 1.21-0.35 0.47-0.65 1.02-0.91 1.57-0.03 0.08-0.09 0.16-0.12 0.25-0.28 0.52-0.53 1.05-0.72 1.62-0.47 1.46-0.58 3.05-0.34 4.75h-0.1c-0.24 0.05-0.48 0.22-0.75 0.47l-0.06 0.06-8.91-3.84c-0.15-0.07-0.31-0.14-0.46-0.19l-5.41-2.34c-0.82-0.53-1.6-0.91-1.94-0.91-0.04 0-0.08 0.03-0.12 0.03l-4.66-2c-0.23-0.11-0.52-0.22-0.78-0.34l-0.75-0.34c-1.29-0.54-2.25-0.98-2.94-1.44l-0.22-0.53c-0.66-1.53-0.97-2.95-0.97-4.28 0.01-1.33 0.32-2.57 0.82-3.75 0.77-1.83 2.08-3.5 3.65-4.94zm-118.5 2.09c0.44-0.01 1.36 0.2 2.66 0.66 1.65 0.57 3 1.21 3 1.44 0 0.59-1.22 0.39-3.75-0.63-1.57-0.63-2.28-1.12-2.22-1.34 0.02-0.08 0.13-0.12 0.31-0.13zm1.72 2.94c0.64-0.23 5.88 1.83 8.69 3.47 0.97 0.56 1.3 0.99 0.75 0.97-1.51-0.06-9.5-3.71-9.5-4.35 0-0.03 0.02-0.08 0.06-0.09zm7.94 0.62c0.82 0 2.62 0.66 4 1.44 3.16 1.81 1.47 1.79-2.5-0.03-1.03-0.47-1.7-0.9-1.84-1.16-0.09-0.15 0.03-0.24 0.34-0.25zm7.34 2.97c0.05-0.01 0.09 0 0.16 0 0.55 0 1.67 0.44 2.5 0.97 0.82 0.54 1.05 0.97 0.5 0.97s-1.68-0.43-2.5-0.97c-0.54-0.35-0.84-0.67-0.81-0.84 0.01-0.06 0.07-0.1 0.15-0.13zm19.1 0c-0.28 0-0.44 0.33-0.44 0.97 0 0.55 0.48 1 1.06 1s0.78-0.45 0.44-1c-0.4-0.64-0.79-0.97-1.06-0.97zm-13.94 2.03c0.55 0 2.12 0.66 3.5 1.44 1.37 0.79 2.05 1.41 1.5 1.41s-2.13-0.62-3.5-1.41c-1.03-0.59-1.67-1.09-1.69-1.31-0.01-0.07 0.05-0.13 0.19-0.13zm22.19 0.94c0.65-0.01 1.47 0.45 1.81 1 0.77 1.24 0.42 1.24-1.5 0-0.45-0.29-0.73-0.54-0.78-0.72-0.06-0.17 0.11-0.27 0.47-0.28zm116.47 0.28c0.52-0.01 1.06 0.02 1.59 0.03-0.08 0.24-0.15 0.48-0.25 0.75-2.96 1.78-5.74 4.84-7.78 8.5-2.26 4.07-3.56 8.97-2.85 13.82-0.29 0.21-1.13-0.23-2.18-1.22-0.1-0.1-0.19-0.16-0.28-0.25-0.77-0.87-1.45-1.68-1.91-2.35-2.38-3.38-3.3-6.23-3.22-8.65 0.03-0.81 0.18-1.58 0.41-2.28 0.91-2.83 3.38-5.05 6.87-6.5 2.39-1 5.23-1.59 8.22-1.78 0.59 0.08 1.06 0.05 1.38-0.07zm7.75 1.41c0.44-0.01 0.9-0.01 1.34 0 0.42 0.01 0.78 0 1.16 0 0.51 0.16 1.02 0.34 1.53 0.53-1.52 0.43-3.02 1.25-4.41 2.31-1.08 0.83-2.09 1.82-3.06 2.91-0.15 0.16-0.3 0.33-0.44 0.5l-0.03 0.03c-1.27 1.51-2.41 3.2-3.38 5-0.02 0.05-0.07 0.08-0.09 0.13-0.17 0.24-0.31 0.53-0.41 0.84-0.02 0.05-0.06 0.1-0.09 0.16-1.85 3.8-2.94 7.93-2.56 11.62 0.09 0.91 0.3 1.81 0.59 2.66v0.03c0.08 0.81 0.26 1.57 0.6 1.9 0.24 0.25 0.46 0.39 0.65 0.5 0.33 0.47 0.74 0.88 1.16 1.29-1.64-0.83-3.93-2.47-6.16-4.38-1.13-2.27-1.64-4.63-1.65-7-0.01-0.79 0.05-1.59 0.15-2.37 0.16-0.24 0.29-0.51 0.31-0.85 0.05-0.58 0.1-1.05 0.16-1.47l0.03-0.18c0.01-0.05 0.02-0.11 0.03-0.16 0.14-0.5 0.3-1.01 0.47-1.5 0.24-0.55 0.55-1.13 1.03-2 0.34-0.6 0.59-1.27 0.75-1.88 0.58-1 1.22-1.97 1.91-2.84l0.03-0.03c0.19-0.12 0.38-0.3 0.56-0.59 0.05-0.07 0.06-0.13 0.1-0.19 1.89-2.19 4.03-3.8 6-4.63 1.05-0.18 2.37-0.31 3.72-0.34zm-203.22 0.31c0.49 0 0.94 0.93 1.03 2.1 0.07 0.9 0.22 1.62 0.44 2.12 1.91 8.03 4.49 12.55 6.87 15.22 0.71 0.89 1.73 1.48 2.69 2.09 0.28 0.18 0.54 0.35 0.81 0.5 0.41 0.55 1.4 0.96 2.28 0.94 0.22 0 0.32-0.02 0.47-0.03 1.03 0.29 1.93 0.48 2.72 0.56 0.11 0.62 0.63 0.55 2.31-0.09 0.04-0.02 0.06-0.02 0.1-0.03 0.06-0.02 0.12-0.02 0.18-0.03 0.84-0.26 1.49-0.79 1.91-1.44 0.3-0.46 0.48-0.98 0.62-1.53 0.85-0.89 1.05-4.83 0.63-6.97 0.18-1.55 0.54-3.09 1.34-4.5 0.48-0.6 1.2-0.86 1.72-0.53 0.71 0.44 0.6 1.76-0.37 4.09-0.8 1.9-1.44 4.61-1.44 6 0 0.7 0.1 1.32 0.28 1.78-0.04 0.22-0.08 0.46-0.16 0.72-0.26 0.98-0.81 2.12-1.5 2.88-1.26 1.17-2.79 2.15-3.43 2.15-0.66 0-1.19 0.45-1.19 1s-0.9 1-2 1c-0.98 0-1.61 0.27-1.84 0.63-0.65-0.1-1.12-0.54-1.63-0.91-0.07-0.28-0.35-0.59-0.91-0.91-0.89-0.5-1.62-1.69-1.62-2.65s-0.56-2.39-1.25-3.13c-0.2-0.46-0.6-0.64-1.09-0.75-3.18-3.64-6-7.53-6.97-11.93 0.28-1.19-0.15-3.82-1.22-6.6-0.37-0.96-0.28-1.75 0.22-1.75zm209.37 1.88c0.27-0.02 0.52 0 0.78 0.03 0.36 0.27 0.82 0.54 1.41 0.81 0.19 0.09 0.38 0.15 0.56 0.22 0.08 0.2 0.22 0.38 0.41 0.5 0.86 0.53 1.6 1.82 2 3.62-0.13 0.35-0.22 0.78-0.22 1.35 0 0.96 0.19 1.66 0.53 2.09-0.02 1.22-0.16 2.51-0.41 3.85-0.01 0.07-0.01 0.13-0.03 0.21-0.13 0.68-0.28 1.36-0.47 2.04-1.64 6.02-5.54 11.96-11.78 13.71-0.16 0.05-0.29 0.14-0.4 0.25-0.56-0.08-1.18-0.15-1.88-0.18-0.02-0.01-0.04-0.03-0.06-0.03-2.1-0.81-3.41-2.08-4.19-3.72-0.02-0.2-0.06-0.4-0.09-0.63-0.15-0.99-0.44-1.89-0.75-2.44-0.01 0 0-0.02 0-0.03-0.04-0.33-0.06-0.65-0.06-1-0.02-1.04 0.1-2.15 0.31-3.28 0.11-0.3 0.21-0.7 0.25-1.19 0.41-1.69 1.03-3.42 1.84-5.09 0.22-0.44 0.45-0.88 0.69-1.31 0.06-0.11 0.13-0.21 0.19-0.31 0-0.01-0.01-0.03 0-0.04 1.66-2.89 3.82-5.47 6.06-7.18 0.12-0.09 0.23-0.17 0.34-0.25 0.48-0.09 1.1-0.36 1.88-0.85 0.27-0.17 0.5-0.36 0.65-0.56 0.83-0.34 1.65-0.55 2.44-0.59zm-132.78 3.56c0.1-0.04 0.34 0.02 0.72 0.12 3.56 1 21 9.2 21 9.88 0 0.71 0.54 0.9-6.5-2.53-3.3-1.61-6.53-2.91-7.16-2.91s-3.1-1.15-5.5-2.56c-1.71-1.01-2.63-1.71-2.62-1.94 0-0.03 0.02-0.05 0.06-0.06zm20.88 1.41c0.28-0.17 2.09 0.79 4.34 2.53 1.1 0.84 1.55 1.58 1 1.59-0.55 0.02-2.35-1.13-4-2.53-1.01-0.86-1.44-1.35-1.41-1.53 0.01-0.03 0.04-0.05 0.07-0.06zm-23.66 0.21c0.55 0 2.12 0.66 3.5 1.44 1.37 0.79 2.05 1.41 1.5 1.41s-2.13-0.62-3.5-1.41c-1.03-0.59-1.67-1.09-1.69-1.31-0.01-0.07 0.05-0.13 0.19-0.13zm-5.16 0.38c0.59-0.04 2.37 0.59 4.25 1.53 2.16 1.08 3.46 1.94 2.91 1.94-1.53 0-7.09-2.56-7.34-3.31-0.02-0.05-0.01-0.1 0.03-0.13 0.03-0.03 0.07-0.03 0.15-0.03zm12 2.59c0.05-0.01 0.09 0 0.16 0 0.55 0 1.67 0.44 2.5 0.97 0.82 0.54 1.05 0.97 0.5 0.97s-1.68-0.43-2.5-0.97c-0.54-0.35-0.84-0.67-0.81-0.84 0.01-0.06 0.07-0.1 0.15-0.13zm15.35 6.97c0.58 0 1.62 0.68 2.31 1.5 1.56 1.88 1.07 1.87-1.44-0.03-0.67-0.5-1.09-0.95-1.15-1.22-0.04-0.16 0.06-0.25 0.28-0.25zm-100 1l0.28 0.06c0.03 0.03 0.05 0.05 0.09 0.07 0.69 0.2 1.32 0.51 1.94 0.78 0.52 0.39 1.19 0.82 2.16 1.03 0.97 0.29 1.19 0.58 2 0.87 0.11 0.05 0.25 0.1 0.37 0.13 1.24 0.27 2.29 0.82 3.53 1.06 1.07 0 1.94 0.58 1.94 1.28 0 0.71 0.7 2.27 1.56 3.5 0.74 1.06 1.72 1.75 2.35 1.69h0.03c0.14 0.09 0.26 0.21 0.4 0.31 0.48 0.52 1.12 0.66 1.75 0.88 0.14 0.02 0.27 0.04 0.41 0.06 0.28 0.22 0.69 0.4 1.25 0.53 0.96 0.22 2.42 0.07 3.25-0.31 0.82-0.38 2.06-0.47 2.75-0.22 1.35 0.66 1.72 0.87 2.22 1l16.9 7.81 0.94 0.35c3.37 1.27 6.36 2.42 9.1 3.56 2 1.07 2.84 1.49 3.03 1.31 1.42 0.64 2.74 1.33 4 2 0.9 0.65 1.62 1.02 2.12 1.13 0.02 0 0.04 0.03 0.06 0.03 2.17 1.3 4.09 2.72 5.85 4.34 1.96 1.82 3.69 3.74 5.22 5.69 0.27 0.44 0.51 0.75 0.75 1 0.78 1.07 1.53 2.13 2.18 3.22 0.01 0.01 0 0.02 0 0.03 0.12 0.48 0.32 0.91 0.54 1.12 0.08 0.09 0.16 0.16 0.25 0.22 0.44 0.82 0.84 1.63 1.21 2.44-0.05 0.39 0 0.89 0.22 1.47 0.19 0.48 0.5 0.9 0.85 1.19 0.4 1.14 0.72 2.28 0.97 3.4-0.01 0.4 0.1 0.86 0.28 1.35 0.1 0.6 0.16 1.22 0.22 1.81 0.61 7.2-2.16 13.34-9 16.78-2.13-1.99-4.33-4.08-6.63-6.28-5.75-5.5-13.74-12.71-17.75-16-2.95-2.42-5.48-4.84-6.62-6.25 1.02 0.69 1.78 1.35 3.09 1.53 1.63 0.86 3.46 1.88 5.37 2.94 2.31 1.28 4.63 2.54 6.66 3.34 1.01 0.4 1.95 0.69 2.81 0.81 0.15 0.03 0.29 0.06 0.44 0.07h0.06c2.74 0.35 3.96-0.82 3.85-3.51-0.5-2.82-2.97-3.91-5.28-4.52-0.93-0.44-1.86-0.87-2.85-1.32-1.42-0.99-3.32-1.5-5.03-2.25-0.47-0.29-1.07-0.57-1.72-0.78-6.42-2.84-13.5-5.9-20.62-9.03-0.58-0.34-1.05-0.55-1.41-0.62-2.92-1.29-5.78-2.57-8.62-3.85-0.14-0.08-0.26-0.16-0.41-0.25-0.66-0.35-1.1-0.54-1.41-0.56-6.35-2.87-12.38-5.68-17.43-8.25-0.11-1.12-0.2-2.24-0.22-3.06-0.02-0.57-0.07-1.24-0.13-1.88 0.12-0.79 0.07-1.46-0.15-1.87-0.05-0.34-0.14-0.64-0.19-0.88-0.25-1.16-0.42-3.38-0.47-5.94-0.04-1.94-0.13-3.65-0.25-4.28 0.2-0.18 0.51-0.28 0.94-0.28zm117.81 1.5l2.25 1.91c1.24 1.05 2.25 2.06 2.25 2.25 0 0.8-0.8 0.21-2.59-1.91l-1.91-2.25zm-14 0.31l4.25 3.16c2.34 1.75 4.25 3.37 4.25 3.59 0 0.75-0.45 0.44-4.5-3.18l-4-3.57zm-1.72 1.19c0.48 0 1.93 1.13 3.22 2.5 1.29 1.38 2.17 2.49 1.94 2.47-0.85-0.06-5.38-4.37-5.25-4.91 0-0.03 0.04-0.06 0.09-0.06zm13.22 3c-0.55 0-1 0.45-1 1s0.45 1 1 1 1-0.45 1-1-0.45-1-1-1zm1.41 8.25c0.06-0.01 0.17 0.03 0.34 0.13 1.05 0.61 6.98 8.86 9.62 13.37 1.74 2.96-0.41 0.92-2.37-2.25-2.32-3.74-3.6-4.61-2.59-1.75 0.33 0.96-0.74 0.18-2.38-1.75-1.77-2.08-2.86-3.74-3-4.44-0.11-0.53 0.36-0.48 1.47 0.44 2.06 1.71 1.89 0.11-0.25-2.34-0.72-0.83-1.03-1.37-0.84-1.41zm14.62 4.06c0.17-0.2 1.51 1.51 3.13 3.97 1.71 2.63 2.91 4.96 2.68 5.19-0.5 0.51-5.86-7.83-5.84-9.09 0-0.03 0.02-0.05 0.03-0.07zm-11.84 0.88c-0.12 0.05-0.19 0.2-0.19 0.44 0 0.57 0.29 1.32 0.66 1.68 0.36 0.37 0.9 0.44 1.18 0.16 0.29-0.28 0-1.04-0.65-1.69-0.36-0.36-0.67-0.56-0.88-0.59-0.05-0.01-0.08-0.02-0.12 0zm-118.78 1.37c1.95 0.98 4.02 2.01 6.18 3.04 0.14 0.07 0.26 0.11 0.41 0.18 0.98 0.47 1.88 0.88 2.72 1.25 2.47 1.15 5 2.32 7.62 3.5 0.23 0.38 0.55 0.67 0.91 0.82 0.8 0.32 1.43 0.44 1.91 0.43 1.06 0.48 2.11 0.96 3.18 1.44 0.63 0.37 1.15 0.61 1.57 0.69 10.39 4.58 21.03 9.12 29.68 13.03 0.53 0.44 1.21 0.61 1.85 0.84 1.33 0.61 2.65 1.21 3.87 1.78 0.28 0.25 0.57 0.5 0.94 0.75 0.55 0.39 1 0.7 1.41 0.94 0.37 0.5 0.6 0.97 0.62 1.31 0.02 0.28-0.01 0.42-0.12 0.54-0.17 1-2.61 0.23-4.63-0.72-0.74-0.3-1.56-0.68-2.41-1.1-0.81-0.6-2.11-1.36-3.62-2.09-0.53-0.26-1.03-0.47-1.5-0.66-1.91-1.07-3.78-2.12-5.38-2.93-0.95-0.49-1.81-0.87-2.56-1.13-0.98-0.43-1.98-0.26-3-0.47-1.87 0-9.02-3.65-10.09-5.15-0.89-1.26-25.36-12.84-27.13-12.85-0.91 0-1.84-0.53-2.06-1.19-0.03-0.09-0.07-0.16-0.12-0.21-0.06-0.55-0.12-1.09-0.22-1.79-0.01-0.07-0.02-0.17-0.03-0.25zm-55 12.69c0.08 0.06 0.16 0.11 0.25 0.16l0.37 2.78v0.06c-0.01 0.08-0.03 0.17-0.03 0.25 0 0.83-0.9 2.28-2 3.22-0.49 0.42-0.93 0.86-1.28 1.28-3.23 1.3-7.45 2.3-11.28 2.31-0.37-0.19-0.87-0.31-1.44-0.31-0.37 0-0.7 0.07-1 0.16-1.3-0.16-2.48-0.46-3.53-0.91-0.4-0.33-0.96-0.64-1.53-0.81-1.06-0.74-1.9-1.7-2.44-2.97 0.58-1.87-0.15-3.4-1.31-3.34-0.09 0-0.19 0.04-0.28 0.06l-0.07-1.31c0.17 0.07 0.35 0.12 0.53 0.12 1.23 1.45 2.92 2.44 4.85 3.03 0.03 0.01 0.06 0.03 0.09 0.03 0.72 0.4 1.33 0.57 1.56 0.38h0.04c1.34 0.26 2.74 0.36 4.18 0.34 0.44 0.14 1.07 0.22 1.85 0.22 1.33 0 2.45-0.29 2.87-0.69 1.3-0.24 2.55-0.56 3.75-0.96 0.46 0 1.15-0.18 1.94-0.54 0.98-0.44 1.72-0.92 2-1.25 0.69-0.41 1.36-0.83 1.91-1.31zm79.68 3c0.04-0.06 0.58 0.2 1.66 0.72 1.24 0.6 2.25 1.31 2.25 1.56 0 0.77-0.52 0.54-2.56-1.09-0.94-0.75-1.39-1.13-1.35-1.19zm-30.59 0.81c0.55 0 2.12 0.66 3.5 1.44 1.37 0.79 2.05 1.41 1.5 1.41s-2.13-0.62-3.5-1.41c-1.03-0.59-1.67-1.09-1.69-1.31-0.01-0.07 0.05-0.13 0.19-0.13zm-75.69 0.66c0.14 0.06 0.28 0.14 0.41 0.25l-0.03 0.03 0.34 0.94c0.16 0.42 0.35 0.81 0.56 1.19 0.05 0.37 0.13 0.54 0.28 0.43 2.03 3.14 5.8 4.51 9.75 4.72 1.89 0.11 3.84-0.04 5.75-0.34h0.04c0.49 0.03 1.18-0.1 2.06-0.41 1.82-0.4 3.55-0.95 5.12-1.56 0.15-0.06 0.32-0.1 0.47-0.16l0.94-0.37-0.16-0.41c0.12-0.16 0.21-0.33 0.28-0.53 0.26-0.67 1.03-1.25 1.88-1.44l0.44 3.47c-0.06 0.37-0.16 0.72-0.28 1.03-7.67 5.21-15.53 5.7-20.97 3.69-2.77-1.02-4.91-2.67-6.1-4.62-0.25-0.42-0.45-0.84-0.62-1.28 0.01-0.12 0.03-0.23 0.03-0.35 0-0.71-0.19-1.33-0.47-1.69-0.01-0.2-0.03-0.41-0.03-0.62 0.01-0.64 0.12-1.3 0.31-1.97zm55.31 8.91c0.34 0.66 0.28 1.77-0.18 3-0.5 1.3-0.54 2.15-0.13 2.34-0.52 0.41-1.09 0.82-1.72 1.19-0.46 0.13-0.93 0.37-1.31 0.65-1.37 0.67-2.87 1.25-4.47 1.66-0.09 0.02-0.19 0.04-0.28 0.06-0.36 0.06-0.72 0.12-1.06 0.22-0.04 0.01-0.09 0.02-0.13 0.03-1.17 0.23-2.36 0.4-3.53 0.44-0.17 0.01-0.33 0-0.5 0-0.51-0.13-1.12-0.22-1.81-0.22-0.32 0-0.62 0.03-0.91 0.06-1.53-0.19-2.98-0.53-4.25-1.15 0-0.01-0.02-0.02-0.03-0.03-0.24-0.39-0.71-0.66-1.31-0.78-1.08-0.76-1.97-1.73-2.63-2.94 0.09-0.39 0.15-0.74 0.25-1.31 0.16-0.88 0.31-1.53 0.44-1.94 0.33 0.25 0.68 0.48 1.06 0.69 0.08 0.04 0.15 0.08 0.22 0.12 0.4 0.26 0.86 0.49 1.38 0.63 0.52 0.13 0.94 0.23 1.31 0.28 1.75 0.38 3.78 0.51 5.97 0.4 2.2-0.1 4.57-0.46 6.97-1.06h0.03c1.4-0.01 2.73-0.45 3.56-1.06 1.03-0.37 2.05-0.82 3.06-1.28zm43.19 1.81c0.81-0.08 1.65 0.14 2.1 0.59 0.78 0.79 0.53 0.89-0.91 0.35-1.78-0.67-1.85-0.56-0.63 0.93 1.66 2.04 1.17 2.16-1.31 0.35-0.88-0.65-1.34-0.99-1.34-1.25-0.01-0.27 0.44-0.45 1.31-0.78 0.25-0.1 0.51-0.16 0.78-0.19zm115.06 1.75c0.07-0.03 0.14-0.02 0.22 0.06 0.34 0.33 0.39 1.22 0.1 1.94-0.32 0.8-0.58 0.54-0.63-0.63-0.03-0.79 0.11-1.3 0.31-1.37zm-111.25 0.22c0.26-0.08 1.23 0.24 2.88 1.09 1.65 0.86 3 1.77 3 2.03 0 0.65-0.11 0.58-3.25-1.12-1.84-1-2.72-1.71-2.69-1.94 0.01-0.03 0.02-0.05 0.06-0.06zm-73.65 0.53c0.09 0.11 0.14 0.19 0.25 0.31 0.14 0.16 0.28 0.28 0.4 0.41l0.04 0.09c1.05 2.08 2.67 3.59 4.59 4.6l0.06 0.03c0.48 0.33 0.78 0.48 0.94 0.43 0.99 0.42 2.03 0.71 3.12 0.91 0.17 0.03 0.34 0.07 0.5 0.09 0.31 0.07 0.64 0.1 1 0.13 0.22 0.02 0.41 0.05 0.63 0.06 0.78 0.06 1.58 0.06 2.37 0.03 0.76-0.03 1.53-0.09 2.29-0.18 0.01 0 0.02-0.01 0.03 0 0.75 0.16 2.07-0.1 3.75-0.75 0.04-0.02 0.08-0.05 0.12-0.07 2.84-0.81 5.41-2.09 7.38-3.65l0.37 3.65c-0.06 0.04-0.12 0.05-0.19 0.1-0.63 0.39-1.17 0.93-1.56 1.47-0.79 0.52-1.63 0.99-2.47 1.4-0.01 0.01-0.02 0-0.03 0-1.35 0.04-2.93 0.68-3.65 1.38-0.02 0.01-0.03 0.02-0.04 0.03-1.14 0.3-2.33 0.51-3.59 0.62-0.18 0.02-0.35 0.02-0.53 0.03-0.49-0.05-1.07-0.09-1.84-0.09-1.08 0-2.34-0.05-3.5-0.16-0.08 0-0.15-0.02-0.22-0.03-1.78-0.28-3.48-0.73-4.94-1.37-0.72-0.31-1.35-0.65-1.94-1.03-0.02-0.02-0.04-0.05-0.06-0.07-0.37-0.37-0.75-0.62-1.09-0.81-0.78-0.68-1.35-1.47-1.69-2.31 0.06-0.49-0.09-1.21-0.41-2.13v-0.43h-0.15c-0.01-0.01 0-0.02 0-0.03-0.06-0.15-0.13-0.26-0.19-0.38-0.17-0.78-0.06-1.51 0.25-2.28zm102.03 2.56l2.75 2.41c1.51 1.33 2.75 2.57 2.75 2.75 0 0.78-0.8 0.16-3.06-2.41l-2.44-2.75zm83.91 0.94c0.02-0.01 0.04-0.01 0.06 0 0.06 0.02 0.12 0.14 0.19 0.31 0.27 0.69 0.27 1.81 0 2.5-0.28 0.69-0.5 0.13-0.5-1.25 0-0.9 0.1-1.48 0.25-1.56zm-131 4.66c0.33 0.74 0.39 1.91 0.09 2.84-0.16 0.5-0.21 0.88-0.22 1.19-1.88 2.28-4.12 3.89-6.5 4.9h-0.28c-1.1 0-2.68 0.44-3.5 0.97-0.12 0.08-0.16 0.13-0.25 0.19-0.98 0.14-1.95 0.19-2.91 0.16-0.03-0.01-0.05-0.02-0.09-0.04-0.48-0.12-1.12-0.18-1.75-0.18h-0.19c-3.37-0.57-6.38-2.22-8.31-4.82-0.04-0.29-0.07-0.62-0.06-1 0-0.37 0.03-0.78 0.06-1.25 0.02-0.42 0.05-0.81 0.06-1.18 0.65 0.29 1.3 0.55 1.94 0.78 0.32 0.25 0.75 0.45 1.25 0.56 0.67 0.15 1.17 0.22 1.53 0.22 1.7 0.36 3.38 0.51 5.06 0.47 1.05 0.19 2.49 0.08 3.41-0.31 1.57-0.25 3.16-0.66 4.72-1.16 0.52-0.04 1.19-0.29 1.81-0.63 1.38-0.51 2.77-1.07 4.13-1.71zm3.9 1.56c0.06 0.05 0.11 0.09 0.16 0.15 0.25 0.34 0.36 0.93 0.28 1.75-0.02 0.17-0.06 0.35-0.09 0.54-0.33 0.33-0.64 1.17-1.1 2.65-0.1 0.33-0.15 0.64-0.19 0.91 0 0.01 0.01 0.02 0 0.03l-0.09 0.22c-0.53 1.32-1.45 2.54-2.66 3.59-0.48 0.25-0.94 0.56-1.18 0.91-0.97 0.67-2.07 1.25-3.25 1.75-0.13-0.03-0.27-0.06-0.41-0.06-0.79 0-1.72 0.41-2.28 0.96-0.47 0.13-0.93 0.25-1.41 0.35-0.51 0.1-1.03 0.18-1.56 0.25-0.15-0.08-0.35-0.14-0.62-0.13-0.24 0.02-0.52 0.07-0.85 0.16-0.12 0.03-0.22 0.08-0.34 0.12-1.59 0.08-3.2 0.01-4.72-0.25-0.54-0.32-1.31-0.5-2.03-0.53h-0.22c-1.58-0.47-3.03-1.15-4.28-2.06l-0.03-0.03c-0.37-0.41-0.89-0.84-1.44-1.19-1.1-0.68-2-2.26-2-3.5 0-0.58-0.09-1.1-0.25-1.5 0.09-0.51 0.22-0.96 0.44-1.25 0.11-0.15 0.22-0.23 0.34-0.31 0.27 0.43 0.57 0.86 0.91 1.31 1.9 2.5 3.49 3.74 4.18 3.44 5.03 2.74 11.91 2.63 17.5-1 0.52-0.12 1.03-0.5 1.38-0.97 0.02-0.01 0.01-0.05 0.03-0.06 1.34-1.06 2.59-2.33 3.69-3.85 0.34-0.3 0.71-0.67 1.12-1.15 0.44-0.51 0.76-0.91 0.97-1.25zm52.19 0.84l3.25 2.94c1.79 1.61 3.25 3.08 3.25 3.25 0 0.77-0.83 0.09-3.56-2.94l-2.94-3.25zm-19.5 1.6c0.01-0.01 0.05-0.01 0.09 0 0.19 0.03 0.67 0.26 1.41 0.65 1.1 0.58 3.1 2.35 4.47 3.91 1.36 1.56 1.85 2.28 1.06 1.59-2.32-2.01-3.51-1.43-1.53 0.75 3 3.32 1.27 2.21-3.56-2.28-1.88-1.74-2.98-2.8-2.91-2.81 0.02-0.01 0.18 0.1 0.47 0.34 2.96 2.45 4.2 2.18 1.91-0.4-1.03-1.16-1.52-1.68-1.41-1.75zm108.44 0.75c0.02-0.02 0.04-0.02 0.06 0 0.05 0.03 0.12 0.16 0.19 0.4 0.25 0.96 0.25 2.54 0 3.5s-0.47 0.18-0.47-1.75c0-1.26 0.08-2.04 0.22-2.15zm-81.44 5.15c0.05-0.05 0.46 0.26 1.25 0.88 0.96 0.75 1.75 1.54 1.75 1.75 0 0.82-0.82 0.29-2.13-1.38-0.62-0.79-0.92-1.2-0.87-1.25zm81.53 4.31c0.06 0 0.12 0.29 0.19 0.94 0.21 2.08 0.22 5.23 0 7-0.22 1.78-0.41 0.1-0.41-3.75 0-2.64 0.1-4.17 0.22-4.19zm-71.03 5.19l4.75 4.44c2.61 2.45 4.75 4.59 4.75 4.75 0 0.75-0.89-0.02-5.03-4.44l-4.47-4.75zm57.25 5.56c0.14 0.03 0.23 0.53 0.22 1.5-0.01 1.06-0.48 2.62-1.03 3.44-0.37 0.55-0.61 0.74-0.66 0.5s0.07-0.9 0.31-2c0.47-2.07 0.85-3.24 1.1-3.4 0.02-0.02 0.04-0.04 0.06-0.04zm-73.25 1.44l2.25 1.91c1.24 1.05 2.25 2.06 2.25 2.25 0 0.8-0.8 0.21-2.59-1.91l-1.91-2.25zm30 5l2.75 2.41c1.51 1.33 2.75 2.57 2.75 2.75 0 0.78-0.8 0.16-3.06-2.41l-2.44-2.75zm-23.38 1.63c0.24 0.03 0.79 0.39 1.44 0.93 1.1 0.91 1.78 0.97 2.25 0.22 0.41-0.66 3.03 1.01 6.69 4.28 6.35 5.69 7.41 7.42 1.5 2.44-4.12-3.47-6.13-3.95-3.41-0.81 1.05 1.21-0.45 0.24-3.34-2.16-2.89-2.39-5.25-4.55-5.25-4.81 0-0.06 0.04-0.1 0.12-0.09zm3.88 1.87c-0.05 0.05 0.25 0.46 0.87 1.25 0.76 0.96 1.55 1.75 1.75 1.75 0.83 0 0.29-0.82-1.37-2.12-0.79-0.62-1.2-0.93-1.25-0.88zm25.5 1.88l3.5 1.68c1.92 0.93 3.68 1.86 3.91 2.07 0.22 0.2-0.23 0.35-1 0.34-0.78-0.01-2.54-0.94-3.91-2.06l-2.5-2.03zm32.5 1.12c0.05 0.05-0.25 0.46-0.88 1.25-0.75 0.96-1.54 1.75-1.75 1.75-0.2 0-0.33-0.06-0.37-0.15-0.12-0.3 0.5-0.99 1.75-1.97 0.79-0.62 1.2-0.93 1.25-0.88zm-13.13 5.1c0.91 0 1.76 0.06 2.38 0.18 1.23 0.24 0 0.45-2.75 0.44-1.89 0-2.98-0.08-2.97-0.22 0-0.06 0.24-0.14 0.72-0.22 0.76-0.11 1.72-0.19 2.62-0.18zm27.69 2.9c0.28 0 0.03 0.9-0.56 2s-1.29 2-1.56 2c-0.07 0-0.12-0.05-0.13-0.15-0.02-0.31 0.25-1.02 0.69-1.85 0.59-1.1 1.29-2 1.56-2zm-56.37 1.31c0.08-0.03 0.61 0.22 1.65 0.72 1.29 0.63 2.08 1.4 1.75 1.72-0.32 0.33 0.15 1.4 1.07 2.41 1.98 2.19 1.45 2.36-1.22 0.4-1.07-0.78-1.59-1.75-1.19-2.15s-0.08-1.35-1.03-2.13c-0.58-0.47-0.94-0.74-1.03-0.87-0.04-0.05-0.02-0.09 0-0.1zm5.34 3.35c0.43 0.01 2.05 0.67 4.22 1.75 2.89 1.44 5.25 2.83 5.25 3.09 0 0.66 0.03 0.68-4.47-1.56-2.18-1.09-4.43-2.46-5-3.06-0.07-0.08-0.12-0.12-0.12-0.16-0.01-0.04 0.05-0.06 0.12-0.06zm2.06 3.78c0.08-0.02 0.17-0.02 0.28 0 0.16 0.02 0.34 0.07 0.57 0.16 0.85 0.32 1.56 0.78 1.56 1 0 0.81-1.91 0.35-2.5-0.6-0.05-0.08-0.11-0.15-0.13-0.22-0.05-0.19 0.05-0.3 0.22-0.34zm12.66 1.56c0.96-0.01 1.75 0.45 1.75 1 0 1.22-0.11 1.22-2 0-0.64-0.41-0.97-0.67-0.94-0.81 0.04-0.15 0.44-0.18 1.19-0.19zm8.75 1.13c0.63 0 1.27 0.06 1.75 0.18 0.96 0.26 0.17 0.44-1.75 0.44-1.44 0-2.25-0.09-2.16-0.25 0.03-0.05 0.17-0.12 0.41-0.19 0.48-0.12 1.11-0.18 1.75-0.18zm-2 2c0.45 0 0.91 0.08 1.25 0.22 0.69 0.27 0.12 0.5-1.25 0.5-1.03 0-1.63-0.14-1.56-0.32 0.02-0.06 0.14-0.11 0.31-0.18 0.34-0.14 0.8-0.22 1.25-0.22z"/>
  </g>
  <metadata>
    <rdf:RDF>
      <cc:Work>
        <dc:format>image/svg+xml</dc:format>
        <dc:type rdf:resource="http://purl.org/dc/dcmitype/StillImage"/>
        <cc:license rdf:resource="http://creativecommons.org/licenses/publicdomain/"/>
        <dc:publisher>
          <cc:Agent rdf:about="http://openclipart.org/">
            <dc:title>Openclipart</dc:title>
          </cc:Agent>
        </dc:publisher>
        <dc:title>trumpet</dc:title>
        <dc:date>2009-03-25T15:38:03</dc:date>
        <dc:description>Simple lineart of  trumpet</dc:description>
        <dc:source>http://openclipart.org/detail/23308/trumpet-by-tom-23308</dc:source>
        <dc:creator>
          <cc:Agent>
            <dc:title>tom</dc:title>
          </cc:Agent>
        </dc:creator>
        <dc:subject>
          <rdf:Bag>
            <rdf:li>band</rdf:li>
            <rdf:li>brass</rdf:li>
            <rdf:li>clip art</rdf:li>
            <rdf:li>clipart</rdf:li>
            <rdf:li>externalsource</rdf:li>
            <rdf:li>image</rdf:li>
            <rdf:li>instument</rdf:li>
            <rdf:li>line art</rdf:li>
            <rdf:li>media</rdf:li>
            <rdf:li>music</rdf:li>
            <rdf:li>png</rdf:li>
            <rdf:li>public domain</rdf:li>
            <rdf:li>sound</rdf:li>
            <rdf:li>svg</rdf:li>
            <rdf:li>trumpet</rdf:li>
            <rdf:li>uspto</rdf:li>
          </rdf:Bag>
        </dc:subject>
      </cc:Work>
      <cc:License rdf:about="http://creativecommons.org/licenses/publicdomain/">
        <cc:permits rdf:resource="http://creativecommons.org/ns#Reproduction"/>
        <cc:permits rdf:resource="http://creativecommons.org/ns#Distribution"/>
        <cc:permits rdf:resource="http://creativecommons.org/ns#DerivativeWorks"/>
      </cc:License>
    </rdf:RDF>
  </metadata>
</svg>
