<?xml version="1.0"?>
<svg xmlns:rdf="http://www.w3.org/1999/02/22-rdf-syntax-ns#" xmlns="http://www.w3.org/2000/svg" xmlns:cc="http://web.resource.org/cc/" xmlns:xlink="http://www.w3.org/1999/xlink" xmlns:dc="http://purl.org/dc/elements/1.1/" xmlns:svg="http://www.w3.org/2000/svg" id="violin_xA0_Image_1_" xml:space="preserve" viewBox="0 0 221.04 72" version="1.1" x="0px" y="0px" enable-background="new 0 0 221.04 72">
<g clip-rule="evenodd" fill-rule="evenodd">
	<path d="m119.52 12.24h0.96c0.102 0.501-0.164 0.635-0.24 0.96-0.63 0.072-0.79-0.332-0.72-0.96z"/>
	<path d="m121.44 12.72c0.422 0.058 0.547 0.413 0.48 0.96-0.42-0.217-0.92-0.537-0.48-0.96z"/>
	<path d="m122.64 12.72c0.903 0.057 0.936 0.984 1.2 1.68-0.91-0.049-0.83-1.089-1.2-1.68z"/>
	<path d="m126 12.96c1.084 0.755 0.961 2.718 1.68 3.84-1.18-0.664-1.41-2.267-1.68-3.84z"/>
	<path d="m124.56 13.2c0.979 0.22 1.059 1.341 1.2 2.4-0.75-0.454-0.93-1.471-1.2-2.4z"/>
	<path d="m200.64 16.32c-0.982 0.811-1.886-0.505-2.64-0.72 0.42-0.934 1.89 0.466 2.64 0.72z"/>
	<path d="m196.8 16.56c0.006-0.233 0.294-0.187 0.479-0.24 1.677 0.803 3.618 1.342 4.8 2.64-1.96-0.602-3.41-1.706-5.28-2.4z"/>
	<path d="m196.32 17.52c0.538 0.263 1.203 0.397 1.681 0.72-0.18 0.319-1.87 0.122-1.68-0.72z"/>
	<path d="m198.24 18.72c1.485-0.123 3.739 1.059 4.8 2.16-1.86-0.456-3.11-1.534-4.8-2.16z"/>
	<path d="m196.32 19.44c0.783-0.983 1.729 0.369 2.4 0.72 1.435 0.75 4.165 0.938 4.319 2.64-1.88-1.476-4.43-2.293-6.72-3.36z"/>
	<path d="m196.32 20.88c1.222-0.153 2.765 0.628 4.08 1.2 1.285 0.558 2.883 1.169 3.601 2.16-2.75-0.931-5.16-2.199-7.68-3.36z"/>
	<path d="m196.32 22.08c3.016 0.745 5.475 2.045 7.92 3.36-1.052 0.797-2.547-0.858-3.84-1.44-1.46-0.66-3.38-0.67-4.08-1.92z"/>
	<path d="m126.24 24c0.092-0.457 0.306 0.153 0.24 0.48-0.09 0.457-0.31-0.153-0.24-0.48z"/>
	<path d="m135.12 28.08c0.97 0.401 0.121 1.673 1.44 0.72 0.269 1.069-0.737 0.863-1.2 1.2 0.216 0.904 0.299 1.941 0.72 2.64-0.213-0.187-0.542-0.258-0.96-0.24-0.24-2.029 0.12-2.99 0-4.32z"/>
	<path d="m134.16 28.56c0.276-0.776 0.272 0.645 0.24 0.96-0.28 0.776-0.27-0.645-0.24-0.96z"/>
	<path d="m194.64 28.32h0.479v0.48h-0.479v-0.48z"/>
	<path d="m195.6 28.32h0.479v0.48h-0.479v-0.48z"/>
	<path d="m11.76 30c0.062-0.562 1.054-0.138 1.2 0-0.204 0.704-0.604-0.312-1.2 0z"/>
	<path d="m178.08 32.64c0.17 0.894 0.556 3-0.479 3.12-0.14-1.341 0.55-1.85 0.48-3.12z"/>
	<path d="m179.52 32.88c0.196 0.212 0.084 2.153-0.24 2.64-0.94-0.129 0.3-1.829 0.24-2.64z"/>
	<path d="m176.64 33.12c0.664 0.209 0.178 2.711-0.48 3.12-0.23-1.433 0.56-1.835 0.48-3.12z"/>
	<path d="m130.56 33.6c0.176-0.427 0.437-0.035 0.72 0 0.518 2.123 2.055 3.225 2.4 5.52-0.848-0.498-1.24-1.756-1.68-2.64-0.47-0.95-0.95-1.953-1.44-2.88z"/>
	<path d="m137.04 33.36c1.379 1.022 1.949 2.851 2.4 4.8-0.92-1.482-1.81-2.986-2.4-4.8z"/>
	<path d="m129.36 33.84c1.271 1.529 2.347 3.253 2.88 5.521-1.22-1.585-2.27-3.335-2.88-5.521z"/>
	<path d="m132.72 33.84c1.277 1.068 2.328 3.557 2.399 5.04-0.88-1.601-1.97-2.992-2.4-5.04z"/>
	<path d="m195.36 34.08c0.537 0.104 0.098 1.183 0.24 1.68-1.27-0.007-0.23-0.934-0.24-1.68z"/>
	<path d="m192 34.32v0.96c-0.95 0.166-0.79-1.01 0-0.96z"/>
	<path d="m12.48 34.56c1.136-0.332 1.452 0.877 0.96 1.44-1.02 0.22-1.025-0.575-0.96-1.44z"/>
	<path d="m184.32 34.56c0.102 0.501-0.164 0.635-0.24 0.96-0.7-0.043-0.58-1.141 0.24-0.96z"/>
	<path d="m188.88 34.56h0.479v0.48h-0.479v-0.48z"/>
	<path d="m126.72 35.28c1.383 1.017 1.915 2.885 2.64 4.56-1.3-1.097-1.71-3.094-2.64-4.56z"/>
	<path d="m128.88 35.28c0.538 0.262 0.422 1.178 0.96 1.44-0.42 0.558-1.12-0.623-0.96-1.44z"/>
	<path d="m125.76 36c0.836 1.403 1.786 2.694 1.92 4.8-0.92-1.187-1.89-3.509-1.92-4.8z"/>
	<path d="m124.08 36.24c1.186 1.295 1.746 3.214 2.4 5.04-0.949-0.371-1.018-1.735-1.44-2.641-0.39-0.829-1.41-1.562-0.96-2.399z"/>
	<path d="m141.6 36.24c0.75-0.11 0.768 0.513 0.72 1.2-0.42-0.219-0.83-0.446-0.72-1.2z"/>
	<path d="m122.4 36.72c1.03 1.129 1.63 2.69 2.16 4.32-1.06-0.97-2.31-2.93-2.16-4.32z"/>
	<path d="m200.64 42.48c-1.769-1.673-3.185-3.695-5.28-5.04 0.569-0.834 1.491 0.586 2.16 1.199 1.11 1.023 2.66 2.101 3.12 3.841z"/>
	<path d="m120.96 37.44c1.312 0.207 0.937 2.103 1.439 3.119-0.81-0.707-1.24-1.801-1.44-3.119z"/>
	<path d="m119.76 37.68c0.885 1.305 2.019 3.542 1.92 5.04-0.88-1.313-1.78-3.781-1.92-5.04z"/>
	<path d="m113.52 37.92c1.84 1.521 2.383 4.338 3.6 6.48-1.82-1.541-2.42-4.3-3.6-6.48z"/>
	<path d="m106.8 38.16c0.848 2.111 1.933 3.987 2.88 6-1.46-1.505-2.66-3.263-2.88-6z"/>
	<path d="m108.48 38.16c0.322 0.158 0.447 0.513 0.48 0.96-0.42-0.058-0.55-0.413-0.48-0.96z"/>
	<path d="m111.84 38.16c0.868 1.691 1.797 3.322 2.399 5.28-1.59-0.836-2.21-3.836-2.4-5.28z"/>
	<path d="m117.6 38.16c0.388-0.067 0.413 0.227 0.72 0.24 0.139 2.021 1.664 2.655 1.92 4.56-1.33-1.149-1.84-3.117-2.64-4.8z"/>
	<path d="m194.88 38.16c1.085 0.35 1.823 1.529 2.64 2.399 0.769 0.819 2.03 1.648 1.92 2.641-0.725-0.517-1.069-1.302-1.68-1.92-0.86-0.872-2.17-1.8-2.88-3.12z"/>
	<path d="m104.88 38.4c0.77 0.271 0.68 1.399 0.96 2.159-0.77-0.27-0.68-1.399-0.96-2.159z"/>
	<path d="m130.08 38.64c0.098-0.598 0.931-0.014 0.721 0.48-0.53 0.132-0.34-0.458-0.72-0.48z"/>
	<path d="m142.56 38.4c0.663 0.141 1.002 1.327 0.72 1.68-0.58-0.219-0.64-0.965-0.72-1.68z"/>
	<path d="m101.28 38.64c1.203 0.717 1.061 2.78 1.68 4.08-1.12-0.679-1.45-3.29-1.68-4.08z"/>
	<path d="m103.44 38.64c0.929 0.432 0.314 2.406 0.96 3.12-0.78 0.374-0.6-2.276-0.96-3.12z"/>
	<path d="m139.44 38.64c0.304 0.416 0.812 0.629 0.72 1.44-1.06 0.338-0.65-0.79-0.72-1.44z"/>
	<path d="m197.28 42.24c-1.334-0.108-2.315-2.642-4.08-3.12 1.05-0.98 3.12 2.065 4.08 3.12z"/>
	<path d="m162 39.12c0.902 0.057 0.936 0.984 1.199 1.68-0.6-0.362-1.1-0.822-1.2-1.68z"/>
	<path d="m193.2 40.08c1.868 1.492 3.676 3.045 4.801 5.28-1.423-0.658-1.99-2.171-2.881-3.36-0.93-0.351-1.83-0.726-1.92-1.92z"/>
	<path d="m200.88 40.08c0.314 0.085 0.377 0.423 0.72 0.479 0.044 0.204-0.094 0.227-0.24 0.24h-0.479v-0.719z"/>
	<path d="m100.08 40.32c0.632-0.072 0.788 0.332 0.72 0.96-0.627 0.067-1.032-0.088-0.96-0.721 0.2 0.045 0.23-0.092 0.24-0.239z"/>
	<path d="m122.4 40.8c0.51 0.24 1.163 0.969 0.72 1.44-0.74 0.023-0.72-0.724-0.72-1.44z"/>
	<path d="m18.72 41.04c-0.422 0.908-2.037 0.493-2.16 0.479-1.306-0.137 1.563-0.236 2.16-0.479z"/>
	<path d="m152.4 41.28c0.593-0.577 0.982 1.085 1.2 1.68-0.78-0.179-0.73-1.19-1.2-1.68z"/>
	<path d="m13.44 41.52c0.181-0.318 2.346-0.602 2.16 0.24-0.929 0.129-1.172-0.428-2.16-0.24z"/>
	<path d="m151.2 41.76c0.695 0.345 0.99 1.091 1.2 1.92-0.91-0.128-1.06-1.023-1.2-1.92z"/>
	<path d="m154.32 41.76c0.475 0.166 0.64 0.641 0.72 1.2-0.47-0.166-0.64-0.64-0.72-1.2z"/>
	<path d="m191.28 42.48c-0.32 0.683-1.067-0.186-1.439-0.24 0.33-1.041 0.99 0.019 1.44 0.24z"/>
	<path d="m192.48 41.76c0.396 0.323 0.826 0.613 0.96 1.2-0.53-0.191-0.96-0.481-0.96-1.2z"/>
	<path d="m101.52 42c0.403 1.139-1.381 1.323-1.2 0.24 0.28-0.201 0.64-0.316 1.2-0.24z"/>
	<path d="m189.12 42.96c1.531 0.309 1.956 1.725 2.881 2.64-1 0.112-2.28-1.561-2.88-2.64z"/>
	<path d="m153.36 43.2c0.817-0.178 0.396 0.884 0.96 0.96-0.4 0.691-0.97-0.445-0.96-0.96z"/>
	<path d="m191.76 43.2c1.061 0.858 2.074 1.765 2.64 3.12-0.92-0.996-2.31-1.532-2.64-3.12z"/>
	<path d="m197.76 43.44c0.632-0.073 0.787 0.332 0.72 0.96-0.35-0.209-0.76-0.359-0.72-0.96z"/>
	<path d="m104.88 43.92c-0.095-0.466 1.093-0.351 0.72 0.24h-0.48c0.04-0.204-0.09-0.226-0.24-0.24z"/>
	<path d="m185.52 43.68c1.614 0.627 2.733 1.746 3.36 3.36-1.31-0.931-2.65-1.833-3.36-3.36z"/>
	<path d="m187.68 43.68c1.613 0.627 2.733 1.746 3.359 3.36-1.47-0.772-2.16-2.316-3.36-3.36z"/>
	<path d="m111.6 44.16c-0.57 0.772-0.97-0.844 0 0z"/>
	<path d="m183.84 43.92c1.505 0.458 2.63 1.826 3.6 2.88 0.96 1.043 2.267 2.31 2.64 3.84-1.149 0.053-1.189-1.08-1.68-1.68-1.44-1.764-3.27-3.131-4.56-5.04z"/>
	<path d="m168.96 44.4c1.365 0.759 2.351 2.272 3.359 3.6 0.938 1.234 2.178 2.541 2.4 3.84-2.4-1.997-3.79-5.012-5.76-7.44z"/>
	<path d="m182.64 44.4c2.02 1.82 3.779 3.9 5.04 6.479-2.321-1.039-2.537-4.183-4.8-5.28 0.12-0.752-0.83-0.633-0.24-1.199z"/>
	<path d="m171.12 44.64c2.484 2.076 4.206 4.914 6 7.681-2.38-2.178-4.36-4.759-6-7.681z"/>
	<path d="m181.68 48c-0.865 0.298-1.594-1.601-2.4-2.16-0.272 2.354 2.757 3.482 3.12 6-2.062-1.777-3.41-4.27-4.8-6.72 0.654-0.175 0.483 0.477 0.96 0.479 1.6-1.906 1.86 1.794 3.12 2.401z"/>
	<path d="m181.44 45.12c1.315 0.489 2.407 2.315 3.36 3.6 0.771 1.04 1.534 1.945 1.92 3.12-1.71-0.54-2.101-2.557-3.12-3.84-0.7-0.882-1.71-1.436-2.16-2.88z"/>
	<path d="m174 45.36c0.387-0.068 0.413 0.227 0.72 0.239 0.573 1.122 1.658 2.185 2.399 3.36 0.714 1.133 1.518 2.35 1.681 3.36-1.09-0.431-0.991-2.05-2.16-2.4-0.38-2.016-2.19-2.608-2.64-4.559z"/>
	<path d="m161.76 46.08c1.919 0.641 2.74 2.38 3.359 4.32-1.186-0.335-1.297-1.744-1.92-2.641-0.17-0.872-1.58-0.5-1.44-1.679z"/>
	<path d="m176.88 46.56c1.398 1.722 2.899 3.341 3.84 5.521-1.002-0.542-1.467-1.929-2.16-2.88-0.67-0.915-1.88-1.629-1.68-2.641z"/>
	<path d="m195.12 47.28c0.296 0.104 0.493 0.307 0.48 0.72-0.3-0.104-0.49-0.307-0.48-0.72z"/>
	<path d="m164.88 47.52c0.975 0.673 2.24 2.176 1.92 3.36-1.1-0.656-1.53-1.989-1.92-3.36z"/>
	<path d="m192 47.52c0.841 0.199 1.123 0.957 1.439 1.681-0.91-0.133-1.39-0.693-1.44-1.681z"/>
	<path d="m160.32 47.76c0.687 0.063 1.051 1.081 0.72 1.44-0.73 0.008-0.6-0.842-0.72-1.44z"/>
	<path d="m92.4 49.2c0.742-0.022 0.715 0.725 0.72 1.439-0.728 0.008-0.598-0.841-0.72-1.439z"/>
	<path d="m180.96 60.96c1.002 0.16 0.111 1.49-0.48 0.72 0.08-0.315 0.42-0.377 0.48-0.72z"/>
	<path d="m207.84 37.68c-0.772 1.029 1.008 2.44-0.24 3.36 0.682 0.686 0.346-0.873 1.439-0.48 0.182 4.4-1.854 9.586-3.84 13.2-1.362 2.479-2.409 4.901-4.56 6.721-1.027 0.869-2.487 1.574-3.601 2.399-5.285 3.92-13.795 6.122-22.319 4.32-3.469-0.733-6.399-2.044-9.601-3.36-0.906-0.373-1.927-0.955-2.88-1.2-2.599-0.668-5.279 0.269-7.68 0-0.378-0.716-0.811-1.642-0.48-2.399-1.26-4.169-7.267-7.162-12.239-8.4-4.827-1.201-12.497-0.665-15.12 3.36 1.223 2.863-2.168 3.885-3.601 2.16-6.364-1.29-14.618 3.472-22.56 1.439-1.216-0.311-3.086-1.225-4.56-1.92-4.35-2.052-8.206-5.876-9.6-11.04-0.213-0.788-0.091-1.633-0.24-2.399-0.175-0.899-0.787-2.465-0.48-4.32-0.446-0.834-1.594-0.967-2.4-1.44v-2.16c-0.503-1.737-1.45-3.03-2.64-4.08-6.955-0.2-18.562-0.48-28.08-0.48-2.865 0-6.046-0.477-7.68 0-2.322 0.678-1.893 3.81-3.12 5.52h-4.8c-0.729-0.359-0.132-0.722-0.48-1.2-1.514 1.277-0.238 7.217-3.84 5.28 0.054-0.346 0.716-0.083 0.72-0.479-1.155-0.846-1.629-2.371-1.44-4.56 0.605-1.075 2.253-1.107 2.64-2.4-0.257-0.973-1.184-0.742-0.96-1.68-2.501 0.253-0.269-0.567 0.96-0.72 2.081-0.259 5.926 0.614 6.48 0-1.151-1.693-3.885-1.088-6.24-0.96-1.04-0.657 0.363-1.184-0.24-1.92-1.172 0.373-0.607 1.281-0.96 2.16-7.676 0.724-11.74 5.06-17.52 7.68 4.337 0.097 6.759-3.8 11.04-4.56-0.236 0.324-0.641 0.479-0.96 0.72-0.043 0.524 0.196 0.764 0.72 0.72-0.708 0.154-1.017 1.503-0.48 2.16 1.352 0.429 0.851-0.945 2.16 0 0.603-0.597-0.153-2.554 0.72-2.88-0.849-0.729-1.192 0.584-1.92 0.72-0.226-1.091 0.795-2.838 2.64-2.64 0.156 0.956-1.416 0.184-1.2 1.2 1.312 1.31 3.966-0.846 4.32 0 0.194 0.464 0.073 1.309-1.68 1.2-0.305 0.895-0.984 1.417-0.72 2.88-2.747 0.053-4.577 1.023-6 2.399 1.009 0.567 0.446 1.258 0.48 2.641 0.932 0.12 0.924-1.939 0.48-2.4 0.867-0.399 1.262 2.535 0.72 3.601-3.396 2.056-5.292-1.33-6.96-3.12-5.834 1.455-12.026-0.513-11.28-7.2 1.032-0.692 2.497-2.083 3.84-1.68-0.349 1.171-2.069 0.971-2.64 1.92-0.771 3.095 2.066 4.598 4.32 4.32 3.647-0.449 3.887-6.186 0.24-6.959 0.332-0.388 0.849-0.591 0.72-1.44-0.77-0.47-2.643-0.562-3.84-0.48-0.978 0.067-2.523 0.22-2.64 0.96 0.585 0.647 1.564-0.341 2.64 0-0.47 0.856-1.315 0.585-1.92 0.96-2.151 1.333-2.074 4.311-1.44 6.48-1.896-2.464-0.371-5.89 0.48-8.64 0.846-0.881 1.751-1.27 3.36-1.92 0.922-0.373 1.271-0.912 1.92-0.96 2.4-0.18 4.635 1.507 5.52 3.6 1.479-2.087 5.266-5.77 7.2-1.92 1.366-0.554 2.442-1.398 4.08-1.68 0.323-1.764-0.72-2.16-1.2-3.12-0.136-4.155 4.979-2.401 5.76-0.24 0.074 0.875-0.038 1.562-0.24 2.16 0.644 0.526 2.442-0.828 3.36 0 1.416 0.084-0.121 0.719 0.48 1.2 0.278-0.202 0.643-0.317 1.2-0.24 1.089-0.298-0.415-0.698 0.24-1.2 3.626-0.89 8.403-1.06 12-0.72 4.646-1.455 11.802-1.256 17.52-1.68 6.534-0.484 12.235-1.177 18.96-1.44 1.056-0.784 1.274-2.405 1.44-4.08-0.742 1.098-1.06 2.621-1.68 3.84-1.07-1.794 1.662-3.718 1.68-6 0.975-0.553 1.039-1.674 1.68-2.4 3.006-3.405 10.037-5.89 15.6-6.48 3.234-0.343 6.288 0.224 9.121 0.72 3.831 0.671 7.969 2.082 11.04 1.68 1.324-0.173 2.293-1.197 3.6-0.96 1.044 0.673 0.266 1.894 0.72 2.88 2.769 5.293 15.117 5.247 22.08 2.64 2.812-1.053 4.608-2.997 5.76-4.56-0.021-1.026-0.48-1.758 0-2.64 5.114 1.001 11.741-0.042 16.801-1.68 0.557-0.077 0.921 0.039 1.199 0.24 5.828-1.769 14.53-0.901 19.44 1.44 0.68 0.324 1.228 1.024 1.92 1.44 2.596 1.559 4.035 2.579 6.24 5.52 2.556 3.409 3.805 6.801 4.08 12 0.126 2.38 0.571 5.081-0.24 7.2-0.863 0.743-0.606-1.171-1.92-0.72 0.187 1.094 1.188 1.372 1.68 2.16v-0.96c0.575 0.632 0.931 2.74 0.72 3.36 0.354 0.825 1.306 0.76 1.681 1.68 1.42 3.472-3.16 4.537-2.88 0.956zm-172.8-5.04c0.407-0.233 0.617-0.664 0.48-1.44-0.561 0.079-0.992 0.288-1.44 0.48 0.029 0.611 0.349 0.931 0.96 0.96zm-9.12-3.6c0.789-1.735 3.547-0.586 4.08-2.88-1.788 0.375-4.376 1.221-4.08 2.88zm174-19.92c-0.223-0.418 0.008-1.288-0.721-1.2-5.685-4.073-12.294-5.163-20.16-4.08-0.409 0.057-0.793 0.401-1.199 0.48-3.477 0.676-7.262 1.406-10.561 1.92-2.756 0.429-4.778 0.187-6.96-0.24-0.541 1.458-1.143 2.857-1.92 4.08-2.839 2.266-7.085 4.007-12 4.32-0.966 0.062-1.929-0.101-2.88 0-1.929 0.206-2.617 0.178-4.32 0-0.697-0.073-1.591 0.12-2.16 0-1.636-0.343-2.993-1.724-4.56-1.68-0.893-1.507-2.438-2.362-2.16-5.04-2.144 0.282-3.98 0.881-6 0.72-1.732-0.138-3.546-1.336-5.04-0.24 4.108 1.188 6.845 1.378 10.32 0.72-0.613 0.939-0.111 1.884 0.479 2.64 0.563 0.72 2.242 1.711 3.601 2.4 2.695 1.367 4.816 1.625 7.92 1.68 1.297 0.023 2.921 0.142 4.08 0 3.046-0.373 5.661-2.157 8.16-1.92 1.027-1.538 3.192-1.318 4.56-2.4 0.243-0.192 0.373-0.811 0.72-1.2 0.899-1.01 1.663-1.49 1.92-2.88 4.419 1.297 8.771-0.645 11.761-1.44 2.368-0.63 5.133-0.875 7.68-1.2 7.894-1.009 13.906 1.375 19.2 4.56 1.834 1.605 3.163 3.717 5.04 5.28-1.39-1.975-2.32-4.398-4.8-5.28zm-2.16 15.84c0.087-1.207-2.101-0.14-1.681-1.68 2.57 1.271 5.809 1.872 7.681 3.84-1.575-0.322-4.227-2.472-5.28-1.68 1.512 0.648 3.238 1.082 4.08 2.4 1.841-0.081 2.796 0.724 4.08 1.2 0.142-1.904 0.165-3.849 0-6-0.545-7.097-5.373-12.44-10.8-15.12-2.738-1.352-6.032-2.403-9.84-2.64-9.363-0.582-15.217 3.256-24 2.88-4.402 9.023-27.86 11.552-33.601 2.16-6.149 0.378-13.113-2.217-18.24-2.4-5.516-0.197-11.193 1.491-14.16 3.6-2.907 2.066-5.141 4.864-6.24 8.64 11.857-0.424 26.416-1.546 39.12-2.64-0.266-1.578-1.766-3.19-1.2-4.8 0.873 1.527 0.626 4.173 2.399 4.8 0.092-1.139-1.351-1.999-0.479-3.12 0.257 1.183 0.891 1.989 1.2 3.12 0.894 0.254 0.774-0.505 1.2-0.72 0.192 0.688 0.797 0.459 1.199 0.48 5.327 0.277 12.583-1.627 18-0.72 0.564-0.396 0.847-1.074 1.681-1.2 1.217 1.831 4.11 1.215 5.76 2.16 0.312-0.595-0.535-1.165 0-1.2 0.086 0.634 0.576 0.864 1.439 0.72 0.449-0.876 0.283-0.504 1.2-0.24-0.054-1.085 2.311-0.602 2.641-1.92 0.172-0.688 0.112-2.176-1.44-2.16-0.019 1.115-0.074 3.025-2.16 2.4-0.452-0.136-0.88-0.625-0.96-1.2-0.404-2.921 4.145-3.003 5.28-1.2 2.032 3.227-1.651 3.916-2.88 5.76 2.887 0.633 5.867 1.173 8.399 2.16 0.102-0.993-0.92-1.375 0-1.92 4.55 1.691 8.438 4.042 13.92 4.8 3.8 1.721 9.283 3.037 13.681 3.36-0.225-0.256-0.886-0.075-0.721-0.72 1.645 0.156 2.715 2.03 4.32 1.44-0.463-0.653-1.438-1.288-2.399-1.68-1.123-0.458-3.169-0.214-3.36-1.68 1.05-0.091 1.23 0.686 2.16 0.72zm-99.6-16.56c-2.867 1.201-6.03 2.883-6.48 5.28 0.63-1.094 2.409-1.918 3.36-2.64 0.421-0.32 0.802-0.727 1.2-0.96 1.274-0.747 2.646-1.118 4.08-1.44 0.543-0.122 0.949-0.625 1.44-0.72 2.625-0.505 6.648-0.79 9.12-0.72 2.058 0.058 4.123 1.329 6 0.48 0.01 1.05 1.737 0.319 2.159 0-6.08-2.425-15.6-1.492-20.88 0.72zm-7.92 6.96h0.72c-0.033-0.447-0.158-0.802-0.48-0.96-0.076 0.325-0.342 0.458-0.24 0.96zm116.4 4.08c-0.368-1.872-0.817-3.663-1.92-4.8 0.35 1.888 1.18 3.3 1.92 4.8zm-54.72-0.96c0.33-0.459 1.8-1.703 0.239-1.92 0.04 0.623-0.77 1.607-0.24 1.92zm-8.88 0c-1.275-0.028-0.192-0.045-0.239-0.72-2.816-0.157-3.627 0.518-6.24 0.24-0.168 0.739-0.168 0.461 0 1.2 2.69-0.088 4.52-0.447 6.48-0.72zm1.68 0.72c0.022-0.617 0.937-0.343 0.96-0.96-1.119 0.395-1.062-0.142-1.92-0.48-0.24 1.042 0.53 1.07 0.96 1.44zm-10.32-0.48c-1.051-0.991-2.008-0.158-2.16 0.72 1.943 0.194 2.135-0.672 3.84-0.24 0.39-1.263-1.5-1.183-1.68-0.48zm-5.28 0.96c0.927 0.478 1.473-1.274 0.48-1.2 0.18 0.739-0.66 0.461-0.48 1.2zm1.44-0.24c0.668 0.385 0.664-1.037 0.24-0.96-0.08 0.325-0.34 0.458-0.24 0.96zm-3.6 0.48c0.759 0.354 1.153-1.379 0.239-1.2-0.2 0.279-0.32 0.643-0.24 1.2zm1.2-0.24c0.633 0.072 0.788-0.333 0.721-0.96-0.65 0.016-1.15 0.549-0.72 0.96zm40.56 1.44c-3.27-0.88-7.283-2.466-9.84-2.16-0.011 0.331 0.112 0.527 0.239 0.72 2.947 0.855 5.702 1.324 8.641 1.92 1.035 0.21 2.224 1.083 2.88 0.24-0.12-0.78-1.26-0.544-1.92-0.72zm-42.72-1.44c0.699 0.353 0.699-1.073 0-0.72v0.72zm32.4-0.48c-0.81-0.729-0.73 0.887 0 0zm-37.68 0.96c0.931-0.029 2.211 0.291 1.92-0.96-1.17 0.088-0.806 0.626-1.68 0-0.08 0.324-0.34 0.458-0.24 0.96zm2.16-0.24h0.72v-0.72h-0.48c-0.01 0.307-0.31 0.332-0.24 0.72zm2.16 0c0.7 0.353 0.7-1.073 0-0.72v0.72zm23.52-0.24c-0.024 0.745 0.755 0.685 0.479 1.68 0.916-0.301 1.156 0.212 1.921-0.24-0.31-1.126-1.23-2.546-2.4-1.44zm1.92 0c0.307 0.013 0.332 0.308 0.72 0.24 0.013-0.413-0.185-0.615-0.479-0.72 0 0.241-0.19 0.286-0.24 0.48zm1.44 1.2c0.397-0.242 0.26-1.019 0.479-1.44-0.92-0.416-1.45 1.495-0.48 1.44zm4.32-0.96h0.48c0.373-0.59-0.815-0.706-0.72-0.24 0.15 0.013 0.28 0.036 0.24 0.24zm-42 0.72c0.633 0.072 0.788-0.333 0.721-0.96h-0.721c0.02 0.655-0.4 0.483 0 0.96zm1.2-0.24h0.48c-0.001-0.241 0.194-0.286 0.239-0.48-0.307-0.013-0.332-0.308-0.72-0.24v0.72zm27.6-0.48c-0.173 0.733 0.246 0.875 0.24 1.44 1.01-0.29 1.053 0.388 1.681 0.48 0.379-0.939-0.624-0.497-0.721-0.96 0.277-0.36 0.843-1.011 0-1.2 0.04 0.52-0.85 0.109-1.2 0.24zm-30.24 0.48c0.356 0.378 1.072 0.268 0.96-0.48-0.55-0.067-0.9 0.058-0.96 0.48zm23.04-0.24c-0.239 2.523 3.222 1.06 4.8 1.2-0.29-2.447-2.9-0.523-4.8-1.2zm6.72 0.96c-0.08-0.56-0.246-1.034-0.72-1.2-0.51 0.502 0.32 0.902 0.72 1.2zm11.04 0c5.909 1.291 11.907 2.493 17.76 3.84v-1.44c-5.664-1.397-12.293-2.767-17.76-3.6v1.2zm-44.4-0.24c0.013-0.146 0.036-0.284 0.24-0.24-0.027-0.293-0.072-0.568-0.48-0.48 0.04 0.282-0.04 0.681 0.24 0.72zm0.96 0c0.014-0.146 0.036-0.284 0.24-0.24-0.027-0.293-0.072-0.568-0.48-0.48 0.04 0.282-0.04 0.681 0.24 0.72zm24.24 0.96c0.769-0.032 1.056-0.544 0.96-1.44-0.578 0.098-0.521-0.438-1.2-0.24-0.48 0.478 0.08 1.143 0.24 1.68zm7.44-0.24c-0.02-0.781-0.308-1.293-0.96-1.44 0.28 0.948-0.36 1.428 0.96 1.44zm-38.88-0.96c0.88 1.078 3.544 0.559 4.56-0.24-1.541-0.141-2.552 0.665-3.6 0-0.07 0.557-0.64 0.552-0.96 0.24zm28.8 1.44c0.967 0.007 1.851-0.069 2.16-0.72-0.376-0.584-0.956-0.964-1.92-0.96-0.33 0.309-0.24 1.042-0.24 1.68zm-31.44-1.2c-0.242 0.722 0.535 0.425 0.96 0.48v-0.72c-0.42-0.018-0.75 0.053-0.96 0.24zm1.2 0.48h0.72v-0.72h-0.479c-0.01 0.307-0.31 0.332-0.24 0.72zm24.48-0.24c-2.09-0.396-2.797 0.317-4.561-0.24-0.201 0.519-0.621 0.819-0.479 1.68 3.77-0.334 7.011-0.055 9.6-0.48-0.195-0.83 0.448-1.013 0-1.44-0.771-0.211-0.329 0.791-0.96 0.72-0.023-0.377 0.032-0.832-0.48-0.72-0.616 0.023-0.343 0.937-0.96 0.96v-0.96c-0.97 0.818-1.28-0.438-2.16 0.48zm81.36 2.16c0.519-0.693-0.146-1.808-0.479-2.4-0.03 0.994 0.07 1.854 0.48 2.4zm-115.68-1.44c0.744 0.024 1.331-0.108 1.68-0.48-0.932 0.107-1.506-0.601-1.68 0.48zm2.16-0.24c0.627 0.005 2.382 0.508 2.88-0.48-0.726 0.509-2.449-0.688-2.88 0.48zm22.8 0.72c0.679 0.381 2.682 0.381 3.36 0v-1.2c-1.65 0.375-2.75-0.212-3.36 1.2zm-27.84-0.48c0.646 0.412 2.472 0.343 2.64-0.48-0.664 0.568-2.218-0.643-2.64 0.48zm21.84-0.24c-0.753 1.282-1.592-0.268-2.64 0.72-0.038-0.282 0.042-0.681-0.24-0.72-0.409 0.151-0.395 0.725-0.72 0.96 0.043-0.523-0.196-0.764-0.72-0.72 0.018 0.418-0.053 0.747-0.24 0.96 2.992 0.73 6.253-0.29 9.6 0v-1.44c-0.895-0.254-0.775 0.505-1.2 0.72 0.044-0.523-0.196-0.764-0.72-0.72-1.06 0.62-2.17 0.754-3.12 0.24zm-25.2 0.48c0.651-0.149 1.905 0.305 2.16-0.24-0.72-0.178-1.712-0.518-2.16 0.24zm-4.08 0c0.034 0.962 1.628-0.155 2.64 0.24 0.001-0.927-2.244-0.461-2.64-0.24zm-0.96 0.48c0.413 0.013 0.615-0.185 0.72-0.48-0.413-0.013-0.615 0.185-0.72 0.48zm19.2 0.72h0.96c0.035-0.595 0.044-1.165-0.48-1.2-0.102 0.458-0.686 0.434-0.48 1.2zm1.2 0c1.039 0.366 1.295-1.096 0.48-1.2-0.1 0.457-0.52 0.603-0.48 1.2zm1.92-0.24c0.067-0.547-0.058-0.902-0.48-0.96 0.06 0.425-0.24 1.202 0.48 0.96zm0.48 0c0.668 0.384 0.664-1.037 0.24-0.96-0.08 0.324-0.34 0.459-0.24 0.96zm0.72 0h1.92v-0.96c-0.907-0.348-0.46 0.659-1.2 0.48-0.054-0.186-0.007-0.474-0.24-0.48 0.18 0.655-0.48 0.483-0.48 0.96zm40.8-0.72c-4.005 0.433-7.582 0.563-11.76 0.48-0.415 0.146 0.018 1.139-0.48 1.2 0.067-0.547-0.058-0.902-0.479-0.96-0.328 0.472-0.229 1.371-0.48 1.92 1.006-0.561 0.742-0.184 1.92 0 0.133-0.427 0.123-0.997 0.48-1.2v0.96c0.893 0.252 0.47-0.81 0.96-0.96-0.036 0.596-0.045 1.165 0.479 1.2 0.465-0.255 0.335-1.105 0.72-1.44-0.076 0.557 0.039 0.921 0.24 1.2 5.678 0.117 9.049-0.669 14.4 0.24-0.237-1.163 0.655-2.049 0-2.88-2.42-0.038-4.34 1.54-6 0.24zm27.84 0c-0.324-0.075-0.458-0.341-0.96-0.24-0.18 0.818 0.92 0.936 0.96 0.24zm-142.56 1.44c1.546-0.346 1.852 0.548 2.88 0.72-0.902-0.938-1.809-1.871-3.36-2.16-0.19 0.83 0.267 1.013 0.48 1.44zm44.16-0.96c0.729-0.15 2.067 0.308 2.4-0.24-0.756-0.354-1.81-0.218-2.4 0.24zm20.16 0.72c1.283-0.317 4.007 0.807 3.84-0.96-0.829 0.684-0.922-0.374-1.92 0.48 0.144-0.624-0.096-0.864-0.72-0.72 0.033 1.053-1.544-0.459-1.2 1.2zm-24-0.72c-0.808-0.729-0.728 0.888 0 0zm19.92 0.24v0.72c1.859 0.007 2.095-0.133 3.84-0.24v-0.96c-1.041 0.75-1.381-0.439-2.16 0.72 0.013-0.413-0.185-0.615-0.48-0.72-0.262 1.238-0.607-0.008-1.2 0.48zm8.4 0.48h0.48v-0.96h-0.48v0.96zm-9.6-0.24c-0.224-0.146-0.885-0.558-0.72 0.24 0.382 0.52 2.124 0.379 1.68-0.72h-0.72c-0.054 0.186-0.007 0.473-0.24 0.48zm65.28 1.68c0.383-0.177-0.055-1.175 0.72-0.96 0.055 0.454-0.271 0.529-0.239 0.96 0.874 0.154 0.296-1.143 0.96-1.2v1.2c0.821-0.392 0.721 0.029 1.2 0.48 0.334-0.306 0.104-1.176 0.72-1.2v1.2c0.761 0.359 2.119 0.121 2.88 0.48 0.414-0.146-0.019-1.138 0.479-1.2 0.453 0.373-0.344 0.935 0.24 1.44 3.266 0.254 6.097 0.943 9.12 1.44-0.013 0.307-0.308 0.333-0.24 0.72 1.66 0.087 1.076-1.71 0.48-2.4-3.774-0.305-6.591-1.57-10.32-1.92 0.035 0.595 0.045 1.165-0.479 1.2v-1.44c-2.409-0.299-3.329-0.643-5.761-0.96 0.04 0.422-0.43 2.024 0.24 2.16zm21.12-1.68c0.385-0.668-1.036-0.664-0.96-0.24 0.42-0.018 0.75 0.054 0.96 0.24zm22.08 4.56c-3.442-0.618-6.602-0.98-9.6-1.44-0.962-0.147-1.359-0.807-2.4-1.2-0.352-0.133-0.843 0.117-1.2 0-0.295-0.097-0.632-0.6-0.96-0.72-0.526-0.192-1.284-0.043-1.92-0.24-0.88-0.272-1.704-1.104-2.16-1.2-0.75-0.158-2.075-0.509-2.64 0.48 0.217 0.658 0.884-0.468 0.96 0.48 0.132 0.957 0.132 0.723 0 1.68-0.918-0.537-1.963-0.909-3.6-0.48-0.055-0.425 0.241-1.202-0.48-0.96-0.72 0.029-0.77 1.362-0.48 1.68 1.402-0.236 3.51 0.13 4.561 0.96-0.651 1.51 1.114 2.634 0.72 3.84 3.115-0.121 9.044 0.669 11.521 0 0.27-0.073 1.819 0.198 0.96-0.48-0.382 0.366-1.963-0.105-2.16-0.72 2.248-1.001 3.467 1.147 5.28 0.72-0.036-0.596 0.124-0.996 0.479-1.2 2.451 1.4 7.052 1.894 10.08 1.92 0.101-0.981-0.79-0.97-0.479-2.16-1.011-0.37-0.039 1.242-0.721 1.2-0.445-0.955-1.125-0.269-1.439-1.44-0.041 0.359 0.085 0.886-0.24 0.96-0.663 0.103-0.226-0.895-0.72-0.96-0.333 0.147-0.036 0.924-0.48 0.96 0.035-0.595 0.045-1.165-0.479-1.2-0.589 0.32 0.432 0.725-0.24 0.96-0.54-0.1 0.036-1.316-0.72-1.2-0.21 0.351-0.191 0.929-0.96 0.72-0.81-0.217-0.03-0.537-0.48-0.96zm-117.84-4.56c0.021 0.655-0.4 0.483 0 0.96 1.057-0.343 1.412 0.018 2.64-0.24 0.03-0.601 0.458-0.751-0.24-0.96-0.704 0.532-1.465 0.564-2.4 0.24zm3.12 0.72c1.965-0.473 3.744 0.705 4.08-0.96-1.798 0.173-2.114 0.316-3.84 0-0.076 0.324-0.342 0.459-0.24 0.96zm4.8-0.24c0.035-0.283 0.427-0.544 0-0.72-0.035 0.284-0.427 0.544 0 0.72zm36.72-0.24c-1.178 0.065-3.507-0.752-2.16 0.96 0.934-1.311-0.126 1.1 0.721 0.96 0.28-0.359 0.298-0.981 0.72-1.2 0.055 0.425-0.242 1.202 0.479 0.96 0.025-0.615 0.137-1.145 0.48-1.44 0.22 0.421 0.082 1.198 0.479 1.44 0.22-0.421 0.083-1.198 0.48-1.44-0.031 0.592-0.036 1.157 0.24 1.44 0.825-0.194 1.221 0.135 1.68-0.72 0.123 1.472 1.642 0.006 2.64 0.72 0.361-0.389 0.361-1.771 0-2.16-2-0.022-3.92 0.377-5.76 0.48zm-63.12 0.24h0.48v-0.48h-0.48v0.48zm17.04 0.48c0.751 0.111 1.072-0.209 0.96-0.96h-0.72c0.054 0.454-0.271 0.53-0.24 0.96zm42.24-0.72c0.301 0.916-0.212 1.156 0.24 1.92 0.964 0.004 0.667-1.253 0.72-2.16-0.45-0.054-0.53 0.27-0.96 0.24zm-46.32 0.96c0.889-0.071 2.056 0.136 1.92-0.96-0.894 0.646-0.599 0.177-1.68 0-0.075 0.325-0.341 0.459-0.24 0.96zm3.12-0.24h0.72c0.043-0.524-0.196-0.764-0.72-0.72v0.72zm36.48-0.48c-7.511-0.156-16.146 0.389-24 0.96-2.584 0.188-5.165-0.111-7.44 0.72 0.28 0.041 0.261 0.379 0.24 0.72 1.212-1.184 2.68 0.551 3.84-0.96-0.067 0.547 0.058 0.902 0.48 0.96 0.117-0.284 0.256-0.544 0.48-0.72 0.956 1.821 2.27-0.821 3.36 0.48 0.636-0.654 0.106-0.264 0.48 0 0.525 0.372 0.521-0.51 1.2-0.48-0.029-0.001 0.168 0.434 0.48 0.48 0.936 0.139 2.176-0.43 3.12 0 0.18-1.05 0.868-0.201 1.44-0.96 0.131 0.349-0.28 1.24 0.24 1.2 0.24-0.32 0.396-0.725 0.72-0.96 0.104 1.199 0.424-0.187 0.96 0 0.409 0.723 1.432-0.126 2.4 0.72 0.9-0.968 1.442-0.059 2.4-0.72v0.72c2.042-0.119 4.778 0.458 5.28-1.2v0.96c2.314-0.07 3.037-0.294 5.521 0 0.109-0.614-0.01-1.213 0.72-1.68-0.56-0.792-1.26-0.226-1.92-0.24zm2.88 0c-0.077 0.557 0.038 0.922 0.24 1.2 1.361 0.002 2.372-0.348 2.64-1.44-0.95 0.088-2.3-0.22-2.88 0.24zm-61.2 0.48c0.596 0.036 0.996-0.124 1.2-0.48-0.453 0.106-1.447-0.326-1.2 0.48zm13.44 0.24c1.24-0.28 3.625 0.585 4.08-0.48-1.084 0.021-3.252-0.531-4.08 0.48zm4.8 0c0.034-0.284 0.427-0.544 0-0.72-0.034 0.283-0.428 0.544 0 0.72zm-20.88-0.48c-0.497 0.143-1.577-0.297-1.68 0.24 0.914-0.263 1.498 0.635 1.68-0.24zm13.68 0.72c0.547 0.067 0.902-0.058 0.96-0.48-0.281-0.303-0.997-0.192-0.96 0.48zm1.2-0.24c0.377-0.023 0.832 0.032 0.72-0.48h-0.48c0.001 0.241-0.194 0.286-0.24 0.48zm-35.76 1.92v-0.96c-0.786-0.051-0.947 1.126 0 0.96zm-0.24-1.2c-0.029-0.611-0.35-0.931-0.96-0.96 0.054 0.454-0.271 0.529-0.24 0.96 0.315 0.308 0.885 0.308 1.2 0zm9.36-0.24h1.2v-0.48c-0.057-0.419-1.354-0.102-1.2 0.48zm3.84-0.24c0.534 0.505 1.157-0.253 2.16 0-0.043-1.025-1.745-0.142-2.16 0zm5.04-0.48c-0.729 0.15-2.067-0.308-2.4 0.24 0.73-0.15 2.067 0.307 2.4-0.24zm9.36 0.72c0.327 0.388 1.659-0.248 2.64 0-0.569-1.002-2.187-0.576-2.64 0zm4.56-0.24h0.48c0.374-0.591-0.815-0.706-0.72-0.24 0.147 0.014 0.284 0.036 0.24 0.24zm0.96 0c0.454-0.106 1.447 0.326 1.2-0.48h-1.2v0.48zm142.08 5.28c1.474-0.824 0.889-4.011 0.479-5.52-0.28 1.138-0.04 3.857-0.48 5.52zm-150.72-4.8c0.726-0.075 1.866 0.266 1.92-0.48-0.726 0.074-1.867-0.266-1.92 0.48zm-20.16 0c-0.37 0.724 1.242 0.631 1.2 0.24-0.753 0.119-0.634-0.827-1.2-0.24zm10.8 0.48c2.962-0.078 6.376 0.295 8.4-0.72-2.977 0.011-6.252-0.041-8.4 0.72zm23.28 0c-1.394-0.226-4.133 0.151-6.24 0v1.2c2.673-0.474 3.104-0.256 5.76 0 0.103-0.457 0.517-0.603 0.48-1.2zm0.48 1.2c0.756 0.116 0.18-1.1 0.72-1.2 0.106 0.454-0.326 1.446 0.48 1.2 0.396-0.003 0.134-0.666 0.479-0.72-0.123 1.37 4.631 0.624 4.56-0.24 0.256 0.224 0.075 0.885 0.72 0.72 0.471-1.092 1.873 0.545 3.84 0-0.173-0.733 0.246-0.875 0.24-1.44-4.378-0.531-6.731 0.548-11.28 0.24 0.228 0.598-0.856 1.448 0.241 1.44zm-38.16-1.44c-0.013 0.413 0.185 0.615 0.48 0.72 0.097-0.543 1.407 0.126 0.96-0.96-0.731 0.359-0.933-0.079-1.44 0.24zm1.92 0.24h0.48v-0.48h-0.48v0.48zm5.28 0.96c1.312-0.484 2.169-0.177 3.36-0.96-1.099-0.385-3.129-0.255-3.36 0.96zm6.48-0.48c0.014-0.146 0.036-0.284 0.24-0.24-0.027-0.293-0.072-0.568-0.48-0.48 0.037 0.283-0.041 0.681 0.24 0.72zm16.8 0.72c0.882 0.231 0.954-1.179 0.24-1.2-0.202 0.278-0.317 0.643-0.24 1.2zm109.92 5.76c-0.866 0.094-1.609 0.311-2.4 0.48-0.809-1.309 0.615-2.192 0.48-3.6-3.062-1.268-8.043-1.866-11.521-1.92 0.235 1.085 0.383 2.955-0.72 3.36-0.182-1.461 0.526-2.034 0.479-3.36-1.069 0.463-2.039-1.49-3.119-0.24 0.125-0.859-1.596-1.106-1.921-0.72 0.283 0.357 0.603 0.677 0.96 0.96-1.433-0.313-0.839 1.401-0.96 2.4-0.387 1.228-4.439 1.327-2.64-0.48 0.617 0.023 0.343 0.937 0.96 0.96 0.276-0.284 0.271-0.848 0.24-1.44-0.349-0.131-1.24 0.28-1.2-0.24 0.3-0.504 1.1-1.229 0.48-1.92-0.82-0.18-0.306 0.975-1.2 0.72-0.251-0.549-0.152-1.448-0.48-1.92-3.91 0.158-7.815 0.31-12.96 0.24-0.558 0.163-0.35 1.09-0.96 1.2-0.055-0.425 0.242-1.202-0.479-0.96-0.559 0.871-0.181-0.146-1.2 0-0.106 0.454 0.326 1.446-0.48 1.2 0.186-0.164 0.625-1.43-0.239-1.2-1.021-0.221-0.017 1.584-0.96 1.44-0.175-0.734 0.414-0.706 0.239-1.44-0.751 0.049-1.762-0.162-2.16 0.24-0.274 0.995 0.505 0.935 0.48 1.68-0.082 0.877-0.025 1.895-0.96 1.92-0.074 0.726 0.267 1.867-0.48 1.92-0.243-0.99 0.883-2.105-0.479-2.16 0.045 1.28 0.479 2.242-0.72 2.64-0.191-1.231 0.505-1.575 0.479-2.64h-0.96c-0.074 0.726 0.267 1.867-0.479 1.92-0.604-0.601 0.275-0.943 0.239-1.68-1.405-0.206-0.097 2.303-1.439 2.16-0.142-1.022 0.173-1.587 0.24-2.4h-0.96c-0.129 0.832 0.355 2.277-0.48 2.4-0.26-0.76 0.931-2.017-0.24-2.16-0.742 0.058 0.375 1.975-0.72 1.68-0.188-0.592 0.872-1.662-0.24-1.68-0.536 0.584-0.048 2.192-0.96 2.4-0.054-1.014 0.37-1.55 0.48-2.4-1.766-0.198-0.127 1.591-1.2 2.16-0.359-0.666-0.981 0.417-1.2-0.24-0.186-0.935 0.888-1.244 0.24-1.92-1.477-0.277 0.036 2.437-1.44 2.16-0.062-0.986 0.976-1.572 0-2.16-0.557 0.403 0.23 2.15-0.96 1.92-0.117-0.757 0.433-0.848 0.24-1.68-1.254-0.214-0.265 1.815-1.44 1.68-0.01-0.746 1.032-1.673-0.239-1.68-0.619 0.181 0.175 1.775-0.721 1.68-0.175-0.545 0.433-1.872-0.479-1.68-0.528 0.271-0.017 1.583-0.72 1.68-0.523-0.502 0.119-0.685 0-1.44-1.031-0.231-0.422 1.179-1.2 1.2 0.066-0.547-0.058-0.902-0.48-0.96-0.283 0.356-0.207 1.072-0.96 0.96 0.104-0.534 0.552-1.302-0.24-1.44-0.332 0.387-0.202 1.237-0.72 1.44-0.716-0.344 0.631-1.251-0.479-1.2-0.541 0.1 0.035 1.316-0.72 1.2-0.338-0.688 0.745-1.31-0.24-1.2-0.728-0.007-0.232 1.208-0.96 1.2-0.263-0.612 0.82-1.235-0.24-1.2-0.668-0.108 0.188 1.308-0.48 1.2-0.532-0.188 0.045-1.486-0.96-1.2-0.003 0.636 0.133 1.413-0.479 1.44-0.131-0.349 0.28-1.24-0.24-1.2-0.281 0.359-0.298 0.981-0.72 1.2v-1.44c-1.049-0.169-0.511 1.249-1.2 1.44-0.263-0.612 0.82-1.235-0.24-1.2-0.489 0.15-0.067 1.212-0.96 0.96 0.327-0.306 0.371-1.176-0.24-1.2-0.541 0.339-0.472 1.288-1.2 1.44v-0.96c-0.771-0.21-0.498 0.623-0.96 0.72-0.333-0.147-0.036-0.924-0.48-0.96-0.411 0.229-0.483 0.796-0.96 0.96-0.033-0.447-0.158-0.802-0.48-0.96-0.241 0.319-0.227 0.893-0.72 0.96 0.044-0.524-0.196-0.764-0.72-0.72-0.241 0.319-0.227 0.893-0.72 0.96v-0.96c-1.062-0.342-0.628 0.812-1.44 0.72 0.421-1.452-1.656 0.822-2.4-0.48-0.284 0.356-0.208 1.072-0.96 0.96-0.041-0.359 0.085-0.886-0.24-0.96 0.013 0.413-0.185 0.615-0.48 0.72-0.083-1.188-0.63 0.2-1.2 0v-0.72c-0.987 1.058-2.061-0.059-3.84 0.72 0.153 13.621 10.26 17.883 22.56 15.84 4.86-0.807 9.842-2.152 13.44 0 0.331-0.309 0.237-1.042 0.24-1.68 4.132-5.987 17.893-5.255 24.72-2.16v0.72c1.341 0.04 1.763 0.385 2.641 0.96 2.512 1.648 4.46 3.978 5.52 6.48 1.98-0.92 4.093-0.747 5.521-0.48 1.733 0.325 2.916 0.428 4.319 0.96 1.059 0.402 2.002 1.471 3.12 1.921 1.61 0.647 2.885 1.318 4.32 1.68 6.909 1.736 14.312-0.147 18.479-2.16 4.354-2.104 7.88-4.717 10.08-8.64 1.231-2.196 1.646-4.478 2.4-6.96 0.021-0.067 0.454-0.143 0.479-0.24 0.338-1.268 0.286-2.228 0.48-3.36-1.119-0.111-1.542 0.473-2.4 0-0.409 0.151-0.395 0.725-0.72 0.96-0.891-0.309-0.892-1.509-2.16-1.44 0.156 1.604 1.78 1.74 2.16 3.121-1.592-0.968-2.455-2.665-4.32-3.36 0.937 2.024 3.136 2.784 4.08 4.8-1.971-1.148-2.823-3.417-5.28-4.08 0.198 2.044 3.059 2.698 2.881 4.32-1.255-1.306-2.71-2.411-3.841-3.84 0.847-0.114 0.789-1.131 0.96-1.92-0.912-0.321-1.33 0.107-2.399-0.24-0.415 0.544 0.093 2.012-0.72 2.16-0.135-0.969 1.084-2.2 0-2.64-0.854 0.347-0.012 2.388-1.2 2.4 0.067-0.812 0.382-1.378 0.24-2.4-1.259 0.475-0.548 0.177-1.681-0.24-0.753 0.527-0.31 2.25-0.96 2.88-1.119-0.559 0.596-1.58 0.24-2.88-1.034-0.313-0.759 0.681-1.2 0.96-0.055-0.425 0.242-1.202-0.479-0.96-0.978 0.383 0.211 2.931-1.2 2.88-0.223-1.167 1.166-2.514 0-3.12-0.747 0.854 0.177 3.376-1.44 3.36-0.111-1.391 0.869-1.691 0.721-3.12-1.975-0.214-0.204 3.316-1.921 3.36-0.227-1.587 0.776-1.944 0.48-3.6-1.293-0.413-0.672 1.088-1.2 1.44-0.146-0.495 0.388-1.667-0.479-1.44-1.182 0.418-0.019 3.182-1.44 3.36-0.042-1.322 0.73-1.83 0.48-3.36-1.824 0.31-0.365 2.464-1.681 3.12-0.222-1.167 1.166-2.514 0-3.12-0.593 0.767-0.177 2.543-0.96 3.12-0.511-0.809 0.436-1.866 0.24-3.12-1.073 0.369-2.447-0.362-3.36 0-0.194 0.077 0.13 0.655-0.239 0.72-0.091 0.016-0.801-1.055-0.96-0.48-0.267 1.254-0.577 2.464-0.48 4.08-0.67 0.305-1.186 0.591-1.92 0.24-0.297 0.583-0.487 1.273-1.44 1.2-0.02-1.901 1.39-3.523 0.72-5.282zm0.48 3.36c-0.111-1.472 0.518-2.203 0.721-3.36-1.15-0.042-1.09 3.46-0.72 3.36zm-152.64-7.92c0.42 0.066 1.197-0.676 1.44 0-0.086 1.303-1.299 1.436-0.72 2.88 1.066 0.106 1.307-0.614 1.2-1.68 1.139-0.461 1.768-1.432 1.92-2.88-1.389-1.168-2.985 0.801-3.84 1.68zm9.84-2.16c-0.253 1.393 1.04 0.1 0 0zm21.6 0.24c-0.054 0.186-0.007 0.473-0.24 0.48-0.567-0.6-1.96-0.307-2.64 0.48 4.563 0.499 7.927-0.019 10.56-0.96-2.73-0.269-5.318 0.337-7.68 0zm8.64 0.72c0.759-0.33 0.802-0.052 1.68 0-0.021-0.655 0.4-0.483 0-0.96-0.827 0.451-0.612 0.451-1.44 0-0.076 0.325-0.342 0.458-0.24 0.96zm62.16 0.72c0.802-0.062 1.173-0.322 1.92 0 0.188-0.167 0.534-1.339 0-1.44-0.135 0.346-0.375 0.585-0.721 0.72-0.16-1.279-1.87-0.596-1.2 0.72zm3.36-0.96c0.139 1.512 1.731 0.2 2.641 0.72 0.035-0.595 0.044-1.165-0.48-1.2-0.68 0.889-1.12 0.243-2.16 0.48zm3.84-0.48h-0.72c-1.24 1.74 1.96 1.74 0.72 0zm-114.24 0.72c-0.667-0.221-2.467-1.018-2.88 0 0.392-0.175 1.044 0.477 0.48 0.48-1.653 0.027-3.402-0.042-4.08 0.96 1.649 0.092 4.414-0.507 6 0.72 0.125-0.355 0.355-0.605 0.48-0.96-0.319-0.588-0.893 0.264-0.96-0.24 0.282-0.359 0.997-0.283 0.96-0.96zm28.8 0.48h1.44c-0.041-0.359 0.085-0.886-0.24-0.96-0.36 0.857-1.201-0.257-1.2 0.96zm2.4 0c0.757 0.118 0.848-0.432 1.68-0.24-0.042-0.758-0.95-0.651-1.68-0.72v0.96zm72.96 0c0.038-0.167-0.084-1.396-0.24-0.72-0.21 0.914 0.13 1.202 0.24 0.72zm-77.28 0v-0.72h-0.72c-0.043 0.524 0.196 0.763 0.72 0.72zm59.52-0.24c-0.075 0.324-0.341 0.458-0.24 0.96 1.602-0.21 1.782-0.301 3.6-0.24 0.035-0.595 0.044-1.165-0.48-1.2-1.25 0.299-2.22 1.156-2.88 0.48zm7.2 0c-0.241 0-0.286-0.194-0.48-0.24-0.013 0.307-0.308 0.333-0.24 0.72 0.41 0.013 0.62-0.185 0.72-0.48zm0 0.72c1.349-0.222 4.014 0.503 5.521-0.72v0.72c0.896-0.021 0.684-0.269 1.439 0 0.201-0.278 0.316-0.643 0.24-1.2-0.411-0.636-0.394 0.75-0.72 0.72-0.044-0.004 0.048-0.7 0-0.72-0.935-0.38-2.951 0.468-3.12 0.48-0.015 0.001-0.297-0.476-0.48-0.48-0.055-0.001-0.531 0.484-0.72 0.48-0.004 0-0.19-0.479-0.24-0.48-0.602-0.022-1.058 0.778-1.44 0-0.1 0.457-0.52 0.603-0.48 1.2zm8.4 0c0.725 0.37 0.631-1.242 0.239-1.2-0.2 0.278-0.32 0.643-0.24 1.2zm3.6-0.48c1.19-0.319 0.38-1.133 0 0zm-24.48 0.24c0.317 0.002 0.219 0.42 0.48 0.48 1.095-0.381 1.645-0.169 3.12 0 0.327-0.306 0.371-1.176-0.24-1.2-0.174 0.96-1.413 0.32-2.16 0-0.167 1.01-1.093-0.23-1.2 0.72zm4.08 0.24c0.668 0.385 0.664-1.036 0.24-0.96-0.08 0.325-0.34 0.458-0.24 0.96zm5.76 0.24c0.882 0.231 0.954-1.179 0.24-1.2-0.2 0.279-0.32 0.643-0.24 1.2zm0.96-0.24c0.668 0.385 0.664-1.036 0.24-0.96-0.08 0.325-0.34 0.458-0.24 0.96zm-18.72 0.48c0.929 0.266 0.854-0.848 1.44-0.24-0.104-0.536-0.424-0.856-0.96-0.96-0.103 0.457-0.517 0.603-0.48 1.2zm5.04 0c0.974-0.775 1.454 0.723 1.68-0.96-0.7 0.213-0.828 0.307-1.2-0.24-0.102 0.458-0.685 0.434-0.48 1.2zm11.76-0.48h0.48c0.269-0.346 0.259-0.585-0.24-0.72-0.01 0.307-0.31 0.332-0.24 0.72zm-26.88 0.72c0.888 0.167 1.06-0.38 0.96-1.2-0.675 0.045-1.023 0.417-0.96 1.2zm2.16-0.24c0.706 0.304 1.314-0.603 2.16 0 0.07-0.147 0.597-0.924 0-0.96-0.204 0.891-1.968-0.744-2.16 0.96zm2.64-0.72c0.101 0.459 0.087 1.033 0.72 0.96-0.131-0.349 0.28-1.241-0.24-1.2-0.053 0.187-0.201 0.279-0.48 0.24zm3.12 0.96c0.759 0.354 1.154-1.379 0.24-1.2-0.202 0.279-0.317 0.643-0.24 1.2zm1.2-0.24c0.632 0.073 0.788-0.332 0.72-0.96-0.633-0.072-0.788 0.332-0.72 0.96zm4.56 0c0.172-1.025 1.307 0.887 1.2-0.96-0.597 0.026-0.743 0.45-1.2 0-0.07 0.147-0.597 0.924 0 0.96zm-20.16 0.48c0.035-0.595 0.045-1.165-0.48-1.2-0.155 0.585-0.485 1.234 0.48 1.2zm1.68 0c0.564-0.431 1.702 0.229 1.68-1.2-1.057-0.024-0.983 0.803-1.68 0-0.138 0.146-0.562 1.138 0 1.2zm3.84-0.24c0.633 0.073 0.619-0.501 0.72-0.96-0.633-0.072-0.788 0.332-0.72 0.96zm2.88-0.24c0.013-0.413-0.185-0.615-0.48-0.72-0.343 0.351-0.353 0.929 0.48 0.72zm-28.8 0.72c0.249-0.227 0.219-1.236-0.48-1.2-0.035 0.596-0.045 1.165 0.48 1.2zm5.04-0.96c-0.067 0.547 0.058 0.902 0.48 0.96 0.3-0.931 1.405 0.336 1.68-0.72-1.017-0.189-1.222-0.384-2.16-0.24zm6.48 0.72h0.72c-0.055-0.425 0.242-1.202-0.48-0.96-0.075 0.325-0.341 0.458-0.24 0.96zm4.8-0.24v-0.48c-0.443-0.797-1.17 0.72 0 0.48zm0.24 0c0.644 0.258 1.947 0.555 1.68-0.72-0.704 0.169-0.707 0.806-1.2 0-0.058 0.343-0.395 0.405-0.48 0.72zm4.32-0.72c-0.729 0.808 0.887 0.728 0 0zm-34.56 0.72c0.914-0.263 1.498 0.635 1.68-0.24-0.715 0.064-1.461-0.672-1.68 0.24zm7.2 0.72c0.413 0.293 1.917 0.14 2.16-0.48-0.838 0.038-1.018-0.582-1.68-0.72 0.347 0.907-0.66 0.461-0.48 1.2zm5.52-0.24c0.296-0.776-0.777-0.184-0.48-0.96-0.742-0.314-1.362 0.681-0.72 0.96 0.062-0.337 0.526-0.273 0.72-0.48 0.051 0.269 0.266 0.374 0.48 0.48zm4.8-0.24h0.72v-0.72h-0.48c-0.013 0.307-0.307 0.333-0.24 0.72zm5.52 0h0.72c-0.038-0.282 0.041-0.681-0.24-0.72-0.022 0.378-0.612 0.188-0.48 0.72zm1.2 0c0.7 0.353 0.7-1.073 0-0.72v0.72zm2.4 0c0.674 0.247 1.669-0.374 0.96-0.72 0.077 0.636-1.344-0.225-0.96 0.72zm-47.52 1.2c0.433-0.503-0.33-1.266-1.2-1.2-0.055 0.855 0.345 1.255 1.2 1.2zm8.88 0.72c1.484 0.119 2.753-1.24 2.64-1.92-0.706 0.814-2.279 0.762-2.64 1.92zm3.12-0.24c0.8-0.16 1.303-0.617 1.2-1.68-1.276-0.182-1.476 0.976-1.2 1.68zm141.84 0.48c0.678 0.229 1.186-1.561 0.24-1.44 0.17 0.734-0.41 0.706-0.24 1.44zm-148.08-0.24c0.42 0.349 1.367-0.229 1.44-0.96-0.566 0.234-1.522 0.077-1.44 0.96zm18.96 0v-0.96h-0.72c-0.068 0.628 0.088 1.032 0.72 0.96zm-22.56 2.64c0.003-0.396 0.666-0.134 0.72-0.48-0.303-0.617-1.458 0.162-0.72 0.48zm1.2-2.64c-0.807-0.119-1.995-0.709-2.4-0.48 0.078 0.882-0.205 2.125 0.24 2.64 1.283-0.156 1.694-1.187 2.16-2.16zm101.52 0.48c0.139-0.146 0.562-1.139 0-1.2-0.14 0.146-0.56 1.139 0 1.2zm-97.68 0.24c0.747 0.245 1.713-0.497 1.2-0.72-0.153 0.487-1.122 0.158-1.2 0.72zm-2.4 0.72c0.076-0.325 0.342-0.458 0.24-0.96h-0.72c-0.067 0.547 0.058 0.902 0.48 0.96zm13.68 1.92c1.293-0.744 1.148 1.195 1.92 1.68 0.138-0.422-0.29-1.41 0.24-1.44 0.679-0.039-0.2 1.479 0.48 1.44 0.167-0.881 0.414-1.824 0-2.64-0.632 0.062-0.788 0.494-0.72-0.48-0.853-0.374-0.145 0.815-0.72 0.72v-1.2c-0.693-0.087-0.567-0.223-1.2-0.72-0.416 0.817 0.185 1.408 0 2.64zm50.64-1.44c-0.682 0.042 0.29-1.57-0.72-1.2-0.536 0.618-0.019 2.029 0.72 1.2zm-65.52 0.24c0.003-0.477 0.655-0.305 0.48-0.96-0.607-0.253-1.064 0.809-0.48 0.96zm153.36 1.2c0.054-0.45 0.619-1.591 0-1.92-0.25 0.25-0.5 1.714 0 1.92zm-133.2-0.96c0.065-0.327-0.148-0.937-0.24-0.48-0.065 0.327 0.148 0.937 0.24 0.48zm133.92 0.72c0 1.603 0.34-3.435 0 0zm-154.56 0.24c1.301-0.059 2.188-0.531 2.64-1.44-1.373-0.013-2.019 0.701-2.64 1.44zm183.84 0.24c0.93-0.11 1.459-0.621 1.44-1.68-0.62 0.367-1.91 0.978-1.44 1.68zm-82.56 15.6c0.19 1.483 1.82-0.145 0 0zm-33.6-6.96c2.165 1.481 3.124 3.728 5.28 4.8 0.564 0.281 1.47 0.245 2.16 0.48 0.656 0.223 1.313 0.803 1.92 0.96 5.555 1.435 11.193-0.062 17.04-0.48 1.604-0.114 3.455-0.231 5.04 0 2.06 0.302 3.464 1.995 5.52 1.2-0.925-3.943 1.98-5.401 5.28-6.24 5.124-1.301 13.267-0.078 17.28 1.44 0.12-1.252-1.509-1.335-2.641-1.68-4.294-1.312-10.301-1.669-14.399-0.721-2.995 0.693-5.271 1.703-6.48 3.36-0.473 0.567 0.067 2.146-0.479 2.64-6.596-3.332-14.245 0.435-20.88 0.24-1.811-0.053-4.239-0.919-5.28-1.2-0.835-0.226-1.615-0.029-2.16-0.24-0.958-0.369-2.138-1.394-3.12-2.159-2.467-1.924-3.413-3.123-4.8-5.761 0.437-1.358-0.687-2.349-0.96-3.359-0.259-0.956 0.321-2.199-0.72-2.88-0.385 3.44 1.493 6.656 2.4 9.6zm-71.52-8.4c0.512 0.516 1.307 0.089 1.44-0.48-0.738 0.179-0.461-0.659-1.2-0.48 0.054 0.454-0.27 0.529-0.24 0.96zm181.2-0.96c-0.213-0.185-0.686 0.147-0.721 0.24-0.34 0.917 1.2 0.173 0.72-0.24zm-43.44 19.92c-0.396-0.003-0.135-0.665-0.48-0.72 0.256 0.978-0.173 1.396 0.24 2.4 0.904-0.185 1.147 0.293 1.92 0.24 0.536-0.036-0.312-0.605 0-1.2 1.985-1.192 6.028-1.381 7.681 0.24 4.946 0.957 9.445 3.856 14.88 4.319 3.418 0.291 6.875-0.593 10.56-1.2 0.739-0.179 0.461 0.659 1.2 0.48 0.616-0.904 2.012-1.028 2.88-1.68-0.499-0.135-0.509-0.375-0.24-0.721 2.29-0.978 4.494-2.453 6.24-4.08 3.035-2.827 5.526-6.417 6.48-11.279 0.893 0.252 0.47-0.81 0.96-0.96-0.356-1.645 0.784-4.785-0.721-5.28 0.248 2.799-0.787 3.86-1.199 5.76-0.552 2.535-0.843 3.324-1.921 5.28-4.31 7.821-14.179 13.764-25.92 12-1.104-0.166-2.164 0.066-3.119-0.24-0.684-0.219-1.41-0.973-2.16-1.2-0.359-0.108-0.853 0.136-1.2 0-3.217-1.251-6.313-3.274-9.601-3.6-1.518-0.15-2.975 0.051-4.56 0.479-0.42 0.46-0.282 1.479-1.2 1.44 0.281-4.176-3.487-6.232-6.24-8.16 2.03 2.21 5.57 4.194 5.52 7.682zm53.28-16.8c0.008-1.048 0.088-2.168-0.48-2.64 0.15 0.891-0.39 2.47 0.48 2.64zm-173.28 1.2c0.015-0.465 0.066-3.648-1.2-2.88 0.966 0.328 0.846 2.016 0 1.68 0.954-0.154 0.344 1.256 1.2 1.2zm-11.28 0c0.477 0.003 0.305 0.655 0.96 0.48 0.083-0.878 0.808-1.113 0.72-2.16h-0.96c-0.139 0.661-0.598 1.002-0.72 1.68zm-0.72-1.2c-1.838 0.788 0.77-0.33 0 0zm186.72 1.2c0.36-0.559 0.587-0.366 1.2-0.24-0.149-0.73-0.533-1.227-1.44-1.2 0.14 0.422-0.29 1.41 0.24 1.44zm-191.04 1.2c0.454 0.026 0.167 0.793 0.72 0.72 0.445-0.695 1.602-2.058 0.72-2.64-0.117 1.003-1.091 1.15-1.44 1.92zm5.04 4.08c-1.089-1.32-2.466-3.521-0.72-5.04-3.135-0.553-1.835 5.151 0.72 5.04zm-6.24-3.36c0.7 0.353 0.7-1.072 0-0.72v0.72zm120.72 4.32h0.479v-0.48h-0.479v0.48zm4.56 0c-0.497 0.143-1.576-0.297-1.68 0.24 0.52 0.127 1.55 0.58 1.68-0.24zm-52.08 4.32c-0.106-1.174 0.348-2.908-0.72-3.12-0.196 0.626-0.14 2.78 0.72 3.12zm49.2-2.88c-0.748 0.771 0.061 1.099 0 2.4-0.523 0.153-0.764-0.681-0.72 0.24 0.753 1.061 2.01 0.682 3.359 0.96 0.471 0.097 0.729 0.551 1.2 0.72 2.354 0.844 5.096 1.045 6.96 2.4 0.338-1.374-0.041-2.213-0.96-2.88 0.754-0.121 0.98 0.565 1.2-0.24-3.26-1.846-6.24-3.912-11.04-3.6zm-3.6 0.72h0.479v-0.48h-0.479v0.48zm-44.64 3.6c0.077-0.406 0.35-3.062-0.48-3.36 0.035 0.736-0.232 3.029 0.48 3.36zm40.32-2.4h0.48c0.268-0.345 0.258-0.585-0.24-0.72-0.01 0.306-0.31 0.333-0.24 0.72zm4.32 0.24h0.72c-0.055-0.425 0.242-1.201-0.48-0.96-0.08 0.325-0.34 0.459-0.24 0.96zm-36.96 7.68c2.609 0.401 0.61-2.327 2.16-2.881-0.175-0.785-0.862-1.058-1.44-1.439-0.397 0.302 0.692 3.838-0.72 2.399v1.921zm-1.44-0.72c1.112-0.075 0.797-0.999 1.92-1.439 0.039-0.759 0.009-1.449-0.48-1.681-0.131 0.35 0.281 1.241-0.24 1.2-0.286-0.973-0.41-1.022-1.2-0.479v-1.92c-2.002-0.718-4.165-1.275-5.52-2.641-0.753 0.78 0.514 2.101-0.24 2.88 1.293 1.212 3.732 4.216 5.76 4.08zm108.72-4.8c-0.106-0.453 0.327-1.446-0.479-1.2-0.04 0.595-0.04 1.165 0.48 1.2zm-68.64-0.48c-0.892 0.238-0.628 0.512-1.68 0.239-0.14 0.506 1.78 0.845 1.68-0.239zm-5.28 1.2c0.638-0.162 1.223-0.378 1.681-0.72-0.86-0.472-1.32 0.075-1.68 0.72zm-29.76 0c-0.135-0.756-2.354-0.671-2.64-0.479 0.63 0.407 2.06 0.023 2.64 0.479zm20.88 0.24c0.839 0.476 2.475 0.004 2.88-0.72-1.03 0.166-2.43-0.03-2.88 0.72zm5.52-0.24c-0.183 1.098-1.327 1.233-1.92 1.92 1.785 0.058 3.266-1.491 5.04-2.159-1.34-0.596-1.55 0.457-3.12 0.239zm-11.28 1.92c0.539-0.678 0.073 1.671 0.96 1.44-0.283-1.673 0.403-2.827-0.72-3.6 0.04 0.698-0.84 1.696-0.24 2.16zm2.4 0.72c0.008-1.049 0.088-2.169-0.48-2.641 0.06 0.983-0.23 2.315 0.48 2.641zm85.2-1.92c0.7 0.353 0.7-1.073 0-0.721v0.721zm-109.44 3.84c-0.921-2.119-3.814-2.267-4.8-4.32-0.282 0.038-0.681-0.041-0.72 0.24 1.76 1.44 3.451 2.948 5.52 4.08zm6.24-3.36v-0.479c-0.44-0.799-1.17 0.719 0 0.479zm1.2 0c0.013-0.413-0.185-0.615-0.48-0.72-0.34 0.351-0.35 0.93 0.48 0.72zm18.24 2.64c0.01-0.51 0.352-3.159-0.72-3.36-0.12 1.481 0.11 2.61 0.72 3.36zm31.2-2.16c0.22-0.876-1.169-1.37-1.44-0.96 0.65 0.15 0.6 1.002 1.44 0.96zm-30 2.64c1.194-0.176 0.524-2.956-0.24-3.36-0.5 0.868 0.48 1.986 0.24 3.36zm-21.12-2.16h0.72c0.044-0.523-0.196-0.764-0.72-0.72v0.72zm23.28 2.64c0.628-0.801-0.342-2.05 0-3.36h-0.721c-0.22 0.722-0.23 3.037 0.72 3.36zm27.36-2.16c-0.621-0.259-0.892-0.868-1.68-0.96 0.19 0.546 1.12 1.58 1.68 0.96zm-47.76 1.44c-0.173-0.733 0.246-0.874 0.24-1.439-1.37-0.496-1.7 1.791-0.24 1.439zm45.12-0.96h0.72c0.031-0.431-0.238-0.562-0.72-0.479v0.479zm-41.76 0.24c-0.165 0.805 0.402 0.877 0.96 0.96-0.275-0.755 0.376-0.583 0.48-0.96-0.56-0.074-0.99-0.47-1.44 0zm42.72 0.24c0.307 0.013 0.332 0.308 0.72 0.24 0.013-0.413-0.185-0.615-0.479-0.721 0 0.242-0.19 0.287-0.24 0.481zm-43.68 0.48c0.073-0.632-0.332-0.787-0.96-0.72-0.2 0.859 0.51 1.191 0.96 0.72zm44.4 0.24c0.319 0.312 0.894 0.316 0.96-0.24-0.32-0.312-0.89-0.317-0.96 0.24zm-53.04 1.2c-0.175-0.785-1.342-0.578-1.92-0.96 0.279 0.682 0.975 0.946 1.92 0.96zm19.68 0c0.605-0.627 2.207 0.632 2.399-0.72-0.36-0.304-3.14-0.038-2.4 0.72zm35.04 0.24h0.72c0.031-0.432-0.238-0.562-0.72-0.48v0.48zm-42.24 0.96c0.062-0.499 1.055-0.065 1.2-0.48 0.09-1.561-1.97 0.027-1.2 0.48zm13.44-0.96c-0.205 0.766 0.378 0.742 0.48 1.199 0.897-0.143 1.704-0.375 1.68-1.439-0.6 0.202-1.28 0.315-2.16 0.24zm-15.12 0c-1.215-0.256-1.21 0.709-1.92 0.96v-0.721c-1.391 0.914-2.466-0.69-3.12 0.96 1.17-0.371 4.2 0.977 5.04-1.199zm0.24 0.72h0.96c0.19-0.924-1.15-0.924-0.96 0zm46.8 3.36c0.411-0.9 0.47-3.505-0.24-4.08h-0.721c0.19 1.494-0.3 3.659 0.96 4.08zm-53.28-3.12c0.413 0.013 0.615-0.186 0.72-0.48-0.38 0.023-0.83-0.032-0.72 0.48zm-1.2 0.48c-0.904-0.216-1.679-0.561-2.64-0.72 0.178 0.827 2.28 1.587 2.64 0.72zm66.24 0c0.088 0.809-1.01 0.432-0.96 1.2 0.945 0.015 1.642 0.278 1.92 0.96-0.734 0.174-0.706-0.414-1.44-0.24-0.28 1.24 1.669 0.252 1.681 1.2-0.716 0.064-1.462-0.672-1.681 0.24 0.407 0.473 1.67 0.09 1.681 0.96-0.561-0.073-1.034-0.513-1.2 0.24 1.452 0.308 2.477 1.043 4.08 1.199-0.097-1.189-0.601-3.231 0-4.319 1.228 0.132 0.896 1.823 0.96 3.12 0.97 0.47 2.898-0.019 2.88 1.439-0.634 0.767-1.986-0.592-2.641 0.24 3.477 0.793 7.144 1.384 9.601 0.72-0.695-1.265-0.368-2.724-0.24-4.319-5.37 0.559-10.18-2.276-14.64-2.64zm11.28 1.2c-1.54-0.277-0.53 0.733 0 0zm18.72 1.68c0.761 0.183 1.439-0.935 0.96-1.2-0.16 0.558-1.26 0.181-0.96 1.2zm-13.68 0.24h0.96c0.19-0.924-1.15-0.924-0.96 0zm-25.68 0c0.377-0.022 0.832 0.032 0.72-0.479h-0.479c0 0.24-0.19 0.285-0.24 0.479zm1.2 0.48c0.677 0.037 0.602-0.679 0.96-0.96-0.81-0.104-1.42 0.507-0.96 0.96zm0.96 0c0.812 0.091 1.024-0.416 1.44-0.721-0.55-0.519-1.5-0.086-1.44 0.721zm23.04-0.72c-0.324-0.075-0.459-0.342-0.96-0.239-0.18 0.818 0.92 0.935 0.96 0.239zm13.92 1.2c0.035-0.596 0.045-1.165-0.48-1.2-0.49 0.386-0.65 1.297 0.48 1.2zm-42.96-0.24c0.302 0.099 0.49 0.31 0.479 0.721 0.806 0.005 1.601 0 1.44-0.96-0.84 0.732-1.39-0.983-1.92 0.239zm8.16 0.24c0.628 0.067 1.032-0.088 0.96-0.72-0.6-0.041-0.75 0.368-0.96 0.72zm20.88 0.96c-0.004-0.636 0.133-1.413-0.48-1.439-0.37 0.365-0.43 1.645 0.48 1.439zm1.44-1.2c-0.081-0.193-0.637-0.289-0.72 0-0.16 0.556 0.94 0.519 0.72 0zm-21.12 0.72c0.494 0.21 1.077-0.623 0.479-0.721-0.02 0.38-0.61 0.189-0.48 0.721zm2.88 0.24c-0.651-0.094-0.897-0.1-1.44-0.72-0.021 0.378-0.612 0.188-0.479 0.72 1.14-0.249 1.32 0.98 1.92 0zm5.04 2.64c0.377-0.023 0.832 0.032 0.72-0.48h-0.48c0 0.241-0.2 0.286-0.24 0.48zm1.68-0.24c-1.23 0.58 0.83 0.62 0 0zm12.48 1.2c1.108-0.971 2.433 0.771 2.88-1.2-0.989 0.27-0.901 0.531-1.681 0-0.36 0.44-1 0.599-1.2 1.2zm-3.12 0.48c0.702 0.062 0.737-0.542 1.439-0.479-0.04-1.373-1.49-0.331-1.44 0.479zm-1.2 0.24c0.239-0.32 0.648-0.472 0.72-0.96-0.74-0.313-1.36 0.681-0.72 0.96z"/>
	<path d="m131.76 27.6c1.428 0.667-0.04 3.495-0.24 4.8-0.63-1.398 1.13-3.06 0.24-4.8z"/>
	<path d="m133.44 32.16c1.106 0.146-0.143-2.062 1.2-1.68 0.142 1.022-0.173 1.587-0.24 2.4-0.744 0.024-1.146-0.293-1.68-0.48 0.591-1.344-0.226-2.735 0.479-4.08 0.167-0.458 0.374 0.259 0 0.24-0.14 1.423 0.42 2.139 0.24 3.6z"/>
	<path d="m14.16 32.64c-0.719 0.158 0.229 0.513 0 0.96-1.371-1.174-3.663 1.239-2.4 2.64-0.521 0.884-0.534-0.719-1.2-0.48-0.505-2.265 0.685-2.834 2.4-2.88 0.444-0.036 0.147-0.812 0.48-0.96 1.232 0.048 1.611 0.949 2.4 1.44-0.152 0.888-0.651 1.429-0.48 2.64-0.691 0.108-0.75 0.849-1.68 0.72 1.045-1.141 0.327-2.833 1.44-3.6-0.158-0.322-0.513-0.447-0.96-0.48z"/>
	<path d="m146.4 37.92c1.26 0.141 1.817-0.423 3.12-0.24 0.446-1.349-1.178-2.212-1.68-3.36 1.739-0.695 1.241 2.916 2.88 3.121 1.286-0.999-1.817-2.499-1.2-3.601 1.661 0.499 1.35 2.97 2.64 3.84 0.388 0.068 0.413-0.227 0.721-0.239 0.228-1.508-1.188-1.373-0.96-2.88 1.297 0.382 1.21 2.149 1.68 3.36 0.557 0.076 0.921-0.038 1.2-0.24-0.142-1.378-1.271-1.769-1.44-3.12 2.202 0.438 0.771 4.51 3.84 4.08-0.055-1.291-1.613-2.135-1.199-3.12 1.126 0.634 1.56 1.959 1.68 3.6 1.664 1.216 2.83 2.93 3.84 4.8 0.541 4.317-6.229 5.751-6.96 2.16-0.239-1.175 0.643-1.427 0.479-2.88 0.421 0.587 1.448 0.566 2.16 0.24 0.817 0.832 0.389 1.968 0.96 2.64 0.172 0.651-1.132-0.172-0.96 0.479 0.685 0.669 1.972-0.096 2.16-0.72-0.529-1.87-1.511-3.289-2.399-4.8-2.057-0.264-3.385-1.256-6-0.96-0.705 0.204 0.312 0.604 0 1.2-0.501-0.38-0.471-1.29-1.44-1.2-0.75 1.079 0.898 1.813 0.96 2.88-1.289-0.311-1.061-2.14-2.16-2.64-1.263 0.41 0.769 1.521 0 2.16-0.483-0.637-0.894-1.347-1.2-2.16-0.349-0.132-1.24 0.28-1.199-0.24-0.908 0.149 0.259 1.003-0.96 0.96-1.387-2.854-2.675-5.806-4.08-8.64 1.405-0.206 0.642 1.758 1.92 1.68 0.874-0.5-0.129-1.394 0.72-1.92 2.452 0.269 4.346 0.697 3.84 4.08-0.339-0.363-1.166-0.758-1.68-0.24 0.03 0.847 0.69 1.073 0.72 1.92zm-2.64-1.92c0.513 0.767 1.225 1.335 2.16 1.68 0.2-1.326-1.57-2.67-2.16-1.68zm15.36 8.16c-0.005-0.716 0.022-1.463-0.72-1.44-0.01 0.732 0.22 1.222 0.72 1.44z"/>
	<path d="m140.4 34.32c-1.175 1.636 2.104 3.834 1.44 5.76-1.287-1.314-1.797-4.481-2.88-6.24 0.264-0.616 0.923-0.836 1.439-1.2 0.304 0.656 0.38 1.54 0.72 2.16-0.24 0.741-0.4-0.521-0.72-0.48z"/>
	<path d="m134.4 34.08c1.354 0.023 1.894 3.545 2.88 4.8-1.19 0.156-1.5-3.758-2.88-4.8z"/>
	<path d="m136.56 35.04c1.178-0.293 1.123 2.713 2.16 3.36-1.25 0.367-1.04-2.792-2.16-3.36z"/>
	<path d="m160.08 38.64c-0.804 1.372 1.126 2.069 1.2 3.36-1.264-1.296-2.175-2.944-2.88-4.8 1.056 0.089 0.877 1.781 2.16 0.96 0.439 1.161 1.118 2.081 1.68 3.12-1.2-0.403-1.32-1.881-2.16-2.64z"/>
	<path d="m110.16 38.16c0.895 0.219 0.709 1.482 0.96 2.16 0.613 1.657 1.678 3.088 1.919 4.319-0.692 0.05-0.47-0.522-0.72-0.96-0.93-1.636-1.91-4.111-2.16-5.519z"/>
	<path d="m115.44 38.16c1.192 0.24 1.216 1.941 1.68 2.88 0.551 1.112 1.635 1.948 1.44 2.88-0.971-0.594-1.188-1.94-1.68-2.88-0.49-0.931-1.29-1.808-1.44-2.88z"/>
	<path d="m8.88 39.6c1.094-0.368 2.196 1.32 3.6 1.44-1.216 0.49-2.471-1.045-3.6-1.44z"/>
	<path d="m108.96 40.08c0.835-0.188 1.046 2.309 1.68 3.12-0.94-0.66-0.94-2.256-1.68-3.12z"/>
	<path d="m163.68 40.56c1.187 0.124 0.83 1.219 1.2 1.921 0.85 1.614 2.069 3.338 3.12 4.8 0.946 1.317 2.599 2.29 2.64 3.84-1.196-0.28-1.353-1.559-1.92-2.4-1.453-2.153-3.317-3.856-4.08-6.72-0.4-0.399-0.97-0.629-0.96-1.441z"/>
	<path d="m106.08 41.76c0.669-0.261 1.073 1.801 1.92 2.16-1.1 0.686-1.34-1.535-1.92-2.16z"/>
	<path d="m162.24 42c1.969 0.731 3.991 4.756 5.521 7.2 0.379 0.605 1.446 0.912 0.96 1.68-1.069-0.206-1.026-1.477-1.44-2.16-0.816-1.349-2.015-2.415-2.64-3.84-0.94-0.822-1.66-1.862-2.4-2.88z"/>
	<path d="m166.32 42.48c0.837 0.282 0.609 1.63 1.681 1.68 0.528 2.211 2.83 3.862 3.119 5.52-1.51-2.487-3.76-4.237-4.8-7.2z"/>
	<path d="m162 43.2c1.235 0.764 1.482 2.517 2.64 3.359-0.73-0.309-2.37-1.789-2.64-3.359z"/>
	<path d="m194.64 44.16c0.788 0.972 1.823 1.696 2.399 2.88-1.44-0.321-1.84-1.678-2.4-2.88z"/>
	<path d="m192.48 46.32c0.789 0.491 1.249 1.311 1.68 2.16-0.61-0.671-1.44-1.119-1.68-2.16z"/>
	<path d="m181.68 48.96c1.013-0.048 2.282 1.714 2.88 2.88-1.73-0.186-1.79-2.047-2.88-2.88z"/>
</g>
<metadata><rdf:RDF><cc:Work><dc:format>image/svg+xml</dc:format><dc:type rdf:resource="http://purl.org/dc/dcmitype/StillImage"/><cc:license rdf:resource="http://creativecommons.org/licenses/publicdomain/"/><dc:publisher><cc:Agent rdf:about="http://openclipart.org/"><dc:title>Openclipart</dc:title></cc:Agent></dc:publisher><dc:title>violin</dc:title><dc:date>2008-02-23T05:17:13</dc:date><dc:description>Violin Text-&#xD;\nCONTAINING THE&#xD;\nRudiments and Theory of Music&#xD;\nSPECIALLY ADAPTED TO THE USE OP&#xD;\nVIOLIN STUDENTS&#xD;\nBY&#xD;\nM. C. WICKINS, 1904</dc:description><dc:source>http://openclipart.org/detail/14738/violin-by-johnny_automatic-14738</dc:source><dc:creator><cc:Agent><dc:title>johnny_automatic</dc:title></cc:Agent></dc:creator><dc:subject><rdf:Bag><rdf:li>clip art</rdf:li><rdf:li>clipart</rdf:li><rdf:li>externalsource</rdf:li><rdf:li>image</rdf:li><rdf:li>instrument</rdf:li><rdf:li>media</rdf:li><rdf:li>music</rdf:li><rdf:li>png</rdf:li><rdf:li>public domain</rdf:li><rdf:li>strings</rdf:li><rdf:li>svg</rdf:li><rdf:li>violin</rdf:li></rdf:Bag></dc:subject></cc:Work><cc:License rdf:about="http://creativecommons.org/licenses/publicdomain/"><cc:permits rdf:resource="http://creativecommons.org/ns#Reproduction"/><cc:permits rdf:resource="http://creativecommons.org/ns#Distribution"/><cc:permits rdf:resource="http://creativecommons.org/ns#DerivativeWorks"/></cc:License></rdf:RDF></metadata></svg>
